solid ASCII
  facet normal 7.904242e-01 -6.125599e-01 0.000000e+00
    outer loop
      vertex   -1.249000e+00 1.000000e+00 1.000000e+00
      vertex   -1.249000e+00 1.000000e+00 2.000000e+00
      vertex   -1.280041e+00 9.599458e-01 0.000000e+00
    endloop
  endfacet
  facet normal 8.038450e-01 -5.948386e-01 -5.632034e-04
    outer loop
      vertex   -1.280041e+00 9.599458e-01 0.000000e+00
      vertex   -1.249000e+00 1.000000e+00 2.000000e+00
      vertex   -1.321441e+00 9.021048e-01 2.000000e+00
    endloop
  endfacet
  facet normal 8.221559e-01 -5.692621e-01 5.555201e-04
    outer loop
      vertex   -1.280041e+00 9.599458e-01 0.000000e+00
      vertex   -1.321441e+00 9.021048e-01 2.000000e+00
      vertex   -1.348974e+00 8.603887e-01 0.000000e+00
    endloop
  endfacet
  facet normal 8.467596e-01 -5.319754e-01 -5.609185e-04
    outer loop
      vertex   -1.348974e+00 8.603887e-01 0.000000e+00
      vertex   -1.321441e+00 9.021048e-01 2.000000e+00
      vertex   -1.386227e+00 7.989834e-01 2.000000e+00
    endloop
  endfacet
  facet normal 8.628539e-01 -5.054532e-01 5.531605e-04
    outer loop
      vertex   -1.348974e+00 8.603887e-01 0.000000e+00
      vertex   -1.386227e+00 7.989834e-01 2.000000e+00
      vertex   -1.410181e+00 7.559033e-01 0.000000e+00
    endloop
  endfacet
  facet normal 8.847687e-01 -4.660302e-01 -5.584841e-04
    outer loop
      vertex   -1.410181e+00 7.559033e-01 0.000000e+00
      vertex   -1.386227e+00 7.989834e-01 2.000000e+00
      vertex   -1.442982e+00 6.912330e-01 2.000000e+00
    endloop
  endfacet
  facet normal 8.986095e-01 -4.387490e-01 5.506514e-04
    outer loop
      vertex   -1.410181e+00 7.559033e-01 0.000000e+00
      vertex   -1.442982e+00 6.912330e-01 2.000000e+00
      vertex   -1.463310e+00 6.470882e-01 0.000000e+00
    endloop
  endfacet
  facet normal 9.176518e-01 -3.973850e-01 -5.559004e-04
    outer loop
      vertex   -1.463310e+00 6.470882e-01 0.000000e+00
      vertex   -1.442982e+00 6.912330e-01 2.000000e+00
      vertex   -1.491377e+00 5.794780e-01 2.000000e+00
    endloop
  endfacet
  facet normal 9.292179e-01 -3.695318e-01 5.479930e-04
    outer loop
      vertex   -1.463310e+00 6.470882e-01 0.000000e+00
      vertex   -1.491377e+00 5.794780e-01 2.000000e+00
      vertex   -1.508058e+00 5.345667e-01 0.000000e+00
    endloop
  endfacet
  facet normal 9.452186e-01 -3.264377e-01 -5.531673e-04
    outer loop
      vertex   -1.508058e+00 5.345667e-01 0.000000e+00
      vertex   -1.491377e+00 5.794780e-01 2.000000e+00
      vertex   -1.531132e+00 4.643659e-01 2.000000e+00
    endloop
  endfacet
  facet normal 9.545039e-01 -2.981979e-01 5.451852e-04
    outer loop
      vertex   -1.508058e+00 5.345667e-01 0.000000e+00
      vertex   -1.531132e+00 4.643659e-01 2.000000e+00
      vertex   -1.544167e+00 4.189832e-01 0.000000e+00
    endloop
  endfacet
  facet normal 9.673093e-01 -2.535991e-01 -5.502848e-04
    outer loop
      vertex   -1.544167e+00 4.189832e-01 0.000000e+00
      vertex   -1.531132e+00 4.643659e-01 2.000000e+00
      vertex   -1.562016e+00 3.465634e-01 2.000000e+00
    endloop
  endfacet
  facet normal 9.743226e-01 -2.251559e-01 5.422280e-04
    outer loop
      vertex   -1.544167e+00 4.189832e-01 0.000000e+00
      vertex   -1.562016e+00 3.465634e-01 2.000000e+00
      vertex   -1.571432e+00 3.009998e-01 0.000000e+00
    endloop
  endfacet
  facet normal 9.837959e-01 -1.792913e-01 -5.472529e-04
    outer loop
      vertex   -1.571432e+00 3.009998e-01 0.000000e+00
      vertex   -1.562016e+00 3.465634e-01 2.000000e+00
      vertex   -1.583851e+00 2.267532e-01 2.000000e+00
    endloop
  endfacet
  facet normal 9.885604e-01 -1.508243e-01 5.391215e-04
    outer loop
      vertex   -1.571432e+00 3.009998e-01 0.000000e+00
      vertex   -1.583851e+00 2.267532e-01 2.000000e+00
      vertex   -1.589696e+00 1.812923e-01 0.000000e+00
    endloop
  endfacet
  facet normal 9.945829e-01 -1.039448e-01 -5.440717e-04
    outer loop
      vertex   -1.589696e+00 1.812923e-01 0.000000e+00
      vertex   -1.583851e+00 2.267532e-01 2.000000e+00
      vertex   -1.596509e+00 1.056293e-01 2.000000e+00
    endloop
  endfacet
  facet normal 9.971359e-01 -7.562874e-02 5.358656e-04
    outer loop
      vertex   -1.589696e+00 1.812923e-01 0.000000e+00
      vertex   -1.596509e+00 1.056293e-01 2.000000e+00
      vertex   -1.598854e+00 6.054636e-02 0.000000e+00
    endloop
  endfacet
  facet normal 9.996079e-01 -2.799611e-02 -5.407411e-04
    outer loop
      vertex   -1.598854e+00 6.054636e-02 0.000000e+00
      vertex   -1.596509e+00 1.056293e-01 2.000000e+00
      vertex   -1.599919e+00 -1.610660e-02 2.000000e+00
    endloop
  endfacet
  facet normal 9.999999e-01 0.000000e+00 5.324603e-04
    outer loop
      vertex   -1.598854e+00 6.054636e-02 0.000000e+00
      vertex   -1.599919e+00 -1.610660e-02 2.000000e+00
      vertex   -1.598854e+00 -6.054636e-02 0.000000e+00
    endloop
  endfacet
  facet normal 9.988417e-01 4.811478e-02 -5.372611e-04
    outer loop
      vertex   -1.598854e+00 -6.054636e-02 0.000000e+00
      vertex   -1.599919e+00 -1.610660e-02 2.000000e+00
      vertex   -1.594059e+00 -1.377492e-01 2.000000e+00
    endloop
  endfacet
  facet normal 9.971359e-01 7.562874e-02 5.289056e-04
    outer loop
      vertex   -1.598854e+00 -6.054636e-02 0.000000e+00
      vertex   -1.594059e+00 -1.377492e-01 2.000000e+00
      vertex   -1.589696e+00 -1.812923e-01 0.000000e+00
    endloop
  endfacet
  facet normal 9.922887e-01 1.239469e-01 -5.336317e-04
    outer loop
      vertex   -1.589696e+00 -1.812923e-01 0.000000e+00
      vertex   -1.594059e+00 -1.377492e-01 2.000000e+00
      vertex   -1.578965e+00 -2.585937e-01 2.000000e+00
    endloop
  endfacet
  facet normal 9.885604e-01 1.508243e-01 5.252015e-04
    outer loop
      vertex   -1.589696e+00 -1.812923e-01 0.000000e+00
      vertex   -1.578965e+00 -2.585937e-01 2.000000e+00
      vertex   -1.571432e+00 -3.009998e-01 0.000000e+00
    endloop
  endfacet
  facet normal 9.799870e-01 1.990610e-01 -5.298530e-04
    outer loop
      vertex   -1.571432e+00 -3.009998e-01 0.000000e+00
      vertex   -1.578965e+00 -2.585937e-01 2.000000e+00
      vertex   -1.554722e+00 -3.779401e-01 2.000000e+00
    endloop
  endfacet
  facet normal 9.743226e-01 2.251559e-01 5.213481e-04
    outer loop
      vertex   -1.571432e+00 -3.009998e-01 0.000000e+00
      vertex   -1.554722e+00 -3.779401e-01 2.000000e+00
      vertex   -1.544167e+00 -4.189832e-01 0.000000e+00
    endloop
  endfacet
  facet normal 9.620077e-01 2.730218e-01 -5.259248e-04
    outer loop
      vertex   -1.544167e+00 -4.189832e-01 0.000000e+00
      vertex   -1.554722e+00 -3.779401e-01 2.000000e+00
      vertex   -1.521473e+00 -4.950969e-01 2.000000e+00
    endloop
  endfacet
  facet normal 9.545039e-01 2.981979e-01 5.173453e-04
    outer loop
      vertex   -1.544167e+00 -4.189832e-01 0.000000e+00
      vertex   -1.521473e+00 -4.950969e-01 2.000000e+00
      vertex   -1.508058e+00 -5.345667e-01 0.000000e+00
    endloop
  endfacet
  facet normal 9.384551e-01 3.454009e-01 -5.218474e-04
    outer loop
      vertex   -1.508058e+00 -5.345667e-01 0.000000e+00
      vertex   -1.521473e+00 -4.950969e-01 2.000000e+00
      vertex   -1.479408e+00 -6.093853e-01 2.000000e+00
    endloop
  endfacet
  facet normal 9.292179e-01 3.695318e-01 5.131931e-04
    outer loop
      vertex   -1.508058e+00 -5.345667e-01 0.000000e+00
      vertex   -1.479408e+00 -6.093853e-01 2.000000e+00
      vertex   -1.463310e+00 -6.470882e-01 0.000000e+00
    endloop
  endfacet
  facet normal 9.094656e-01 4.157789e-01 -5.176205e-04
    outer loop
      vertex   -1.463310e+00 -6.470882e-01 0.000000e+00
      vertex   -1.479408e+00 -6.093853e-01 2.000000e+00
      vertex   -1.428773e+00 -7.201434e-01 2.000000e+00
    endloop
  endfacet
  facet normal 8.986095e-01 4.387490e-01 5.088916e-04
    outer loop
      vertex   -1.463310e+00 -6.470882e-01 0.000000e+00
      vertex   -1.428773e+00 -7.201434e-01 2.000000e+00
      vertex   -1.410181e+00 -7.559033e-01 0.000000e+00
    endloop
  endfacet
  facet normal 8.752071e-01 4.837481e-01 -5.132443e-04
    outer loop
      vertex   -1.410181e+00 -7.559033e-01 0.000000e+00
      vertex   -1.428773e+00 -7.201434e-01 2.000000e+00
      vertex   -1.369861e+00 -8.267293e-01 2.000000e+00
    endloop
  endfacet
  facet normal 8.628539e-01 5.054532e-01 5.044407e-04
    outer loop
      vertex   -1.410181e+00 -7.559033e-01 0.000000e+00
      vertex   -1.369861e+00 -8.267293e-01 2.000000e+00
      vertex   -1.348974e+00 -8.603887e-01 0.000000e+00
    endloop
  endfacet
  facet normal 8.358782e-01 5.489147e-01 -5.087187e-04
    outer loop
      vertex   -1.348974e+00 -8.603887e-01 0.000000e+00
      vertex   -1.369861e+00 -8.267293e-01 2.000000e+00
      vertex   -1.303012e+00 -9.285256e-01 2.000000e+00
    endloop
  endfacet
  facet normal 8.221559e-01 5.692622e-01 4.998404e-04
    outer loop
      vertex   -1.348974e+00 -8.603887e-01 0.000000e+00
      vertex   -1.303012e+00 -9.285256e-01 2.000000e+00
      vertex   -1.280041e+00 -9.599458e-01 0.000000e+00
    endloop
  endfacet
  facet normal 7.917066e-01 6.109013e-01 -5.040437e-04
    outer loop
      vertex   -1.280041e+00 -9.599458e-01 0.000000e+00
      vertex   -1.303012e+00 -9.285256e-01 2.000000e+00
      vertex   -1.228614e+00 -1.024942e+00 2.000000e+00
    endloop
  endfacet
  facet normal 7.767487e-01 6.298104e-01 4.950907e-04
    outer loop
      vertex   -1.280041e+00 -9.599458e-01 0.000000e+00
      vertex   -1.228614e+00 -1.024942e+00 2.000000e+00
      vertex   -1.203775e+00 -1.054004e+00 0.000000e+00
    endloop
  endfacet
  facet normal 7.429484e-01 6.693485e-01 -4.992194e-04
    outer loop
      vertex   -1.203775e+00 -1.054004e+00 0.000000e+00
      vertex   -1.228614e+00 -1.024942e+00 2.000000e+00
      vertex   -1.147099e+00 -1.115421e+00 2.000000e+00
    endloop
  endfacet
  facet normal 7.268924e-01 6.867512e-01 4.901917e-04
    outer loop
      vertex   -1.203775e+00 -1.054004e+00 0.000000e+00
      vertex   -1.147099e+00 -1.115421e+00 2.000000e+00
      vertex   -1.120615e+00 -1.142026e+00 0.000000e+00
    endloop
  endfacet
  facet normal 6.898859e-01 7.239180e-01 -4.942457e-04
    outer loop
      vertex   -1.120615e+00 -1.142026e+00 0.000000e+00
      vertex   -1.147099e+00 -1.115421e+00 2.000000e+00
      vertex   -1.058937e+00 -1.199438e+00 2.000000e+00
    endloop
  endfacet
  facet normal 6.728724e-01 7.397584e-01 4.851434e-04
    outer loop
      vertex   -1.120615e+00 -1.142026e+00 0.000000e+00
      vertex   -1.058937e+00 -1.199438e+00 2.000000e+00
      vertex   -1.031035e+00 -1.223506e+00 0.000000e+00
    endloop
  endfacet
  facet normal 6.328265e-01 7.742935e-01 -4.891226e-04
    outer loop
      vertex   -1.031035e+00 -1.223506e+00 0.000000e+00
      vertex   -1.058937e+00 -1.199438e+00 2.000000e+00
      vertex   -9.646409e-01 -1.276506e+00 2.000000e+00
    endloop
  endfacet
  facet normal 6.149984e-01 7.885282e-01 4.799456e-04
    outer loop
      vertex   -1.031035e+00 -1.223506e+00 0.000000e+00
      vertex   -9.646409e-01 -1.276506e+00 2.000000e+00
      vertex   -9.355502e-01 -1.297978e+00 0.000000e+00
    endloop
  endfacet
  facet normal 5.721009e-01 8.201831e-01 -4.838502e-04
    outer loop
      vertex   -9.355502e-01 -1.297978e+00 0.000000e+00
      vertex   -9.646409e-01 -1.276506e+00 2.000000e+00
      vertex   -8.647560e-01 -1.346179e+00 2.000000e+00
    endloop
  endfacet
  facet normal 5.536016e-01 8.327815e-01 4.745985e-04
    outer loop
      vertex   -9.355502e-01 -1.297978e+00 0.000000e+00
      vertex   -8.647560e-01 -1.346179e+00 2.000000e+00
      vertex   -8.347064e-01 -1.365015e+00 0.000000e+00
    endloop
  endfacet
  facet normal 5.080609e-01 8.613210e-01 -4.784284e-04
    outer loop
      vertex   -8.347064e-01 -1.365015e+00 0.000000e+00
      vertex   -8.647560e-01 -1.346179e+00 2.000000e+00
      vertex   -7.598612e-01 -1.408052e+00 2.000000e+00
    endloop
  endfacet
  facet normal 4.890339e-01 8.722646e-01 4.691020e-04
    outer loop
      vertex   -8.347064e-01 -1.365015e+00 0.000000e+00
      vertex   -7.598612e-01 -1.408052e+00 2.000000e+00
      vertex   -7.290815e-01 -1.424233e+00 0.000000e+00
    endloop
  endfacet
  facet normal 4.410774e-01 8.974689e-01 -4.728572e-04
    outer loop
      vertex   -7.290815e-01 -1.424233e+00 0.000000e+00
      vertex   -7.598612e-01 -1.408052e+00 2.000000e+00
      vertex   -6.505642e-01 -1.461768e+00 2.000000e+00
    endloop
  endfacet
  facet normal 4.216651e-01 9.067515e-01 4.634562e-04
    outer loop
      vertex   -7.290815e-01 -1.424233e+00 0.000000e+00
      vertex   -6.505642e-01 -1.461768e+00 2.000000e+00
      vertex   -6.192805e-01 -1.475294e+00 0.000000e+00
    endloop
  endfacet
  facet normal 3.715386e-01 9.284174e-01 -4.671367e-04
    outer loop
      vertex   -6.192805e-01 -1.475294e+00 0.000000e+00
      vertex   -6.505642e-01 -1.461768e+00 2.000000e+00
      vertex   -5.374981e-01 -1.507016e+00 2.000000e+00
    endloop
  endfacet
  facet normal 3.518810e-01 9.360446e-01 4.576610e-04
    outer loop
      vertex   -6.192805e-01 -1.475294e+00 0.000000e+00
      vertex   -5.374981e-01 -1.507016e+00 2.000000e+00
      vertex   -5.059323e-01 -1.517904e+00 0.000000e+00
    endloop
  endfacet
  facet normal 2.998473e-01 9.539871e-01 -4.612668e-04
    outer loop
      vertex   -5.059323e-01 -1.517904e+00 0.000000e+00
      vertex   -5.374981e-01 -1.507016e+00 2.000000e+00
      vertex   -4.213181e-01 -1.543532e+00 2.000000e+00
    endloop
  endfacet
  facet normal 2.800813e-01 9.599762e-01 4.517164e-04
    outer loop
      vertex   -5.059323e-01 -1.517904e+00 0.000000e+00
      vertex   -4.213181e-01 -1.543532e+00 2.000000e+00
      vertex   -3.896861e-01 -1.551820e+00 0.000000e+00
    endloop
  endfacet
  facet normal 2.264188e-01 9.740299e-01 -4.552476e-04
    outer loop
      vertex   -3.896861e-01 -1.551820e+00 0.000000e+00
      vertex   -4.213181e-01 -1.543532e+00 2.000000e+00
      vertex   -3.026972e-01 -1.571106e+00 2.000000e+00
    endloop
  endfacet
  facet normal 2.066774e-01 9.784090e-01 4.456225e-04
    outer loop
      vertex   -3.896861e-01 -1.551820e+00 0.000000e+00
      vertex   -3.026972e-01 -1.571106e+00 2.000000e+00
      vertex   -2.712079e-01 -1.576847e+00 0.000000e+00
    endloop
  endfacet
  facet normal 1.516786e-01 9.884298e-01 -4.490790e-04
    outer loop
      vertex   -2.712079e-01 -1.576847e+00 0.000000e+00
      vertex   -3.026972e-01 -1.571106e+00 2.000000e+00
      vertex   -1.823227e-01 -1.589578e+00 2.000000e+00
    endloop
  endfacet
  facet normal 1.320896e-01 9.912377e-01 4.393792e-04
    outer loop
      vertex   -2.712079e-01 -1.576847e+00 0.000000e+00
      vertex   -1.823227e-01 -1.589578e+00 2.000000e+00
      vertex   -1.511762e-01 -1.592842e+00 0.000000e+00
    endloop
  endfacet
  facet normal 7.605961e-02 9.971032e-01 -4.427610e-04
    outer loop
      vertex   -1.511762e-01 -1.592842e+00 0.000000e+00
      vertex   -1.823227e-01 -1.589578e+00 2.000000e+00
      vertex   -6.089181e-02 -1.598841e+00 2.000000e+00
    endloop
  endfacet
  facet normal 5.674527e-02 9.983886e-01 4.329866e-04
    outer loop
      vertex   -1.511762e-01 -1.592842e+00 0.000000e+00
      vertex   -6.089181e-02 -1.598841e+00 2.000000e+00
      vertex   -3.027860e-02 -1.599713e+00 0.000000e+00
    endloop
  endfacet
  facet normal 0.000000e+00 9.999999e-01 -4.362937e-04
    outer loop
      vertex   -3.027860e-02 -1.599713e+00 0.000000e+00
      vertex   -6.089181e-02 -1.598841e+00 2.000000e+00
      vertex   6.089181e-02 -1.598841e+00 2.000000e+00
    endloop
  endfacet
  facet normal -1.892413e-02 9.998208e-01 4.264446e-04
    outer loop
      vertex   -3.027860e-02 -1.599713e+00 0.000000e+00
      vertex   6.089181e-02 -1.598841e+00 2.000000e+00
      vertex   9.079244e-02 -1.597422e+00 0.000000e+00
    endloop
  endfacet
  facet normal -7.605961e-02 9.971032e-01 -4.296771e-04
    outer loop
      vertex   9.079244e-02 -1.597422e+00 0.000000e+00
      vertex   6.089181e-02 -1.598841e+00 2.000000e+00
      vertex   1.823227e-01 -1.589578e+00 2.000000e+00
    endloop
  endfacet
  facet normal -9.448512e-02 9.955262e-01 4.197532e-04
    outer loop
      vertex   9.079244e-02 -1.597422e+00 0.000000e+00
      vertex   1.823227e-01 -1.589578e+00 2.000000e+00
      vertex   2.113434e-01 -1.585980e+00 0.000000e+00
    endloop
  endfacet
  facet normal -1.516786e-01 9.884298e-01 -4.229110e-04
    outer loop
      vertex   2.113434e-01 -1.585980e+00 0.000000e+00
      vertex   1.823227e-01 -1.589578e+00 2.000000e+00
      vertex   3.026972e-01 -1.571106e+00 2.000000e+00
    endloop
  endfacet
  facet normal -1.695049e-01 9.855293e-01 4.129125e-04
    outer loop
      vertex   2.113434e-01 -1.585980e+00 0.000000e+00
      vertex   3.026972e-01 -1.571106e+00 2.000000e+00
      vertex   3.306839e-01 -1.565455e+00 0.000000e+00
    endloop
  endfacet
  facet normal -2.264188e-01 9.740300e-01 -4.159957e-04
    outer loop
      vertex   3.306839e-01 -1.565455e+00 0.000000e+00
      vertex   3.026972e-01 -1.571106e+00 2.000000e+00
      vertex   4.213181e-01 -1.543532e+00 2.000000e+00
    endloop
  endfacet
  facet normal -2.435538e-01 9.698873e-01 4.059225e-04
    outer loop
      vertex   3.306839e-01 -1.565455e+00 0.000000e+00
      vertex   4.213181e-01 -1.543532e+00 2.000000e+00
      vertex   4.481302e-01 -1.535962e+00 0.000000e+00
    endloop
  endfacet
  facet normal -2.998473e-01 9.539871e-01 -4.089309e-04
    outer loop
      vertex   4.481302e-01 -1.535962e+00 0.000000e+00
      vertex   4.213181e-01 -1.543532e+00 2.000000e+00
      vertex   5.374981e-01 -1.507016e+00 2.000000e+00
    endloop
  endfacet
  facet normal -3.162076e-01 9.486899e-01 3.987831e-04
    outer loop
      vertex   4.481302e-01 -1.535962e+00 0.000000e+00
      vertex   5.374981e-01 -1.507016e+00 2.000000e+00
      vertex   5.630096e-01 -1.497672e+00 0.000000e+00
    endloop
  endfacet
  facet normal -3.715386e-01 9.284174e-01 -4.017168e-04
    outer loop
      vertex   5.630096e-01 -1.497672e+00 0.000000e+00
      vertex   5.374981e-01 -1.507016e+00 2.000000e+00
      vertex   6.505642e-01 -1.461768e+00 2.000000e+00
    endloop
  endfacet
  facet normal -3.870503e-01 9.220585e-01 3.914943e-04
    outer loop
      vertex   5.630096e-01 -1.497672e+00 0.000000e+00
      vertex   6.505642e-01 -1.461768e+00 2.000000e+00
      vertex   6.746642e-01 -1.450803e+00 0.000000e+00
    endloop
  endfacet
  facet normal -4.410774e-01 8.974690e-01 -3.943534e-04
    outer loop
      vertex   6.746642e-01 -1.450803e+00 0.000000e+00
      vertex   6.505642e-01 -1.461768e+00 2.000000e+00
      vertex   7.598612e-01 -1.408052e+00 2.000000e+00
    endloop
  endfacet
  facet normal -4.556759e-01 8.901457e-01 3.840562e-04
    outer loop
      vertex   6.746642e-01 -1.450803e+00 0.000000e+00
      vertex   7.598612e-01 -1.408052e+00 2.000000e+00
      vertex   7.824544e-01 -1.395624e+00 0.000000e+00
    endloop
  endfacet
  facet normal -5.080609e-01 8.613211e-01 -3.868406e-04
    outer loop
      vertex   7.824544e-01 -1.395624e+00 0.000000e+00
      vertex   7.598612e-01 -1.408052e+00 2.000000e+00
      vertex   8.647560e-01 -1.346179e+00 2.000000e+00
    endloop
  endfacet
  facet normal -5.216915e-01 8.531341e-01 3.764688e-04
    outer loop
      vertex   7.824544e-01 -1.395624e+00 0.000000e+00
      vertex   8.647560e-01 -1.346179e+00 2.000000e+00
      vertex   8.857627e-01 -1.332451e+00 0.000000e+00
    endloop
  endfacet
  facet normal -5.721009e-01 8.201831e-01 -3.791785e-04
    outer loop
      vertex   8.857627e-01 -1.332451e+00 0.000000e+00
      vertex   8.647560e-01 -1.346179e+00 2.000000e+00
      vertex   9.646409e-01 -1.276506e+00 2.000000e+00
    endloop
  endfacet
  facet normal -5.847188e-01 8.112359e-01 3.687320e-04
    outer loop
      vertex   8.857627e-01 -1.332451e+00 0.000000e+00
      vertex   9.646409e-01 -1.276506e+00 2.000000e+00
      vertex   9.839975e-01 -1.261645e+00 0.000000e+00
    endloop
  endfacet
  facet normal -6.328265e-01 7.742935e-01 -3.713670e-04
    outer loop
      vertex   9.839975e-01 -1.261645e+00 0.000000e+00
      vertex   9.646409e-01 -1.276506e+00 2.000000e+00
      vertex   1.058937e+00 -1.199438e+00 2.000000e+00
    endloop
  endfacet
  facet normal -6.443970e-01 7.646910e-01 3.608458e-04
    outer loop
      vertex   9.839975e-01 -1.261645e+00 0.000000e+00
      vertex   1.058937e+00 -1.199438e+00 2.000000e+00
      vertex   1.076596e+00 -1.183614e+00 0.000000e+00
    endloop
  endfacet
  facet normal -6.898859e-01 7.239180e-01 -3.634062e-04
    outer loop
      vertex   1.076596e+00 -1.183614e+00 0.000000e+00
      vertex   1.058937e+00 -1.199438e+00 2.000000e+00
      vertex   1.147099e+00 -1.115421e+00 2.000000e+00
    endloop
  endfacet
  facet normal -7.003841e-01 7.137661e-01 3.528103e-04
    outer loop
      vertex   1.076596e+00 -1.183614e+00 0.000000e+00
      vertex   1.147099e+00 -1.115421e+00 2.000000e+00
      vertex   1.163028e+00 -1.098802e+00 0.000000e+00
    endloop
  endfacet
  facet normal -7.429484e-01 6.693486e-01 -3.552961e-04
    outer loop
      vertex   1.163028e+00 -1.098802e+00 0.000000e+00
      vertex   1.147099e+00 -1.115421e+00 2.000000e+00
      vertex   1.228614e+00 -1.024942e+00 2.000000e+00
    endloop
  endfacet
  facet normal -7.523595e-01 6.587527e-01 3.446255e-04
    outer loop
      vertex   1.163028e+00 -1.098802e+00 0.000000e+00
      vertex   1.228614e+00 -1.024942e+00 2.000000e+00
      vertex   1.242798e+00 -1.007697e+00 0.000000e+00
    endloop
  endfacet
  facet normal -7.917067e-01 6.109013e-01 -3.470366e-04
    outer loop
      vertex   1.242798e+00 -1.007697e+00 0.000000e+00
      vertex   1.228614e+00 -1.024942e+00 2.000000e+00
      vertex   1.303012e+00 -9.285256e-01 2.000000e+00
    endloop
  endfacet
  facet normal -8.000254e-01 5.999661e-01 3.362914e-04
    outer loop
      vertex   1.242798e+00 -1.007697e+00 0.000000e+00
      vertex   1.303012e+00 -9.285256e-01 2.000000e+00
      vertex   1.315450e+00 -9.108196e-01 0.000000e+00
    endloop
  endfacet
  facet normal -8.358783e-01 5.489148e-01 -3.386278e-04
    outer loop
      vertex   1.315450e+00 -9.108196e-01 0.000000e+00
      vertex   1.303012e+00 -9.285256e-01 2.000000e+00
      vertex   1.369861e+00 -8.267293e-01 2.000000e+00
    endloop
  endfacet
  facet normal -8.431088e-01 5.377429e-01 3.278079e-04
    outer loop
      vertex   1.315450e+00 -9.108196e-01 0.000000e+00
      vertex   1.369861e+00 -8.267293e-01 2.000000e+00
      vertex   1.380566e+00 -8.087252e-01 0.000000e+00
    endloop
  endfacet
  facet normal -8.752072e-01 4.837481e-01 -3.300696e-04
    outer loop
      vertex   1.380566e+00 -8.087252e-01 0.000000e+00
      vertex   1.369861e+00 -8.267293e-01 2.000000e+00
      vertex   1.428773e+00 -7.201434e-01 2.000000e+00
    endloop
  endfacet
  facet normal -8.813630e-01 4.724395e-01 3.191750e-04
    outer loop
      vertex   1.380566e+00 -8.087252e-01 0.000000e+00
      vertex   1.428773e+00 -7.201434e-01 2.000000e+00
      vertex   1.437775e+00 -7.019986e-01 0.000000e+00
    endloop
  endfacet
  facet normal -9.094657e-01 4.157789e-01 -3.213621e-04
    outer loop
      vertex   1.437775e+00 -7.019986e-01 0.000000e+00
      vertex   1.428773e+00 -7.201434e-01 2.000000e+00
      vertex   1.479408e+00 -6.093853e-01 2.000000e+00
    endloop
  endfacet
  facet normal -9.145689e-01 4.044301e-01 3.103929e-04
    outer loop
      vertex   1.437775e+00 -7.019986e-01 0.000000e+00
      vertex   1.479408e+00 -6.093853e-01 2.000000e+00
      vertex   1.486749e+00 -5.912509e-01 0.000000e+00
    endloop
  endfacet
  facet normal -9.384552e-01 3.454009e-01 -3.125053e-04
    outer loop
      vertex   1.486749e+00 -5.912509e-01 0.000000e+00
      vertex   1.479408e+00 -6.093853e-01 2.000000e+00
      vertex   1.521473e+00 -4.950969e-01 2.000000e+00
    endloop
  endfacet
  facet normal -9.425361e-01 3.341042e-01 3.014613e-04
    outer loop
      vertex   1.486749e+00 -5.912509e-01 0.000000e+00
      vertex   1.521473e+00 -4.950969e-01 2.000000e+00
      vertex   1.527207e+00 -4.771167e-01 0.000000e+00
    endloop
  endfacet
  facet normal -9.620078e-01 2.730218e-01 -3.034991e-04
    outer loop
      vertex   1.527207e+00 -4.771167e-01 0.000000e+00
      vertex   1.521473e+00 -4.950969e-01 2.000000e+00
      vertex   1.554722e+00 -3.779401e-01 2.000000e+00
    endloop
  endfacet
  facet normal -9.651046e-01 2.618645e-01 2.923805e-04
    outer loop
      vertex   1.527207e+00 -4.771167e-01 0.000000e+00
      vertex   1.554722e+00 -3.779401e-01 2.000000e+00
      vertex   1.558916e+00 -3.602495e-01 0.000000e+00
    endloop
  endfacet
  facet normal -9.799871e-01 1.990610e-01 -2.943436e-04
    outer loop
      vertex   1.558916e+00 -3.602495e-01 0.000000e+00
      vertex   1.554722e+00 -3.779401e-01 2.000000e+00
      vertex   1.578965e+00 -2.585937e-01 2.000000e+00
    endloop
  endfacet
  facet normal -9.821451e-01 1.881249e-01 2.831503e-04
    outer loop
      vertex   1.558916e+00 -3.602495e-01 0.000000e+00
      vertex   1.578965e+00 -2.585937e-01 2.000000e+00
      vertex   1.581697e+00 -2.413189e-01 0.000000e+00
    endloop
  endfacet
  facet normal -9.922888e-01 1.239469e-01 -2.850387e-04
    outer loop
      vertex   1.581697e+00 -2.413189e-01 0.000000e+00
      vertex   1.578965e+00 -2.585937e-01 2.000000e+00
      vertex   1.594059e+00 -1.377492e-01 2.000000e+00
    endloop
  endfacet
  facet normal -9.935599e-01 1.133077e-01 2.737709e-04
    outer loop
      vertex   1.581697e+00 -2.413189e-01 0.000000e+00
      vertex   1.594059e+00 -1.377492e-01 2.000000e+00
      vertex   1.595418e+00 -1.210060e-01 0.000000e+00
    endloop
  endfacet
  facet normal -9.988418e-01 4.811479e-02 -2.755846e-04
    outer loop
      vertex   1.595418e+00 -1.210060e-01 0.000000e+00
      vertex   1.594059e+00 -1.377492e-01 2.000000e+00
      vertex   1.599919e+00 -1.610660e-02 2.000000e+00
    endloop
  endfacet
  facet normal -9.992837e-01 3.784148e-02 2.642420e-04
    outer loop
      vertex   1.595418e+00 -1.210060e-01 0.000000e+00
      vertex   1.599919e+00 -1.610660e-02 2.000000e+00
      vertex   1.600000e+00 0.000000e+00 0.000000e+00
    endloop
  endfacet
  facet normal -9.996080e-01 -2.799612e-02 -2.659811e-04
    outer loop
      vertex   1.600000e+00 0.000000e+00 0.000000e+00
      vertex   1.599919e+00 -1.610660e-02 2.000000e+00
      vertex   1.596509e+00 1.056293e-01 2.000000e+00
    endloop
  endfacet
  facet normal -9.992837e-01 -3.784148e-02 2.545639e-04
    outer loop
      vertex   1.600000e+00 0.000000e+00 0.000000e+00
      vertex   1.596509e+00 1.056293e-01 2.000000e+00
      vertex   1.595418e+00 1.210060e-01 0.000000e+00
    endloop
  endfacet
  facet normal -9.945830e-01 -1.039448e-01 -2.562283e-04
    outer loop
      vertex   1.595418e+00 1.210060e-01 0.000000e+00
      vertex   1.596509e+00 1.056293e-01 2.000000e+00
      vertex   1.583851e+00 2.267532e-01 2.000000e+00
    endloop
  endfacet
  facet normal -9.935599e-01 -1.133077e-01 2.447364e-04
    outer loop
      vertex   1.595418e+00 1.210060e-01 0.000000e+00
      vertex   1.583851e+00 2.267532e-01 2.000000e+00
      vertex   1.581697e+00 2.413189e-01 0.000000e+00
    endloop
  endfacet
  facet normal -9.837960e-01 -1.792913e-01 -2.463262e-04
    outer loop
      vertex   1.581697e+00 2.413189e-01 0.000000e+00
      vertex   1.583851e+00 2.267532e-01 2.000000e+00
      vertex   1.562016e+00 3.465634e-01 2.000000e+00
    endloop
  endfacet
  facet normal -9.821451e-01 -1.881249e-01 2.347596e-04
    outer loop
      vertex   1.581697e+00 2.413189e-01 0.000000e+00
      vertex   1.562016e+00 3.465634e-01 2.000000e+00
      vertex   1.558916e+00 3.602495e-01 0.000000e+00
    endloop
  endfacet
  facet normal -9.673094e-01 -2.535991e-01 -2.362747e-04
    outer loop
      vertex   1.558916e+00 3.602495e-01 0.000000e+00
      vertex   1.562016e+00 3.465634e-01 2.000000e+00
      vertex   1.531132e+00 4.643659e-01 2.000000e+00
    endloop
  endfacet
  facet normal -9.651046e-01 -2.618645e-01 2.246335e-04
    outer loop
      vertex   1.558916e+00 3.602495e-01 0.000000e+00
      vertex   1.531132e+00 4.643659e-01 2.000000e+00
      vertex   1.527207e+00 4.771167e-01 0.000000e+00
    endloop
  endfacet
  facet normal -9.452187e-01 -3.264377e-01 -2.260740e-04
    outer loop
      vertex   1.527207e+00 4.771167e-01 0.000000e+00
      vertex   1.531132e+00 4.643659e-01 2.000000e+00
      vertex   1.491377e+00 5.794780e-01 2.000000e+00
    endloop
  endfacet
  facet normal -9.425361e-01 -3.341042e-01 2.143581e-04
    outer loop
      vertex   1.527207e+00 4.771167e-01 0.000000e+00
      vertex   1.491377e+00 5.794780e-01 2.000000e+00
      vertex   1.486749e+00 5.912509e-01 0.000000e+00
    endloop
  endfacet
  facet normal -9.176519e-01 -3.973851e-01 -2.157239e-04
    outer loop
      vertex   1.486749e+00 5.912509e-01 0.000000e+00
      vertex   1.491377e+00 5.794780e-01 2.000000e+00
      vertex   1.442982e+00 6.912330e-01 2.000000e+00
    endloop
  endfacet
  facet normal -9.145689e-01 -4.044301e-01 2.039334e-04
    outer loop
      vertex   1.486749e+00 5.912509e-01 0.000000e+00
      vertex   1.442982e+00 6.912330e-01 2.000000e+00
      vertex   1.437775e+00 7.019986e-01 0.000000e+00
    endloop
  endfacet
  facet normal -8.847688e-01 -4.660302e-01 -2.052245e-04
    outer loop
      vertex   1.437775e+00 7.019986e-01 0.000000e+00
      vertex   1.442982e+00 6.912330e-01 2.000000e+00
      vertex   1.386227e+00 7.989834e-01 2.000000e+00
    endloop
  endfacet
  facet normal -8.813630e-01 -4.724396e-01 1.933593e-04
    outer loop
      vertex   1.437775e+00 7.019986e-01 0.000000e+00
      vertex   1.386227e+00 7.989834e-01 2.000000e+00
      vertex   1.380566e+00 8.087252e-01 0.000000e+00
    endloop
  endfacet
  facet normal -8.467598e-01 -5.319754e-01 -1.945758e-04
    outer loop
      vertex   1.380566e+00 8.087252e-01 0.000000e+00
      vertex   1.386227e+00 7.989834e-01 2.000000e+00
      vertex   1.321441e+00 9.021048e-01 2.000000e+00
    endloop
  endfacet
  facet normal -8.431089e-01 -5.377429e-01 1.826359e-04
    outer loop
      vertex   1.380566e+00 8.087252e-01 0.000000e+00
      vertex   1.321441e+00 9.021048e-01 2.000000e+00
      vertex   1.315450e+00 9.108196e-01 0.000000e+00
    endloop
  endfacet
  facet normal -8.029057e-01 -5.961060e-01 -1.921141e-04
    outer loop
      vertex   1.315450e+00 9.108196e-01 0.000000e+00
      vertex   1.321441e+00 9.021048e-01 2.000000e+00
      vertex   1.249000e+00 1.000000e+00 1.000000e+00
    endloop
  endfacet
  facet normal -8.000254e-01 -5.999661e-01 3.435265e-04
    outer loop
      vertex   1.315450e+00 9.108196e-01 0.000000e+00
      vertex   1.249000e+00 1.000000e+00 1.000000e+00
      vertex   1.242798e+00 1.007697e+00 0.000000e+00
    endloop
  endfacet
  facet normal -7.567620e-01 -6.536904e-01 -3.382796e-04
    outer loop
      vertex   1.242798e+00 1.007697e+00 0.000000e+00
      vertex   1.249000e+00 1.000000e+00 1.000000e+00
      vertex   1.170953e+00 1.090353e+00 1.000000e+00
    endloop
  endfacet
  facet normal -7.523594e-01 -6.587527e-01 3.964485e-04
    outer loop
      vertex   1.242798e+00 1.007697e+00 0.000000e+00
      vertex   1.170953e+00 1.090353e+00 1.000000e+00
      vertex   1.163028e+00 1.098802e+00 0.000000e+00
    endloop
  endfacet
  facet normal -7.059097e-01 -7.083018e-01 -3.902993e-04
    outer loop
      vertex   1.163028e+00 1.098802e+00 0.000000e+00
      vertex   1.170953e+00 1.090353e+00 1.000000e+00
      vertex   1.086386e+00 1.174635e+00 1.000000e+00
    endloop
  endfacet
  facet normal -7.003841e-01 -7.137660e-01 4.475659e-04
    outer loop
      vertex   1.163028e+00 1.098802e+00 0.000000e+00
      vertex   1.086386e+00 1.174635e+00 1.000000e+00
      vertex   1.076596e+00 1.183614e+00 0.000000e+00
    endloop
  endfacet
  facet normal -6.511266e-01 -7.589690e-01 -4.405142e-04
    outer loop
      vertex   1.076596e+00 1.183614e+00 0.000000e+00
      vertex   1.086386e+00 1.174635e+00 1.000000e+00
      vertex   9.957690e-01 1.252375e+00 1.000000e+00
    endloop
  endfacet
  facet normal -6.443970e-01 -7.646910e-01 4.968784e-04
    outer loop
      vertex   1.076596e+00 1.183614e+00 0.000000e+00
      vertex   9.957690e-01 1.252375e+00 1.000000e+00
      vertex   9.839975e-01 1.261645e+00 0.000000e+00
    endloop
  endfacet
  facet normal -5.927178e-01 -8.054100e-01 -4.889244e-04
    outer loop
      vertex   9.839975e-01 1.261645e+00 0.000000e+00
      vertex   9.957690e-01 1.252375e+00 1.000000e+00
      vertex   8.996077e-01 1.323142e+00 1.000000e+00
    endloop
  endfacet
  facet normal -5.847188e-01 -8.112359e-01 5.443861e-04
    outer loop
      vertex   9.839975e-01 1.261645e+00 0.000000e+00
      vertex   8.996077e-01 1.323142e+00 1.000000e+00
      vertex   8.857627e-01 1.332451e+00 0.000000e+00
    endloop
  endfacet
  facet normal -5.310086e-01 -8.473663e-01 -5.355296e-04
    outer loop
      vertex   8.857627e-01 1.332451e+00 0.000000e+00
      vertex   8.996077e-01 1.323142e+00 1.000000e+00
      vertex   7.984370e-01 1.386542e+00 1.000000e+00
    endloop
  endfacet
  facet normal -5.216914e-01 -8.531341e-01 5.900890e-04
    outer loop
      vertex   8.857627e-01 1.332451e+00 0.000000e+00
      vertex   7.984370e-01 1.386542e+00 1.000000e+00
      vertex   7.824544e-01 1.395624e+00 0.000000e+00
    endloop
  endfacet
  facet normal -4.663425e-01 -8.846040e-01 -5.803300e-04
    outer loop
      vertex   7.824544e-01 1.395624e+00 0.000000e+00
      vertex   7.984370e-01 1.386542e+00 1.000000e+00
      vertex   6.928203e-01 1.442221e+00 1.000000e+00
    endloop
  endfacet
  facet normal -4.556758e-01 -8.901456e-01 6.339869e-04
    outer loop
      vertex   7.824544e-01 1.395624e+00 0.000000e+00
      vertex   6.928203e-01 1.442221e+00 1.000000e+00
      vertex   6.746642e-01 1.450803e+00 0.000000e+00
    endloop
  endfacet
  facet normal -3.990797e-01 -9.169160e-01 -6.233255e-04
    outer loop
      vertex   6.746642e-01 1.450803e+00 0.000000e+00
      vertex   6.928203e-01 1.442221e+00 1.000000e+00
      vertex   5.833458e-01 1.489868e+00 1.000000e+00
    endloop
  endfacet
  facet normal -3.870502e-01 -9.220584e-01 6.760798e-04
    outer loop
      vertex   6.746642e-01 1.450803e+00 0.000000e+00
      vertex   5.833458e-01 1.489868e+00 1.000000e+00
      vertex   5.630096e-01 1.497672e+00 0.000000e+00
    endloop
  endfacet
  facet normal -3.295947e-01 -9.441223e-01 -6.645159e-04
    outer loop
      vertex   5.630096e-01 1.497672e+00 0.000000e+00
      vertex   5.833458e-01 1.489868e+00 1.000000e+00
      vertex   4.706230e-01 1.529220e+00 1.000000e+00
    endloop
  endfacet
  facet normal -3.162076e-01 -9.486898e-01 7.163677e-04
    outer loop
      vertex   5.630096e-01 1.497672e+00 0.000000e+00
      vertex   4.706230e-01 1.529220e+00 1.000000e+00
      vertex   4.481302e-01 1.535962e+00 0.000000e+00
    endloop
  endfacet
  facet normal -2.582743e-01 -9.660714e-01 -7.039013e-04
    outer loop
      vertex   4.481302e-01 1.535962e+00 0.000000e+00
      vertex   4.706230e-01 1.529220e+00 1.000000e+00
      vertex   3.552796e-01 1.560057e+00 1.000000e+00
    endloop
  endfacet
  facet normal -2.435538e-01 -9.698871e-01 7.548506e-04
    outer loop
      vertex   4.481302e-01 1.535962e+00 0.000000e+00
      vertex   3.552796e-01 1.560057e+00 1.000000e+00
      vertex   3.306839e-01 1.565455e+00 0.000000e+00
    endloop
  endfacet
  facet normal -1.855158e-01 -9.826410e-01 -7.414816e-04
    outer loop
      vertex   3.306839e-01 1.565455e+00 0.000000e+00
      vertex   3.552796e-01 1.560057e+00 1.000000e+00
      vertex   2.379579e-01 1.582206e+00 1.000000e+00
    endloop
  endfacet
  facet normal -1.695049e-01 -9.855290e-01 7.915283e-04
    outer loop
      vertex   3.306839e-01 1.565455e+00 0.000000e+00
      vertex   2.379579e-01 1.582206e+00 1.000000e+00
      vertex   2.113434e-01 1.585980e+00 0.000000e+00
    endloop
  endfacet
  facet normal -1.117243e-01 -9.937389e-01 -7.772567e-04
    outer loop
      vertex   2.113434e-01 1.585980e+00 0.000000e+00
      vertex   2.379579e-01 1.582206e+00 1.000000e+00
      vertex   1.193111e-01 1.595545e+00 1.000000e+00
    endloop
  endfacet
  facet normal -9.448510e-02 -9.955259e-01 8.264009e-04
    outer loop
      vertex   2.113434e-01 1.585980e+00 0.000000e+00
      vertex   1.193111e-01 1.595545e+00 1.000000e+00
      vertex   9.079244e-02 1.597422e+00 0.000000e+00
    endloop
  endfacet
  facet normal -3.731069e-02 -9.993034e-01 -8.112267e-04
    outer loop
      vertex   9.079244e-02 1.597422e+00 0.000000e+00
      vertex   1.193111e-01 1.595545e+00 1.000000e+00
      vertex   -2.572996e-16 1.600000e+00 1.000000e+00
    endloop
  endfacet
  facet normal -1.892412e-02 -9.998206e-01 8.594682e-04
    outer loop
      vertex   9.079244e-02 1.597422e+00 0.000000e+00
      vertex   -2.572996e-16 1.600000e+00 1.000000e+00
      vertex   -3.027860e-02 1.599713e+00 0.000000e+00
    endloop
  endfacet
  facet normal 3.731069e-02 -9.993034e-01 -8.433915e-04
    outer loop
      vertex   -3.027860e-02 1.599713e+00 0.000000e+00
      vertex   -2.572996e-16 1.600000e+00 1.000000e+00
      vertex   -1.193111e-01 1.595545e+00 1.000000e+00
    endloop
  endfacet
  facet normal 5.674525e-02 -9.983883e-01 8.907304e-04
    outer loop
      vertex   -3.027860e-02 1.599713e+00 0.000000e+00
      vertex   -1.193111e-01 1.595545e+00 1.000000e+00
      vertex   -1.511762e-01 1.592842e+00 0.000000e+00
    endloop
  endfacet
  facet normal 1.117243e-01 -9.937389e-01 -8.737510e-04
    outer loop
      vertex   -1.511762e-01 1.592842e+00 0.000000e+00
      vertex   -1.193111e-01 1.595545e+00 1.000000e+00
      vertex   -2.379579e-01 1.582206e+00 1.000000e+00
    endloop
  endfacet
  facet normal 1.320896e-01 -9.912374e-01 9.201873e-04
    outer loop
      vertex   -1.511762e-01 1.592842e+00 0.000000e+00
      vertex   -2.379579e-01 1.582206e+00 1.000000e+00
      vertex   -2.712079e-01 1.576847e+00 0.000000e+00
    endloop
  endfacet
  facet normal 1.855158e-01 -9.826409e-01 -9.023053e-04
    outer loop
      vertex   -2.712079e-01 1.576847e+00 0.000000e+00
      vertex   -2.379579e-01 1.582206e+00 1.000000e+00
      vertex   -3.552796e-01 1.560057e+00 1.000000e+00
    endloop
  endfacet
  facet normal 2.066773e-01 -9.784087e-01 9.478389e-04
    outer loop
      vertex   -2.712079e-01 1.576847e+00 0.000000e+00
      vertex   -3.552796e-01 1.560057e+00 1.000000e+00
      vertex   -3.896861e-01 1.551820e+00 0.000000e+00
    endloop
  endfacet
  facet normal 2.582743e-01 -9.660712e-01 -9.290542e-04
    outer loop
      vertex   -3.896861e-01 1.551820e+00 0.000000e+00
      vertex   -3.552796e-01 1.560057e+00 1.000000e+00
      vertex   -4.706230e-01 1.529220e+00 1.000000e+00
    endloop
  endfacet
  facet normal 2.800812e-01 -9.599758e-01 9.736851e-04
    outer loop
      vertex   -3.896861e-01 1.551820e+00 0.000000e+00
      vertex   -4.706230e-01 1.529220e+00 1.000000e+00
      vertex   -5.059323e-01 1.517904e+00 0.000000e+00
    endloop
  endfacet
  facet normal 3.295946e-01 -9.441221e-01 -9.539978e-04
    outer loop
      vertex   -5.059323e-01 1.517904e+00 0.000000e+00
      vertex   -4.706230e-01 1.529220e+00 1.000000e+00
      vertex   -5.833458e-01 1.489868e+00 1.000000e+00
    endloop
  endfacet
  facet normal 3.518808e-01 -9.360443e-01 9.977260e-04
    outer loop
      vertex   -5.059323e-01 1.517904e+00 0.000000e+00
      vertex   -5.833458e-01 1.489868e+00 1.000000e+00
      vertex   -6.192805e-01 1.475294e+00 0.000000e+00
    endloop
  endfacet
  facet normal 3.990796e-01 -9.169158e-01 -9.771360e-04
    outer loop
      vertex   -6.192805e-01 1.475294e+00 0.000000e+00
      vertex   -5.833458e-01 1.489868e+00 1.000000e+00
      vertex   -6.928203e-01 1.442221e+00 1.000000e+00
    endloop
  endfacet
  facet normal 4.216649e-01 -9.067512e-01 1.019962e-03
    outer loop
      vertex   -6.192805e-01 1.475294e+00 0.000000e+00
      vertex   -6.928203e-01 1.442221e+00 1.000000e+00
      vertex   -7.290815e-01 1.424233e+00 0.000000e+00
    endloop
  endfacet
  facet normal 4.663424e-01 -8.846037e-01 -9.984688e-04
    outer loop
      vertex   -7.290815e-01 1.424233e+00 0.000000e+00
      vertex   -6.928203e-01 1.442221e+00 1.000000e+00
      vertex   -7.984370e-01 1.386542e+00 1.000000e+00
    endloop
  endfacet
  facet normal 4.890337e-01 -8.722643e-01 1.040392e-03
    outer loop
      vertex   -7.290815e-01 1.424233e+00 0.000000e+00
      vertex   -7.984370e-01 1.386542e+00 1.000000e+00
      vertex   -8.347064e-01 1.365015e+00 0.000000e+00
    endloop
  endfacet
  facet normal 5.310084e-01 -8.473659e-01 -1.017996e-03
    outer loop
      vertex   -8.347064e-01 1.365015e+00 0.000000e+00
      vertex   -7.984370e-01 1.386542e+00 1.000000e+00
      vertex   -8.996077e-01 1.323142e+00 1.000000e+00
    endloop
  endfacet
  facet normal 5.536014e-01 -8.327811e-01 1.059016e-03
    outer loop
      vertex   -8.347064e-01 1.365015e+00 0.000000e+00
      vertex   -8.996077e-01 1.323142e+00 1.000000e+00
      vertex   -9.355502e-01 1.297978e+00 0.000000e+00
    endloop
  endfacet
  facet normal 5.927176e-01 -8.054097e-01 -1.035718e-03
    outer loop
      vertex   -9.355502e-01 1.297978e+00 0.000000e+00
      vertex   -8.996077e-01 1.323142e+00 1.000000e+00
      vertex   -9.957690e-01 1.252375e+00 1.000000e+00
    endloop
  endfacet
  facet normal 6.149981e-01 -7.885279e-01 1.075836e-03
    outer loop
      vertex   -9.355502e-01 1.297978e+00 0.000000e+00
      vertex   -9.957690e-01 1.252375e+00 1.000000e+00
      vertex   -1.031035e+00 1.223506e+00 0.000000e+00
    endloop
  endfacet
  facet normal 6.511263e-01 -7.589687e-01 -1.051635e-03
    outer loop
      vertex   -1.031035e+00 1.223506e+00 0.000000e+00
      vertex   -9.957690e-01 1.252375e+00 1.000000e+00
      vertex   -1.086386e+00 1.174635e+00 1.000000e+00
    endloop
  endfacet
  facet normal 6.728721e-01 -7.397580e-01 1.090849e-03
    outer loop
      vertex   -1.031035e+00 1.223506e+00 0.000000e+00
      vertex   -1.086386e+00 1.174635e+00 1.000000e+00
      vertex   -1.120615e+00 1.142026e+00 0.000000e+00
    endloop
  endfacet
  facet normal 7.059093e-01 -7.083014e-01 -1.065746e-03
    outer loop
      vertex   -1.120615e+00 1.142026e+00 0.000000e+00
      vertex   -1.086386e+00 1.174635e+00 1.000000e+00
      vertex   -1.170953e+00 1.090353e+00 1.000000e+00
    endloop
  endfacet
  facet normal 7.268920e-01 -6.867509e-01 1.104058e-03
    outer loop
      vertex   -1.120615e+00 1.142026e+00 0.000000e+00
      vertex   -1.170953e+00 1.090353e+00 1.000000e+00
      vertex   -1.203775e+00 1.054004e+00 0.000000e+00
    endloop
  endfacet
  facet normal 7.567616e-01 -6.536901e-01 -1.078051e-03
    outer loop
      vertex   -1.203775e+00 1.054004e+00 0.000000e+00
      vertex   -1.170953e+00 1.090353e+00 1.000000e+00
      vertex   -1.249000e+00 1.000000e+00 1.000000e+00
    endloop
  endfacet
  facet normal 7.767483e-01 -6.298101e-01 1.115460e-03
    outer loop
      vertex   -1.203775e+00 1.054004e+00 0.000000e+00
      vertex   -1.249000e+00 1.000000e+00 1.000000e+00
      vertex   -1.280041e+00 9.599458e-01 0.000000e+00
    endloop
  endfacet
  facet normal -8.038451e-01 -5.948387e-01 0.000000e+00
    outer loop
      vertex   1.321441e+00 9.021048e-01 2.000000e+00
      vertex   1.249000e+00 1.000000e+00 2.000000e+00
      vertex   1.249000e+00 1.000000e+00 1.000000e+00
    endloop
  endfacet
  facet normal 1.000000e+00 0.000000e+00 0.000000e+00
    outer loop
      vertex   2.500000e+00 2.500000e+00 1.000000e+00
      vertex   2.500000e+00 1.000000e+00 1.000000e+00
      vertex   2.500000e+00 2.500000e+00 0.000000e+00
    endloop
  endfacet
  facet normal 1.000000e+00 0.000000e+00 0.000000e+00
    outer loop
      vertex   2.500000e+00 2.500000e+00 0.000000e+00
      vertex   2.500000e+00 1.000000e+00 1.000000e+00
      vertex   2.500000e+00 -2.500000e+00 0.000000e+00
    endloop
  endfacet
  facet normal 1.000000e+00 0.000000e+00 0.000000e+00
    outer loop
      vertex   2.500000e+00 -2.500000e+00 0.000000e+00
      vertex   2.500000e+00 1.000000e+00 1.000000e+00
      vertex   2.500000e+00 -2.500000e+00 2.000000e+00
    endloop
  endfacet
  facet normal 1.000000e+00 -0.000000e+00 0.000000e+00
    outer loop
      vertex   2.500000e+00 -2.500000e+00 2.000000e+00
      vertex   2.500000e+00 1.000000e+00 1.000000e+00
      vertex   2.500000e+00 1.000000e+00 2.000000e+00
    endloop
  endfacet
  facet normal 0.000000e+00 -1.000000e+00 0.000000e+00
    outer loop
      vertex   -2.500000e+00 -2.500000e+00 2.000000e+00
      vertex   -2.500000e+00 -2.500000e+00 0.000000e+00
      vertex   2.500000e+00 -2.500000e+00 2.000000e+00
    endloop
  endfacet
  facet normal 0.000000e+00 -1.000000e+00 -0.000000e+00
    outer loop
      vertex   2.500000e+00 -2.500000e+00 2.000000e+00
      vertex   -2.500000e+00 -2.500000e+00 0.000000e+00
      vertex   2.500000e+00 -2.500000e+00 0.000000e+00
    endloop
  endfacet
  facet normal -1.000000e+00 -0.000000e+00 -0.000000e+00
    outer loop
      vertex   -2.500000e+00 1.000000e+00 2.000000e+00
      vertex   -2.500000e+00 1.000000e+00 1.000000e+00
      vertex   -2.500000e+00 -2.500000e+00 2.000000e+00
    endloop
  endfacet
  facet normal -1.000000e+00 0.000000e+00 0.000000e+00
    outer loop
      vertex   -2.500000e+00 -2.500000e+00 2.000000e+00
      vertex   -2.500000e+00 1.000000e+00 1.000000e+00
      vertex   -2.500000e+00 -2.500000e+00 0.000000e+00
    endloop
  endfacet
  facet normal -1.000000e+00 0.000000e+00 0.000000e+00
    outer loop
      vertex   -2.500000e+00 -2.500000e+00 0.000000e+00
      vertex   -2.500000e+00 1.000000e+00 1.000000e+00
      vertex   -2.500000e+00 2.500000e+00 0.000000e+00
    endloop
  endfacet
  facet normal -1.000000e+00 0.000000e+00 0.000000e+00
    outer loop
      vertex   -2.500000e+00 2.500000e+00 0.000000e+00
      vertex   -2.500000e+00 1.000000e+00 1.000000e+00
      vertex   -2.500000e+00 2.500000e+00 1.000000e+00
    endloop
  endfacet
  facet normal 0.000000e+00 1.000000e+00 0.000000e+00
    outer loop
      vertex   -2.500000e+00 2.500000e+00 0.000000e+00
      vertex   -2.500000e+00 2.500000e+00 1.000000e+00
      vertex   2.500000e+00 2.500000e+00 0.000000e+00
    endloop
  endfacet
  facet normal 0.000000e+00 1.000000e+00 -0.000000e+00
    outer loop
      vertex   2.500000e+00 2.500000e+00 0.000000e+00
      vertex   -2.500000e+00 2.500000e+00 1.000000e+00
      vertex   2.500000e+00 2.500000e+00 1.000000e+00
    endloop
  endfacet
  facet normal 0.000000e+00 0.000000e+00 -1.000000e+00
    outer loop
      vertex   2.500000e+00 -2.500000e+00 0.000000e+00
      vertex   1.600000e+00 0.000000e+00 0.000000e+00
      vertex   2.500000e+00 2.500000e+00 0.000000e+00
    endloop
  endfacet
  facet normal 0.000000e+00 0.000000e+00 -1.000000e+00
    outer loop
      vertex   2.500000e+00 2.500000e+00 0.000000e+00
      vertex   1.600000e+00 0.000000e+00 0.000000e+00
      vertex   1.595418e+00 1.210060e-01 0.000000e+00
    endloop
  endfacet
  facet normal 0.000000e+00 0.000000e+00 -1.000000e+00
    outer loop
      vertex   2.500000e+00 2.500000e+00 0.000000e+00
      vertex   1.595418e+00 1.210060e-01 0.000000e+00
      vertex   1.581697e+00 2.413189e-01 0.000000e+00
    endloop
  endfacet
  facet normal 0.000000e+00 0.000000e+00 -1.000000e+00
    outer loop
      vertex   -2.500000e+00 -2.500000e+00 0.000000e+00
      vertex   -3.027860e-02 -1.599713e+00 0.000000e+00
      vertex   2.500000e+00 -2.500000e+00 0.000000e+00
    endloop
  endfacet
  facet normal 0.000000e+00 0.000000e+00 -1.000000e+00
    outer loop
      vertex   2.500000e+00 -2.500000e+00 0.000000e+00
      vertex   -3.027860e-02 -1.599713e+00 0.000000e+00
      vertex   9.079244e-02 -1.597422e+00 0.000000e+00
    endloop
  endfacet
  facet normal 0.000000e+00 0.000000e+00 -1.000000e+00
    outer loop
      vertex   2.500000e+00 -2.500000e+00 0.000000e+00
      vertex   9.079244e-02 -1.597422e+00 0.000000e+00
      vertex   2.113434e-01 -1.585980e+00 0.000000e+00
    endloop
  endfacet
  facet normal 0.000000e+00 0.000000e+00 -1.000000e+00
    outer loop
      vertex   -2.500000e+00 2.500000e+00 0.000000e+00
      vertex   -1.598854e+00 -6.054636e-02 0.000000e+00
      vertex   -2.500000e+00 -2.500000e+00 0.000000e+00
    endloop
  endfacet
  facet normal 0.000000e+00 0.000000e+00 -1.000000e+00
    outer loop
      vertex   -2.500000e+00 -2.500000e+00 0.000000e+00
      vertex   -1.598854e+00 -6.054636e-02 0.000000e+00
      vertex   -1.589696e+00 -1.812923e-01 0.000000e+00
    endloop
  endfacet
  facet normal 0.000000e+00 0.000000e+00 -1.000000e+00
    outer loop
      vertex   -2.500000e+00 -2.500000e+00 0.000000e+00
      vertex   -1.589696e+00 -1.812923e-01 0.000000e+00
      vertex   -1.571432e+00 -3.009998e-01 0.000000e+00
    endloop
  endfacet
  facet normal -0.000000e+00 0.000000e+00 -1.000000e+00
    outer loop
      vertex   2.500000e+00 2.500000e+00 0.000000e+00
      vertex   -3.027860e-02 1.599713e+00 0.000000e+00
      vertex   -2.500000e+00 2.500000e+00 0.000000e+00
    endloop
  endfacet
  facet normal 0.000000e+00 0.000000e+00 -1.000000e+00
    outer loop
      vertex   -2.500000e+00 2.500000e+00 0.000000e+00
      vertex   -3.027860e-02 1.599713e+00 0.000000e+00
      vertex   -1.511762e-01 1.592842e+00 0.000000e+00
    endloop
  endfacet
  facet normal 0.000000e+00 0.000000e+00 -1.000000e+00
    outer loop
      vertex   -2.500000e+00 2.500000e+00 0.000000e+00
      vertex   -1.511762e-01 1.592842e+00 0.000000e+00
      vertex   -2.712079e-01 1.576847e+00 0.000000e+00
    endloop
  endfacet
  facet normal 0.000000e+00 0.000000e+00 -1.000000e+00
    outer loop
      vertex   1.581697e+00 2.413189e-01 0.000000e+00
      vertex   1.558916e+00 3.602495e-01 0.000000e+00
      vertex   2.500000e+00 2.500000e+00 0.000000e+00
    endloop
  endfacet
  facet normal 0.000000e+00 0.000000e+00 -1.000000e+00
    outer loop
      vertex   2.500000e+00 2.500000e+00 0.000000e+00
      vertex   1.558916e+00 3.602495e-01 0.000000e+00
      vertex   1.527207e+00 4.771167e-01 0.000000e+00
    endloop
  endfacet
  facet normal 0.000000e+00 0.000000e+00 -1.000000e+00
    outer loop
      vertex   2.500000e+00 2.500000e+00 0.000000e+00
      vertex   1.527207e+00 4.771167e-01 0.000000e+00
      vertex   1.486749e+00 5.912509e-01 0.000000e+00
    endloop
  endfacet
  facet normal 0.000000e+00 0.000000e+00 -1.000000e+00
    outer loop
      vertex   1.486749e+00 5.912509e-01 0.000000e+00
      vertex   1.437775e+00 7.019986e-01 0.000000e+00
      vertex   2.500000e+00 2.500000e+00 0.000000e+00
    endloop
  endfacet
  facet normal 0.000000e+00 0.000000e+00 -1.000000e+00
    outer loop
      vertex   2.500000e+00 2.500000e+00 0.000000e+00
      vertex   1.437775e+00 7.019986e-01 0.000000e+00
      vertex   1.380566e+00 8.087252e-01 0.000000e+00
    endloop
  endfacet
  facet normal 0.000000e+00 0.000000e+00 -1.000000e+00
    outer loop
      vertex   2.500000e+00 2.500000e+00 0.000000e+00
      vertex   1.380566e+00 8.087252e-01 0.000000e+00
      vertex   1.315450e+00 9.108196e-01 0.000000e+00
    endloop
  endfacet
  facet normal 0.000000e+00 0.000000e+00 -1.000000e+00
    outer loop
      vertex   1.315450e+00 9.108196e-01 0.000000e+00
      vertex   1.242798e+00 1.007697e+00 0.000000e+00
      vertex   2.500000e+00 2.500000e+00 0.000000e+00
    endloop
  endfacet
  facet normal 0.000000e+00 0.000000e+00 -1.000000e+00
    outer loop
      vertex   2.500000e+00 2.500000e+00 0.000000e+00
      vertex   1.242798e+00 1.007697e+00 0.000000e+00
      vertex   1.163028e+00 1.098802e+00 0.000000e+00
    endloop
  endfacet
  facet normal 0.000000e+00 0.000000e+00 -1.000000e+00
    outer loop
      vertex   2.500000e+00 2.500000e+00 0.000000e+00
      vertex   1.163028e+00 1.098802e+00 0.000000e+00
      vertex   1.076596e+00 1.183614e+00 0.000000e+00
    endloop
  endfacet
  facet normal 0.000000e+00 0.000000e+00 -1.000000e+00
    outer loop
      vertex   1.076596e+00 1.183614e+00 0.000000e+00
      vertex   9.839975e-01 1.261645e+00 0.000000e+00
      vertex   2.500000e+00 2.500000e+00 0.000000e+00
    endloop
  endfacet
  facet normal 0.000000e+00 0.000000e+00 -1.000000e+00
    outer loop
      vertex   2.500000e+00 2.500000e+00 0.000000e+00
      vertex   9.839975e-01 1.261645e+00 0.000000e+00
      vertex   8.857627e-01 1.332451e+00 0.000000e+00
    endloop
  endfacet
  facet normal 0.000000e+00 0.000000e+00 -1.000000e+00
    outer loop
      vertex   2.500000e+00 2.500000e+00 0.000000e+00
      vertex   8.857627e-01 1.332451e+00 0.000000e+00
      vertex   7.824544e-01 1.395624e+00 0.000000e+00
    endloop
  endfacet
  facet normal 0.000000e+00 0.000000e+00 -1.000000e+00
    outer loop
      vertex   7.824544e-01 1.395624e+00 0.000000e+00
      vertex   6.746642e-01 1.450803e+00 0.000000e+00
      vertex   2.500000e+00 2.500000e+00 0.000000e+00
    endloop
  endfacet
  facet normal 0.000000e+00 0.000000e+00 -1.000000e+00
    outer loop
      vertex   2.500000e+00 2.500000e+00 0.000000e+00
      vertex   6.746642e-01 1.450803e+00 0.000000e+00
      vertex   5.630096e-01 1.497672e+00 0.000000e+00
    endloop
  endfacet
  facet normal 0.000000e+00 0.000000e+00 -1.000000e+00
    outer loop
      vertex   2.500000e+00 2.500000e+00 0.000000e+00
      vertex   5.630096e-01 1.497672e+00 0.000000e+00
      vertex   4.481302e-01 1.535962e+00 0.000000e+00
    endloop
  endfacet
  facet normal 0.000000e+00 0.000000e+00 -1.000000e+00
    outer loop
      vertex   4.481302e-01 1.535962e+00 0.000000e+00
      vertex   3.306839e-01 1.565455e+00 0.000000e+00
      vertex   2.500000e+00 2.500000e+00 0.000000e+00
    endloop
  endfacet
  facet normal 0.000000e+00 0.000000e+00 -1.000000e+00
    outer loop
      vertex   2.500000e+00 2.500000e+00 0.000000e+00
      vertex   3.306839e-01 1.565455e+00 0.000000e+00
      vertex   2.113434e-01 1.585980e+00 0.000000e+00
    endloop
  endfacet
  facet normal 0.000000e+00 0.000000e+00 -1.000000e+00
    outer loop
      vertex   2.500000e+00 2.500000e+00 0.000000e+00
      vertex   2.113434e-01 1.585980e+00 0.000000e+00
      vertex   9.079244e-02 1.597422e+00 0.000000e+00
    endloop
  endfacet
  facet normal 0.000000e+00 0.000000e+00 -1.000000e+00
    outer loop
      vertex   9.079244e-02 1.597422e+00 0.000000e+00
      vertex   -3.027860e-02 1.599713e+00 0.000000e+00
      vertex   2.500000e+00 2.500000e+00 0.000000e+00
    endloop
  endfacet
  facet normal -0.000000e+00 0.000000e+00 -1.000000e+00
    outer loop
      vertex   -2.712079e-01 1.576847e+00 0.000000e+00
      vertex   -3.896861e-01 1.551820e+00 0.000000e+00
      vertex   -2.500000e+00 2.500000e+00 0.000000e+00
    endloop
  endfacet
  facet normal 0.000000e+00 0.000000e+00 -1.000000e+00
    outer loop
      vertex   -2.500000e+00 2.500000e+00 0.000000e+00
      vertex   -3.896861e-01 1.551820e+00 0.000000e+00
      vertex   -5.059323e-01 1.517904e+00 0.000000e+00
    endloop
  endfacet
  facet normal 0.000000e+00 0.000000e+00 -1.000000e+00
    outer loop
      vertex   -2.500000e+00 2.500000e+00 0.000000e+00
      vertex   -5.059323e-01 1.517904e+00 0.000000e+00
      vertex   -6.192805e-01 1.475294e+00 0.000000e+00
    endloop
  endfacet
  facet normal -0.000000e+00 0.000000e+00 -1.000000e+00
    outer loop
      vertex   -6.192805e-01 1.475294e+00 0.000000e+00
      vertex   -7.290815e-01 1.424233e+00 0.000000e+00
      vertex   -2.500000e+00 2.500000e+00 0.000000e+00
    endloop
  endfacet
  facet normal 0.000000e+00 0.000000e+00 -1.000000e+00
    outer loop
      vertex   -2.500000e+00 2.500000e+00 0.000000e+00
      vertex   -7.290815e-01 1.424233e+00 0.000000e+00
      vertex   -8.347064e-01 1.365015e+00 0.000000e+00
    endloop
  endfacet
  facet normal 0.000000e+00 0.000000e+00 -1.000000e+00
    outer loop
      vertex   -2.500000e+00 2.500000e+00 0.000000e+00
      vertex   -8.347064e-01 1.365015e+00 0.000000e+00
      vertex   -9.355502e-01 1.297978e+00 0.000000e+00
    endloop
  endfacet
  facet normal -0.000000e+00 0.000000e+00 -1.000000e+00
    outer loop
      vertex   -9.355502e-01 1.297978e+00 0.000000e+00
      vertex   -1.031035e+00 1.223506e+00 0.000000e+00
      vertex   -2.500000e+00 2.500000e+00 0.000000e+00
    endloop
  endfacet
  facet normal 0.000000e+00 0.000000e+00 -1.000000e+00
    outer loop
      vertex   -2.500000e+00 2.500000e+00 0.000000e+00
      vertex   -1.031035e+00 1.223506e+00 0.000000e+00
      vertex   -1.120615e+00 1.142026e+00 0.000000e+00
    endloop
  endfacet
  facet normal 0.000000e+00 0.000000e+00 -1.000000e+00
    outer loop
      vertex   -2.500000e+00 2.500000e+00 0.000000e+00
      vertex   -1.120615e+00 1.142026e+00 0.000000e+00
      vertex   -1.203775e+00 1.054004e+00 0.000000e+00
    endloop
  endfacet
  facet normal -0.000000e+00 0.000000e+00 -1.000000e+00
    outer loop
      vertex   -1.203775e+00 1.054004e+00 0.000000e+00
      vertex   -1.280041e+00 9.599458e-01 0.000000e+00
      vertex   -2.500000e+00 2.500000e+00 0.000000e+00
    endloop
  endfacet
  facet normal 0.000000e+00 0.000000e+00 -1.000000e+00
    outer loop
      vertex   -2.500000e+00 2.500000e+00 0.000000e+00
      vertex   -1.280041e+00 9.599458e-01 0.000000e+00
      vertex   -1.348974e+00 8.603887e-01 0.000000e+00
    endloop
  endfacet
  facet normal 0.000000e+00 0.000000e+00 -1.000000e+00
    outer loop
      vertex   -2.500000e+00 2.500000e+00 0.000000e+00
      vertex   -1.348974e+00 8.603887e-01 0.000000e+00
      vertex   -1.410181e+00 7.559033e-01 0.000000e+00
    endloop
  endfacet
  facet normal -0.000000e+00 0.000000e+00 -1.000000e+00
    outer loop
      vertex   -1.410181e+00 7.559033e-01 0.000000e+00
      vertex   -1.463310e+00 6.470882e-01 0.000000e+00
      vertex   -2.500000e+00 2.500000e+00 0.000000e+00
    endloop
  endfacet
  facet normal 0.000000e+00 0.000000e+00 -1.000000e+00
    outer loop
      vertex   -2.500000e+00 2.500000e+00 0.000000e+00
      vertex   -1.463310e+00 6.470882e-01 0.000000e+00
      vertex   -1.508058e+00 5.345667e-01 0.000000e+00
    endloop
  endfacet
  facet normal 0.000000e+00 0.000000e+00 -1.000000e+00
    outer loop
      vertex   -2.500000e+00 2.500000e+00 0.000000e+00
      vertex   -1.508058e+00 5.345667e-01 0.000000e+00
      vertex   -1.544167e+00 4.189832e-01 0.000000e+00
    endloop
  endfacet
  facet normal -0.000000e+00 0.000000e+00 -1.000000e+00
    outer loop
      vertex   -1.544167e+00 4.189832e-01 0.000000e+00
      vertex   -1.571432e+00 3.009998e-01 0.000000e+00
      vertex   -2.500000e+00 2.500000e+00 0.000000e+00
    endloop
  endfacet
  facet normal 0.000000e+00 0.000000e+00 -1.000000e+00
    outer loop
      vertex   -2.500000e+00 2.500000e+00 0.000000e+00
      vertex   -1.571432e+00 3.009998e-01 0.000000e+00
      vertex   -1.589696e+00 1.812923e-01 0.000000e+00
    endloop
  endfacet
  facet normal 0.000000e+00 0.000000e+00 -1.000000e+00
    outer loop
      vertex   -2.500000e+00 2.500000e+00 0.000000e+00
      vertex   -1.589696e+00 1.812923e-01 0.000000e+00
      vertex   -1.598854e+00 6.054636e-02 0.000000e+00
    endloop
  endfacet
  facet normal -0.000000e+00 -0.000000e+00 -1.000000e+00
    outer loop
      vertex   -1.598854e+00 6.054636e-02 0.000000e+00
      vertex   -1.598854e+00 -6.054636e-02 0.000000e+00
      vertex   -2.500000e+00 2.500000e+00 0.000000e+00
    endloop
  endfacet
  facet normal 0.000000e+00 -0.000000e+00 -1.000000e+00
    outer loop
      vertex   -1.571432e+00 -3.009998e-01 0.000000e+00
      vertex   -1.544167e+00 -4.189832e-01 0.000000e+00
      vertex   -2.500000e+00 -2.500000e+00 0.000000e+00
    endloop
  endfacet
  facet normal 0.000000e+00 0.000000e+00 -1.000000e+00
    outer loop
      vertex   -2.500000e+00 -2.500000e+00 0.000000e+00
      vertex   -1.544167e+00 -4.189832e-01 0.000000e+00
      vertex   -1.508058e+00 -5.345667e-01 0.000000e+00
    endloop
  endfacet
  facet normal 0.000000e+00 0.000000e+00 -1.000000e+00
    outer loop
      vertex   -2.500000e+00 -2.500000e+00 0.000000e+00
      vertex   -1.508058e+00 -5.345667e-01 0.000000e+00
      vertex   -1.463310e+00 -6.470882e-01 0.000000e+00
    endloop
  endfacet
  facet normal 0.000000e+00 -0.000000e+00 -1.000000e+00
    outer loop
      vertex   -1.463310e+00 -6.470882e-01 0.000000e+00
      vertex   -1.410181e+00 -7.559033e-01 0.000000e+00
      vertex   -2.500000e+00 -2.500000e+00 0.000000e+00
    endloop
  endfacet
  facet normal 0.000000e+00 0.000000e+00 -1.000000e+00
    outer loop
      vertex   -2.500000e+00 -2.500000e+00 0.000000e+00
      vertex   -1.410181e+00 -7.559033e-01 0.000000e+00
      vertex   -1.348974e+00 -8.603887e-01 0.000000e+00
    endloop
  endfacet
  facet normal 0.000000e+00 0.000000e+00 -1.000000e+00
    outer loop
      vertex   -2.500000e+00 -2.500000e+00 0.000000e+00
      vertex   -1.348974e+00 -8.603887e-01 0.000000e+00
      vertex   -1.280041e+00 -9.599458e-01 0.000000e+00
    endloop
  endfacet
  facet normal 0.000000e+00 -0.000000e+00 -1.000000e+00
    outer loop
      vertex   -1.280041e+00 -9.599458e-01 0.000000e+00
      vertex   -1.203775e+00 -1.054004e+00 0.000000e+00
      vertex   -2.500000e+00 -2.500000e+00 0.000000e+00
    endloop
  endfacet
  facet normal 0.000000e+00 0.000000e+00 -1.000000e+00
    outer loop
      vertex   -2.500000e+00 -2.500000e+00 0.000000e+00
      vertex   -1.203775e+00 -1.054004e+00 0.000000e+00
      vertex   -1.120615e+00 -1.142026e+00 0.000000e+00
    endloop
  endfacet
  facet normal 0.000000e+00 0.000000e+00 -1.000000e+00
    outer loop
      vertex   -2.500000e+00 -2.500000e+00 0.000000e+00
      vertex   -1.120615e+00 -1.142026e+00 0.000000e+00
      vertex   -1.031035e+00 -1.223506e+00 0.000000e+00
    endloop
  endfacet
  facet normal 0.000000e+00 -0.000000e+00 -1.000000e+00
    outer loop
      vertex   -1.031035e+00 -1.223506e+00 0.000000e+00
      vertex   -9.355502e-01 -1.297978e+00 0.000000e+00
      vertex   -2.500000e+00 -2.500000e+00 0.000000e+00
    endloop
  endfacet
  facet normal 0.000000e+00 0.000000e+00 -1.000000e+00
    outer loop
      vertex   -2.500000e+00 -2.500000e+00 0.000000e+00
      vertex   -9.355502e-01 -1.297978e+00 0.000000e+00
      vertex   -8.347064e-01 -1.365015e+00 0.000000e+00
    endloop
  endfacet
  facet normal 0.000000e+00 0.000000e+00 -1.000000e+00
    outer loop
      vertex   -2.500000e+00 -2.500000e+00 0.000000e+00
      vertex   -8.347064e-01 -1.365015e+00 0.000000e+00
      vertex   -7.290815e-01 -1.424233e+00 0.000000e+00
    endloop
  endfacet
  facet normal 0.000000e+00 -0.000000e+00 -1.000000e+00
    outer loop
      vertex   -7.290815e-01 -1.424233e+00 0.000000e+00
      vertex   -6.192805e-01 -1.475294e+00 0.000000e+00
      vertex   -2.500000e+00 -2.500000e+00 0.000000e+00
    endloop
  endfacet
  facet normal 0.000000e+00 0.000000e+00 -1.000000e+00
    outer loop
      vertex   -2.500000e+00 -2.500000e+00 0.000000e+00
      vertex   -6.192805e-01 -1.475294e+00 0.000000e+00
      vertex   -5.059323e-01 -1.517904e+00 0.000000e+00
    endloop
  endfacet
  facet normal 0.000000e+00 0.000000e+00 -1.000000e+00
    outer loop
      vertex   -2.500000e+00 -2.500000e+00 0.000000e+00
      vertex   -5.059323e-01 -1.517904e+00 0.000000e+00
      vertex   -3.896861e-01 -1.551820e+00 0.000000e+00
    endloop
  endfacet
  facet normal 0.000000e+00 -0.000000e+00 -1.000000e+00
    outer loop
      vertex   -3.896861e-01 -1.551820e+00 0.000000e+00
      vertex   -2.712079e-01 -1.576847e+00 0.000000e+00
      vertex   -2.500000e+00 -2.500000e+00 0.000000e+00
    endloop
  endfacet
  facet normal 0.000000e+00 0.000000e+00 -1.000000e+00
    outer loop
      vertex   -2.500000e+00 -2.500000e+00 0.000000e+00
      vertex   -2.712079e-01 -1.576847e+00 0.000000e+00
      vertex   -1.511762e-01 -1.592842e+00 0.000000e+00
    endloop
  endfacet
  facet normal 0.000000e+00 0.000000e+00 -1.000000e+00
    outer loop
      vertex   -2.500000e+00 -2.500000e+00 0.000000e+00
      vertex   -1.511762e-01 -1.592842e+00 0.000000e+00
      vertex   -3.027860e-02 -1.599713e+00 0.000000e+00
    endloop
  endfacet
  facet normal 0.000000e+00 0.000000e+00 -1.000000e+00
    outer loop
      vertex   2.113434e-01 -1.585980e+00 0.000000e+00
      vertex   3.306839e-01 -1.565455e+00 0.000000e+00
      vertex   2.500000e+00 -2.500000e+00 0.000000e+00
    endloop
  endfacet
  facet normal 0.000000e+00 0.000000e+00 -1.000000e+00
    outer loop
      vertex   2.500000e+00 -2.500000e+00 0.000000e+00
      vertex   3.306839e-01 -1.565455e+00 0.000000e+00
      vertex   4.481302e-01 -1.535962e+00 0.000000e+00
    endloop
  endfacet
  facet normal 0.000000e+00 0.000000e+00 -1.000000e+00
    outer loop
      vertex   2.500000e+00 -2.500000e+00 0.000000e+00
      vertex   4.481302e-01 -1.535962e+00 0.000000e+00
      vertex   5.630096e-01 -1.497672e+00 0.000000e+00
    endloop
  endfacet
  facet normal 0.000000e+00 0.000000e+00 -1.000000e+00
    outer loop
      vertex   5.630096e-01 -1.497672e+00 0.000000e+00
      vertex   6.746642e-01 -1.450803e+00 0.000000e+00
      vertex   2.500000e+00 -2.500000e+00 0.000000e+00
    endloop
  endfacet
  facet normal 0.000000e+00 0.000000e+00 -1.000000e+00
    outer loop
      vertex   2.500000e+00 -2.500000e+00 0.000000e+00
      vertex   6.746642e-01 -1.450803e+00 0.000000e+00
      vertex   7.824544e-01 -1.395624e+00 0.000000e+00
    endloop
  endfacet
  facet normal 0.000000e+00 0.000000e+00 -1.000000e+00
    outer loop
      vertex   2.500000e+00 -2.500000e+00 0.000000e+00
      vertex   7.824544e-01 -1.395624e+00 0.000000e+00
      vertex   8.857627e-01 -1.332451e+00 0.000000e+00
    endloop
  endfacet
  facet normal 0.000000e+00 0.000000e+00 -1.000000e+00
    outer loop
      vertex   8.857627e-01 -1.332451e+00 0.000000e+00
      vertex   9.839975e-01 -1.261645e+00 0.000000e+00
      vertex   2.500000e+00 -2.500000e+00 0.000000e+00
    endloop
  endfacet
  facet normal 0.000000e+00 0.000000e+00 -1.000000e+00
    outer loop
      vertex   2.500000e+00 -2.500000e+00 0.000000e+00
      vertex   9.839975e-01 -1.261645e+00 0.000000e+00
      vertex   1.076596e+00 -1.183614e+00 0.000000e+00
    endloop
  endfacet
  facet normal 0.000000e+00 0.000000e+00 -1.000000e+00
    outer loop
      vertex   2.500000e+00 -2.500000e+00 0.000000e+00
      vertex   1.076596e+00 -1.183614e+00 0.000000e+00
      vertex   1.163028e+00 -1.098802e+00 0.000000e+00
    endloop
  endfacet
  facet normal 0.000000e+00 0.000000e+00 -1.000000e+00
    outer loop
      vertex   1.163028e+00 -1.098802e+00 0.000000e+00
      vertex   1.242798e+00 -1.007697e+00 0.000000e+00
      vertex   2.500000e+00 -2.500000e+00 0.000000e+00
    endloop
  endfacet
  facet normal 0.000000e+00 0.000000e+00 -1.000000e+00
    outer loop
      vertex   2.500000e+00 -2.500000e+00 0.000000e+00
      vertex   1.242798e+00 -1.007697e+00 0.000000e+00
      vertex   1.315450e+00 -9.108196e-01 0.000000e+00
    endloop
  endfacet
  facet normal 0.000000e+00 0.000000e+00 -1.000000e+00
    outer loop
      vertex   2.500000e+00 -2.500000e+00 0.000000e+00
      vertex   1.315450e+00 -9.108196e-01 0.000000e+00
      vertex   1.380566e+00 -8.087252e-01 0.000000e+00
    endloop
  endfacet
  facet normal 0.000000e+00 0.000000e+00 -1.000000e+00
    outer loop
      vertex   1.380566e+00 -8.087252e-01 0.000000e+00
      vertex   1.437775e+00 -7.019986e-01 0.000000e+00
      vertex   2.500000e+00 -2.500000e+00 0.000000e+00
    endloop
  endfacet
  facet normal 0.000000e+00 0.000000e+00 -1.000000e+00
    outer loop
      vertex   2.500000e+00 -2.500000e+00 0.000000e+00
      vertex   1.437775e+00 -7.019986e-01 0.000000e+00
      vertex   1.486749e+00 -5.912509e-01 0.000000e+00
    endloop
  endfacet
  facet normal 0.000000e+00 0.000000e+00 -1.000000e+00
    outer loop
      vertex   2.500000e+00 -2.500000e+00 0.000000e+00
      vertex   1.486749e+00 -5.912509e-01 0.000000e+00
      vertex   1.527207e+00 -4.771167e-01 0.000000e+00
    endloop
  endfacet
  facet normal 0.000000e+00 0.000000e+00 -1.000000e+00
    outer loop
      vertex   1.527207e+00 -4.771167e-01 0.000000e+00
      vertex   1.558916e+00 -3.602495e-01 0.000000e+00
      vertex   2.500000e+00 -2.500000e+00 0.000000e+00
    endloop
  endfacet
  facet normal 0.000000e+00 0.000000e+00 -1.000000e+00
    outer loop
      vertex   2.500000e+00 -2.500000e+00 0.000000e+00
      vertex   1.558916e+00 -3.602495e-01 0.000000e+00
      vertex   1.581697e+00 -2.413189e-01 0.000000e+00
    endloop
  endfacet
  facet normal 0.000000e+00 0.000000e+00 -1.000000e+00
    outer loop
      vertex   2.500000e+00 -2.500000e+00 0.000000e+00
      vertex   1.581697e+00 -2.413189e-01 0.000000e+00
      vertex   1.595418e+00 -1.210060e-01 0.000000e+00
    endloop
  endfacet
  facet normal 0.000000e+00 0.000000e+00 -1.000000e+00
    outer loop
      vertex   1.595418e+00 -1.210060e-01 0.000000e+00
      vertex   1.600000e+00 0.000000e+00 0.000000e+00
      vertex   2.500000e+00 -2.500000e+00 0.000000e+00
    endloop
  endfacet
  facet normal 0.000000e+00 0.000000e+00 1.000000e+00
    outer loop
      vertex   -1.249000e+00 1.000000e+00 2.000000e+00
      vertex   -2.500000e+00 1.000000e+00 2.000000e+00
      vertex   -1.321441e+00 9.021048e-01 2.000000e+00
    endloop
  endfacet
  facet normal 0.000000e+00 0.000000e+00 1.000000e+00
    outer loop
      vertex   -1.321441e+00 9.021048e-01 2.000000e+00
      vertex   -2.500000e+00 1.000000e+00 2.000000e+00
      vertex   -1.386227e+00 7.989834e-01 2.000000e+00
    endloop
  endfacet
  facet normal 0.000000e+00 0.000000e+00 1.000000e+00
    outer loop
      vertex   -1.386227e+00 7.989834e-01 2.000000e+00
      vertex   -2.500000e+00 1.000000e+00 2.000000e+00
      vertex   -1.442982e+00 6.912330e-01 2.000000e+00
    endloop
  endfacet
  facet normal 0.000000e+00 0.000000e+00 1.000000e+00
    outer loop
      vertex   -1.442982e+00 6.912330e-01 2.000000e+00
      vertex   -2.500000e+00 1.000000e+00 2.000000e+00
      vertex   -1.491377e+00 5.794780e-01 2.000000e+00
    endloop
  endfacet
  facet normal 0.000000e+00 0.000000e+00 1.000000e+00
    outer loop
      vertex   -1.491377e+00 5.794780e-01 2.000000e+00
      vertex   -2.500000e+00 1.000000e+00 2.000000e+00
      vertex   -1.531132e+00 4.643659e-01 2.000000e+00
    endloop
  endfacet
  facet normal 0.000000e+00 0.000000e+00 1.000000e+00
    outer loop
      vertex   -1.531132e+00 4.643659e-01 2.000000e+00
      vertex   -2.500000e+00 1.000000e+00 2.000000e+00
      vertex   -1.562016e+00 3.465634e-01 2.000000e+00
    endloop
  endfacet
  facet normal 0.000000e+00 0.000000e+00 1.000000e+00
    outer loop
      vertex   -1.562016e+00 3.465634e-01 2.000000e+00
      vertex   -2.500000e+00 1.000000e+00 2.000000e+00
      vertex   -1.583851e+00 2.267532e-01 2.000000e+00
    endloop
  endfacet
  facet normal 0.000000e+00 0.000000e+00 1.000000e+00
    outer loop
      vertex   -1.583851e+00 2.267532e-01 2.000000e+00
      vertex   -2.500000e+00 1.000000e+00 2.000000e+00
      vertex   -1.596509e+00 1.056293e-01 2.000000e+00
    endloop
  endfacet
  facet normal 0.000000e+00 0.000000e+00 1.000000e+00
    outer loop
      vertex   -1.596509e+00 1.056293e-01 2.000000e+00
      vertex   -2.500000e+00 1.000000e+00 2.000000e+00
      vertex   -1.599919e+00 -1.610660e-02 2.000000e+00
    endloop
  endfacet
  facet normal 0.000000e+00 0.000000e+00 1.000000e+00
    outer loop
      vertex   -1.599919e+00 -1.610660e-02 2.000000e+00
      vertex   -2.500000e+00 1.000000e+00 2.000000e+00
      vertex   -1.594059e+00 -1.377492e-01 2.000000e+00
    endloop
  endfacet
  facet normal 0.000000e+00 0.000000e+00 1.000000e+00
    outer loop
      vertex   -1.594059e+00 -1.377492e-01 2.000000e+00
      vertex   -2.500000e+00 1.000000e+00 2.000000e+00
      vertex   -1.578965e+00 -2.585937e-01 2.000000e+00
    endloop
  endfacet
  facet normal 0.000000e+00 0.000000e+00 1.000000e+00
    outer loop
      vertex   -1.578965e+00 -2.585937e-01 2.000000e+00
      vertex   -2.500000e+00 1.000000e+00 2.000000e+00
      vertex   -1.554722e+00 -3.779401e-01 2.000000e+00
    endloop
  endfacet
  facet normal 0.000000e+00 0.000000e+00 1.000000e+00
    outer loop
      vertex   -1.554722e+00 -3.779401e-01 2.000000e+00
      vertex   -2.500000e+00 1.000000e+00 2.000000e+00
      vertex   -2.500000e+00 -2.500000e+00 2.000000e+00
    endloop
  endfacet
  facet normal 0.000000e+00 0.000000e+00 1.000000e+00
    outer loop
      vertex   -1.554722e+00 -3.779401e-01 2.000000e+00
      vertex   -2.500000e+00 -2.500000e+00 2.000000e+00
      vertex   -1.521473e+00 -4.950969e-01 2.000000e+00
    endloop
  endfacet
  facet normal 0.000000e+00 0.000000e+00 1.000000e+00
    outer loop
      vertex   -1.521473e+00 -4.950969e-01 2.000000e+00
      vertex   -2.500000e+00 -2.500000e+00 2.000000e+00
      vertex   -1.479408e+00 -6.093853e-01 2.000000e+00
    endloop
  endfacet
  facet normal 0.000000e+00 0.000000e+00 1.000000e+00
    outer loop
      vertex   -1.479408e+00 -6.093853e-01 2.000000e+00
      vertex   -2.500000e+00 -2.500000e+00 2.000000e+00
      vertex   -1.428773e+00 -7.201434e-01 2.000000e+00
    endloop
  endfacet
  facet normal 0.000000e+00 0.000000e+00 1.000000e+00
    outer loop
      vertex   -1.428773e+00 -7.201434e-01 2.000000e+00
      vertex   -2.500000e+00 -2.500000e+00 2.000000e+00
      vertex   -1.369861e+00 -8.267293e-01 2.000000e+00
    endloop
  endfacet
  facet normal 0.000000e+00 0.000000e+00 1.000000e+00
    outer loop
      vertex   -1.369861e+00 -8.267293e-01 2.000000e+00
      vertex   -2.500000e+00 -2.500000e+00 2.000000e+00
      vertex   -1.303012e+00 -9.285256e-01 2.000000e+00
    endloop
  endfacet
  facet normal 0.000000e+00 0.000000e+00 1.000000e+00
    outer loop
      vertex   -1.303012e+00 -9.285256e-01 2.000000e+00
      vertex   -2.500000e+00 -2.500000e+00 2.000000e+00
      vertex   -1.228614e+00 -1.024942e+00 2.000000e+00
    endloop
  endfacet
  facet normal 0.000000e+00 0.000000e+00 1.000000e+00
    outer loop
      vertex   -1.228614e+00 -1.024942e+00 2.000000e+00
      vertex   -2.500000e+00 -2.500000e+00 2.000000e+00
      vertex   -1.147099e+00 -1.115421e+00 2.000000e+00
    endloop
  endfacet
  facet normal 0.000000e+00 0.000000e+00 1.000000e+00
    outer loop
      vertex   -1.147099e+00 -1.115421e+00 2.000000e+00
      vertex   -2.500000e+00 -2.500000e+00 2.000000e+00
      vertex   -1.058937e+00 -1.199438e+00 2.000000e+00
    endloop
  endfacet
  facet normal 0.000000e+00 0.000000e+00 1.000000e+00
    outer loop
      vertex   -1.058937e+00 -1.199438e+00 2.000000e+00
      vertex   -2.500000e+00 -2.500000e+00 2.000000e+00
      vertex   -9.646409e-01 -1.276506e+00 2.000000e+00
    endloop
  endfacet
  facet normal 0.000000e+00 0.000000e+00 1.000000e+00
    outer loop
      vertex   -9.646409e-01 -1.276506e+00 2.000000e+00
      vertex   -2.500000e+00 -2.500000e+00 2.000000e+00
      vertex   -8.647560e-01 -1.346179e+00 2.000000e+00
    endloop
  endfacet
  facet normal 0.000000e+00 0.000000e+00 1.000000e+00
    outer loop
      vertex   -8.647560e-01 -1.346179e+00 2.000000e+00
      vertex   -2.500000e+00 -2.500000e+00 2.000000e+00
      vertex   -7.598612e-01 -1.408052e+00 2.000000e+00
    endloop
  endfacet
  facet normal 0.000000e+00 0.000000e+00 1.000000e+00
    outer loop
      vertex   -7.598612e-01 -1.408052e+00 2.000000e+00
      vertex   -2.500000e+00 -2.500000e+00 2.000000e+00
      vertex   -6.505642e-01 -1.461768e+00 2.000000e+00
    endloop
  endfacet
  facet normal 0.000000e+00 0.000000e+00 1.000000e+00
    outer loop
      vertex   -6.505642e-01 -1.461768e+00 2.000000e+00
      vertex   -2.500000e+00 -2.500000e+00 2.000000e+00
      vertex   -5.374981e-01 -1.507016e+00 2.000000e+00
    endloop
  endfacet
  facet normal 0.000000e+00 0.000000e+00 1.000000e+00
    outer loop
      vertex   -5.374981e-01 -1.507016e+00 2.000000e+00
      vertex   -2.500000e+00 -2.500000e+00 2.000000e+00
      vertex   -4.213181e-01 -1.543532e+00 2.000000e+00
    endloop
  endfacet
  facet normal 0.000000e+00 0.000000e+00 1.000000e+00
    outer loop
      vertex   -4.213181e-01 -1.543532e+00 2.000000e+00
      vertex   -2.500000e+00 -2.500000e+00 2.000000e+00
      vertex   -3.026972e-01 -1.571106e+00 2.000000e+00
    endloop
  endfacet
  facet normal 0.000000e+00 0.000000e+00 1.000000e+00
    outer loop
      vertex   -3.026972e-01 -1.571106e+00 2.000000e+00
      vertex   -2.500000e+00 -2.500000e+00 2.000000e+00
      vertex   -1.823227e-01 -1.589578e+00 2.000000e+00
    endloop
  endfacet
  facet normal 0.000000e+00 0.000000e+00 1.000000e+00
    outer loop
      vertex   -1.823227e-01 -1.589578e+00 2.000000e+00
      vertex   -2.500000e+00 -2.500000e+00 2.000000e+00
      vertex   -6.089181e-02 -1.598841e+00 2.000000e+00
    endloop
  endfacet
  facet normal 0.000000e+00 0.000000e+00 1.000000e+00
    outer loop
      vertex   -6.089181e-02 -1.598841e+00 2.000000e+00
      vertex   -2.500000e+00 -2.500000e+00 2.000000e+00
      vertex   2.500000e+00 -2.500000e+00 2.000000e+00
    endloop
  endfacet
  facet normal -0.000000e+00 0.000000e+00 1.000000e+00
    outer loop
      vertex   -6.089181e-02 -1.598841e+00 2.000000e+00
      vertex   2.500000e+00 -2.500000e+00 2.000000e+00
      vertex   6.089181e-02 -1.598841e+00 2.000000e+00
    endloop
  endfacet
  facet normal -0.000000e+00 0.000000e+00 1.000000e+00
    outer loop
      vertex   6.089181e-02 -1.598841e+00 2.000000e+00
      vertex   2.500000e+00 -2.500000e+00 2.000000e+00
      vertex   1.823227e-01 -1.589578e+00 2.000000e+00
    endloop
  endfacet
  facet normal -0.000000e+00 0.000000e+00 1.000000e+00
    outer loop
      vertex   1.823227e-01 -1.589578e+00 2.000000e+00
      vertex   2.500000e+00 -2.500000e+00 2.000000e+00
      vertex   3.026972e-01 -1.571106e+00 2.000000e+00
    endloop
  endfacet
  facet normal -0.000000e+00 0.000000e+00 1.000000e+00
    outer loop
      vertex   3.026972e-01 -1.571106e+00 2.000000e+00
      vertex   2.500000e+00 -2.500000e+00 2.000000e+00
      vertex   4.213181e-01 -1.543532e+00 2.000000e+00
    endloop
  endfacet
  facet normal -0.000000e+00 0.000000e+00 1.000000e+00
    outer loop
      vertex   4.213181e-01 -1.543532e+00 2.000000e+00
      vertex   2.500000e+00 -2.500000e+00 2.000000e+00
      vertex   5.374981e-01 -1.507016e+00 2.000000e+00
    endloop
  endfacet
  facet normal -0.000000e+00 0.000000e+00 1.000000e+00
    outer loop
      vertex   5.374981e-01 -1.507016e+00 2.000000e+00
      vertex   2.500000e+00 -2.500000e+00 2.000000e+00
      vertex   6.505642e-01 -1.461768e+00 2.000000e+00
    endloop
  endfacet
  facet normal -0.000000e+00 0.000000e+00 1.000000e+00
    outer loop
      vertex   6.505642e-01 -1.461768e+00 2.000000e+00
      vertex   2.500000e+00 -2.500000e+00 2.000000e+00
      vertex   7.598612e-01 -1.408052e+00 2.000000e+00
    endloop
  endfacet
  facet normal -0.000000e+00 0.000000e+00 1.000000e+00
    outer loop
      vertex   7.598612e-01 -1.408052e+00 2.000000e+00
      vertex   2.500000e+00 -2.500000e+00 2.000000e+00
      vertex   8.647560e-01 -1.346179e+00 2.000000e+00
    endloop
  endfacet
  facet normal -0.000000e+00 0.000000e+00 1.000000e+00
    outer loop
      vertex   8.647560e-01 -1.346179e+00 2.000000e+00
      vertex   2.500000e+00 -2.500000e+00 2.000000e+00
      vertex   9.646409e-01 -1.276506e+00 2.000000e+00
    endloop
  endfacet
  facet normal -0.000000e+00 0.000000e+00 1.000000e+00
    outer loop
      vertex   9.646409e-01 -1.276506e+00 2.000000e+00
      vertex   2.500000e+00 -2.500000e+00 2.000000e+00
      vertex   1.058937e+00 -1.199438e+00 2.000000e+00
    endloop
  endfacet
  facet normal -0.000000e+00 0.000000e+00 1.000000e+00
    outer loop
      vertex   1.058937e+00 -1.199438e+00 2.000000e+00
      vertex   2.500000e+00 -2.500000e+00 2.000000e+00
      vertex   1.147099e+00 -1.115421e+00 2.000000e+00
    endloop
  endfacet
  facet normal -0.000000e+00 0.000000e+00 1.000000e+00
    outer loop
      vertex   1.147099e+00 -1.115421e+00 2.000000e+00
      vertex   2.500000e+00 -2.500000e+00 2.000000e+00
      vertex   1.228614e+00 -1.024942e+00 2.000000e+00
    endloop
  endfacet
  facet normal -0.000000e+00 0.000000e+00 1.000000e+00
    outer loop
      vertex   1.228614e+00 -1.024942e+00 2.000000e+00
      vertex   2.500000e+00 -2.500000e+00 2.000000e+00
      vertex   1.303012e+00 -9.285256e-01 2.000000e+00
    endloop
  endfacet
  facet normal -0.000000e+00 0.000000e+00 1.000000e+00
    outer loop
      vertex   1.303012e+00 -9.285256e-01 2.000000e+00
      vertex   2.500000e+00 -2.500000e+00 2.000000e+00
      vertex   1.369861e+00 -8.267293e-01 2.000000e+00
    endloop
  endfacet
  facet normal -0.000000e+00 0.000000e+00 1.000000e+00
    outer loop
      vertex   1.369861e+00 -8.267293e-01 2.000000e+00
      vertex   2.500000e+00 -2.500000e+00 2.000000e+00
      vertex   1.428773e+00 -7.201434e-01 2.000000e+00
    endloop
  endfacet
  facet normal -0.000000e+00 0.000000e+00 1.000000e+00
    outer loop
      vertex   1.428773e+00 -7.201434e-01 2.000000e+00
      vertex   2.500000e+00 -2.500000e+00 2.000000e+00
      vertex   1.479408e+00 -6.093853e-01 2.000000e+00
    endloop
  endfacet
  facet normal -0.000000e+00 0.000000e+00 1.000000e+00
    outer loop
      vertex   1.479408e+00 -6.093853e-01 2.000000e+00
      vertex   2.500000e+00 -2.500000e+00 2.000000e+00
      vertex   1.521473e+00 -4.950969e-01 2.000000e+00
    endloop
  endfacet
  facet normal -0.000000e+00 0.000000e+00 1.000000e+00
    outer loop
      vertex   1.521473e+00 -4.950969e-01 2.000000e+00
      vertex   2.500000e+00 -2.500000e+00 2.000000e+00
      vertex   1.554722e+00 -3.779401e-01 2.000000e+00
    endloop
  endfacet
  facet normal -0.000000e+00 0.000000e+00 1.000000e+00
    outer loop
      vertex   1.554722e+00 -3.779401e-01 2.000000e+00
      vertex   2.500000e+00 -2.500000e+00 2.000000e+00
      vertex   2.500000e+00 1.000000e+00 2.000000e+00
    endloop
  endfacet
  facet normal 0.000000e+00 0.000000e+00 1.000000e+00
    outer loop
      vertex   1.554722e+00 -3.779401e-01 2.000000e+00
      vertex   2.500000e+00 1.000000e+00 2.000000e+00
      vertex   1.578965e+00 -2.585937e-01 2.000000e+00
    endloop
  endfacet
  facet normal 0.000000e+00 0.000000e+00 1.000000e+00
    outer loop
      vertex   1.578965e+00 -2.585937e-01 2.000000e+00
      vertex   2.500000e+00 1.000000e+00 2.000000e+00
      vertex   1.594059e+00 -1.377492e-01 2.000000e+00
    endloop
  endfacet
  facet normal 0.000000e+00 0.000000e+00 1.000000e+00
    outer loop
      vertex   1.594059e+00 -1.377492e-01 2.000000e+00
      vertex   2.500000e+00 1.000000e+00 2.000000e+00
      vertex   1.599919e+00 -1.610660e-02 2.000000e+00
    endloop
  endfacet
  facet normal 0.000000e+00 -0.000000e+00 1.000000e+00
    outer loop
      vertex   1.599919e+00 -1.610660e-02 2.000000e+00
      vertex   2.500000e+00 1.000000e+00 2.000000e+00
      vertex   1.596509e+00 1.056293e-01 2.000000e+00
    endloop
  endfacet
  facet normal 0.000000e+00 -0.000000e+00 1.000000e+00
    outer loop
      vertex   1.596509e+00 1.056293e-01 2.000000e+00
      vertex   2.500000e+00 1.000000e+00 2.000000e+00
      vertex   1.583851e+00 2.267532e-01 2.000000e+00
    endloop
  endfacet
  facet normal 0.000000e+00 -0.000000e+00 1.000000e+00
    outer loop
      vertex   1.583851e+00 2.267532e-01 2.000000e+00
      vertex   2.500000e+00 1.000000e+00 2.000000e+00
      vertex   1.562016e+00 3.465634e-01 2.000000e+00
    endloop
  endfacet
  facet normal 0.000000e+00 -0.000000e+00 1.000000e+00
    outer loop
      vertex   1.562016e+00 3.465634e-01 2.000000e+00
      vertex   2.500000e+00 1.000000e+00 2.000000e+00
      vertex   1.531132e+00 4.643659e-01 2.000000e+00
    endloop
  endfacet
  facet normal 0.000000e+00 -0.000000e+00 1.000000e+00
    outer loop
      vertex   1.531132e+00 4.643659e-01 2.000000e+00
      vertex   2.500000e+00 1.000000e+00 2.000000e+00
      vertex   1.491377e+00 5.794780e-01 2.000000e+00
    endloop
  endfacet
  facet normal 0.000000e+00 -0.000000e+00 1.000000e+00
    outer loop
      vertex   1.491377e+00 5.794780e-01 2.000000e+00
      vertex   2.500000e+00 1.000000e+00 2.000000e+00
      vertex   1.442982e+00 6.912330e-01 2.000000e+00
    endloop
  endfacet
  facet normal 0.000000e+00 -0.000000e+00 1.000000e+00
    outer loop
      vertex   1.442982e+00 6.912330e-01 2.000000e+00
      vertex   2.500000e+00 1.000000e+00 2.000000e+00
      vertex   1.386227e+00 7.989834e-01 2.000000e+00
    endloop
  endfacet
  facet normal 0.000000e+00 -0.000000e+00 1.000000e+00
    outer loop
      vertex   1.386227e+00 7.989834e-01 2.000000e+00
      vertex   2.500000e+00 1.000000e+00 2.000000e+00
      vertex   1.321441e+00 9.021048e-01 2.000000e+00
    endloop
  endfacet
  facet normal 0.000000e+00 -0.000000e+00 1.000000e+00
    outer loop
      vertex   1.321441e+00 9.021048e-01 2.000000e+00
      vertex   2.500000e+00 1.000000e+00 2.000000e+00
      vertex   1.249000e+00 1.000000e+00 2.000000e+00
    endloop
  endfacet
  facet normal -8.874682e-17 1.000000e+00 0.000000e+00
    outer loop
      vertex   -1.249000e+00 1.000000e+00 1.000000e+00
      vertex   -2.500000e+00 1.000000e+00 1.000000e+00
      vertex   -1.249000e+00 1.000000e+00 2.000000e+00
    endloop
  endfacet
  facet normal -8.874682e-17 1.000000e+00 0.000000e+00
    outer loop
      vertex   -1.249000e+00 1.000000e+00 2.000000e+00
      vertex   -2.500000e+00 1.000000e+00 1.000000e+00
      vertex   -2.500000e+00 1.000000e+00 2.000000e+00
    endloop
  endfacet
  facet normal -0.000000e+00 1.000000e+00 0.000000e+00
    outer loop
      vertex   1.249000e+00 1.000000e+00 2.000000e+00
      vertex   2.500000e+00 1.000000e+00 2.000000e+00
      vertex   1.249000e+00 1.000000e+00 1.000000e+00
    endloop
  endfacet
  facet normal 0.000000e+00 1.000000e+00 0.000000e+00
    outer loop
      vertex   1.249000e+00 1.000000e+00 1.000000e+00
      vertex   2.500000e+00 1.000000e+00 2.000000e+00
      vertex   2.500000e+00 1.000000e+00 1.000000e+00
    endloop
  endfacet
  facet normal 0.000000e+00 -0.000000e+00 1.000000e+00
    outer loop
      vertex   1.249000e+00 1.000000e+00 1.000000e+00
      vertex   2.500000e+00 1.000000e+00 1.000000e+00
      vertex   1.170953e+00 1.090353e+00 1.000000e+00
    endloop
  endfacet
  facet normal -0.000000e+00 -0.000000e+00 1.000000e+00
    outer loop
      vertex   1.170953e+00 1.090353e+00 1.000000e+00
      vertex   2.500000e+00 1.000000e+00 1.000000e+00
      vertex   1.086386e+00 1.174635e+00 1.000000e+00
    endloop
  endfacet
  facet normal -0.000000e+00 -0.000000e+00 1.000000e+00
    outer loop
      vertex   1.086386e+00 1.174635e+00 1.000000e+00
      vertex   2.500000e+00 1.000000e+00 1.000000e+00
      vertex   9.957690e-01 1.252375e+00 1.000000e+00
    endloop
  endfacet
  facet normal -0.000000e+00 -0.000000e+00 1.000000e+00
    outer loop
      vertex   9.957690e-01 1.252375e+00 1.000000e+00
      vertex   2.500000e+00 1.000000e+00 1.000000e+00
      vertex   8.996077e-01 1.323142e+00 1.000000e+00
    endloop
  endfacet
  facet normal -0.000000e+00 -0.000000e+00 1.000000e+00
    outer loop
      vertex   8.996077e-01 1.323142e+00 1.000000e+00
      vertex   2.500000e+00 1.000000e+00 1.000000e+00
      vertex   7.984370e-01 1.386542e+00 1.000000e+00
    endloop
  endfacet
  facet normal -0.000000e+00 0.000000e+00 1.000000e+00
    outer loop
      vertex   7.984370e-01 1.386542e+00 1.000000e+00
      vertex   2.500000e+00 1.000000e+00 1.000000e+00
      vertex   2.500000e+00 2.500000e+00 1.000000e+00
    endloop
  endfacet
  facet normal 0.000000e+00 -0.000000e+00 1.000000e+00
    outer loop
      vertex   7.984370e-01 1.386542e+00 1.000000e+00
      vertex   2.500000e+00 2.500000e+00 1.000000e+00
      vertex   6.928203e-01 1.442221e+00 1.000000e+00
    endloop
  endfacet
  facet normal 0.000000e+00 -0.000000e+00 1.000000e+00
    outer loop
      vertex   6.928203e-01 1.442221e+00 1.000000e+00
      vertex   2.500000e+00 2.500000e+00 1.000000e+00
      vertex   5.833458e-01 1.489868e+00 1.000000e+00
    endloop
  endfacet
  facet normal 0.000000e+00 -0.000000e+00 1.000000e+00
    outer loop
      vertex   5.833458e-01 1.489868e+00 1.000000e+00
      vertex   2.500000e+00 2.500000e+00 1.000000e+00
      vertex   4.706230e-01 1.529220e+00 1.000000e+00
    endloop
  endfacet
  facet normal 0.000000e+00 -0.000000e+00 1.000000e+00
    outer loop
      vertex   4.706230e-01 1.529220e+00 1.000000e+00
      vertex   2.500000e+00 2.500000e+00 1.000000e+00
      vertex   3.552796e-01 1.560057e+00 1.000000e+00
    endloop
  endfacet
  facet normal 0.000000e+00 -0.000000e+00 1.000000e+00
    outer loop
      vertex   3.552796e-01 1.560057e+00 1.000000e+00
      vertex   2.500000e+00 2.500000e+00 1.000000e+00
      vertex   2.379579e-01 1.582206e+00 1.000000e+00
    endloop
  endfacet
  facet normal 0.000000e+00 -0.000000e+00 1.000000e+00
    outer loop
      vertex   2.379579e-01 1.582206e+00 1.000000e+00
      vertex   2.500000e+00 2.500000e+00 1.000000e+00
      vertex   1.193111e-01 1.595545e+00 1.000000e+00
    endloop
  endfacet
  facet normal 0.000000e+00 -0.000000e+00 1.000000e+00
    outer loop
      vertex   1.193111e-01 1.595545e+00 1.000000e+00
      vertex   2.500000e+00 2.500000e+00 1.000000e+00
      vertex   -2.572996e-16 1.600000e+00 1.000000e+00
    endloop
  endfacet
  facet normal 0.000000e+00 -0.000000e+00 1.000000e+00
    outer loop
      vertex   -2.572996e-16 1.600000e+00 1.000000e+00
      vertex   2.500000e+00 2.500000e+00 1.000000e+00
      vertex   -2.500000e+00 2.500000e+00 1.000000e+00
    endloop
  endfacet
  facet normal 0.000000e+00 0.000000e+00 1.000000e+00
    outer loop
      vertex   -2.572996e-16 1.600000e+00 1.000000e+00
      vertex   -2.500000e+00 2.500000e+00 1.000000e+00
      vertex   -1.193111e-01 1.595545e+00 1.000000e+00
    endloop
  endfacet
  facet normal 0.000000e+00 0.000000e+00 1.000000e+00
    outer loop
      vertex   -1.193111e-01 1.595545e+00 1.000000e+00
      vertex   -2.500000e+00 2.500000e+00 1.000000e+00
      vertex   -2.379579e-01 1.582206e+00 1.000000e+00
    endloop
  endfacet
  facet normal 0.000000e+00 0.000000e+00 1.000000e+00
    outer loop
      vertex   -2.379579e-01 1.582206e+00 1.000000e+00
      vertex   -2.500000e+00 2.500000e+00 1.000000e+00
      vertex   -3.552796e-01 1.560057e+00 1.000000e+00
    endloop
  endfacet
  facet normal 0.000000e+00 0.000000e+00 1.000000e+00
    outer loop
      vertex   -3.552796e-01 1.560057e+00 1.000000e+00
      vertex   -2.500000e+00 2.500000e+00 1.000000e+00
      vertex   -4.706230e-01 1.529220e+00 1.000000e+00
    endloop
  endfacet
  facet normal 0.000000e+00 0.000000e+00 1.000000e+00
    outer loop
      vertex   -4.706230e-01 1.529220e+00 1.000000e+00
      vertex   -2.500000e+00 2.500000e+00 1.000000e+00
      vertex   -5.833458e-01 1.489868e+00 1.000000e+00
    endloop
  endfacet
  facet normal 0.000000e+00 0.000000e+00 1.000000e+00
    outer loop
      vertex   -5.833458e-01 1.489868e+00 1.000000e+00
      vertex   -2.500000e+00 2.500000e+00 1.000000e+00
      vertex   -6.928203e-01 1.442221e+00 1.000000e+00
    endloop
  endfacet
  facet normal 0.000000e+00 0.000000e+00 1.000000e+00
    outer loop
      vertex   -6.928203e-01 1.442221e+00 1.000000e+00
      vertex   -2.500000e+00 2.500000e+00 1.000000e+00
      vertex   -7.984370e-01 1.386542e+00 1.000000e+00
    endloop
  endfacet
  facet normal 0.000000e+00 0.000000e+00 1.000000e+00
    outer loop
      vertex   -7.984370e-01 1.386542e+00 1.000000e+00
      vertex   -2.500000e+00 2.500000e+00 1.000000e+00
      vertex   -2.500000e+00 1.000000e+00 1.000000e+00
    endloop
  endfacet
  facet normal 0.000000e+00 0.000000e+00 1.000000e+00
    outer loop
      vertex   -7.984370e-01 1.386542e+00 1.000000e+00
      vertex   -2.500000e+00 1.000000e+00 1.000000e+00
      vertex   -8.996077e-01 1.323142e+00 1.000000e+00
    endloop
  endfacet
  facet normal 0.000000e+00 0.000000e+00 1.000000e+00
    outer loop
      vertex   -8.996077e-01 1.323142e+00 1.000000e+00
      vertex   -2.500000e+00 1.000000e+00 1.000000e+00
      vertex   -9.957690e-01 1.252375e+00 1.000000e+00
    endloop
  endfacet
  facet normal 0.000000e+00 0.000000e+00 1.000000e+00
    outer loop
      vertex   -9.957690e-01 1.252375e+00 1.000000e+00
      vertex   -2.500000e+00 1.000000e+00 1.000000e+00
      vertex   -1.086386e+00 1.174635e+00 1.000000e+00
    endloop
  endfacet
  facet normal 0.000000e+00 0.000000e+00 1.000000e+00
    outer loop
      vertex   -1.086386e+00 1.174635e+00 1.000000e+00
      vertex   -2.500000e+00 1.000000e+00 1.000000e+00
      vertex   -1.170953e+00 1.090353e+00 1.000000e+00
    endloop
  endfacet
  facet normal 0.000000e+00 0.000000e+00 1.000000e+00
    outer loop
      vertex   -1.170953e+00 1.090353e+00 1.000000e+00
      vertex   -2.500000e+00 1.000000e+00 1.000000e+00
      vertex   -1.249000e+00 1.000000e+00 1.000000e+00
    endloop
  endfacet
endsolid
