solid ASCII
  facet normal 4.736952e-16 1.000000e+00 0.000000e+00
    outer loop
      vertex   6.117111e-16 9.402962e+00 1.671573e+00
      vertex   3.750000e+00 9.402962e+00 1.671573e+00
      vertex   6.117111e-16 9.402962e+00 0.000000e+00
    endloop
  endfacet
  facet normal 4.736952e-16 1.000000e+00 0.000000e+00
    outer loop
      vertex   6.117111e-16 9.402962e+00 0.000000e+00
      vertex   3.750000e+00 9.402962e+00 1.671573e+00
      vertex   3.750000e+00 9.402962e+00 0.000000e+00
    endloop
  endfacet
  facet normal 1.000000e+00 0.000000e+00 -2.763222e-15
    outer loop
      vertex   3.750000e+00 -9.750000e+00 0.000000e+00
      vertex   3.750000e+00 9.402962e+00 0.000000e+00
      vertex   3.750000e+00 -1.750000e+00 2.250000e+00
    endloop
  endfacet
  facet normal 1.000000e+00 5.574527e-16 0.000000e+00
    outer loop
      vertex   3.750000e+00 -1.750000e+00 2.250000e+00
      vertex   3.750000e+00 9.402962e+00 0.000000e+00
      vertex   3.750000e+00 9.402962e+00 1.671573e+00
    endloop
  endfacet
  facet normal 1.000000e+00 5.588712e-16 2.735109e-17
    outer loop
      vertex   3.750000e+00 -1.750000e+00 2.250000e+00
      vertex   3.750000e+00 9.402962e+00 1.671573e+00
      vertex   3.750000e+00 9.393404e+00 1.866865e+00
    endloop
  endfacet
  facet normal 1.000000e+00 5.607799e-16 8.286317e-17
    outer loop
      vertex   3.750000e+00 9.393404e+00 1.866865e+00
      vertex   3.750000e+00 9.364823e+00 2.060290e+00
      vertex   3.750000e+00 -1.750000e+00 2.250000e+00
    endloop
  endfacet
  facet normal 1.000000e+00 0.000000e+00 -3.277237e-14
    outer loop
      vertex   3.750000e+00 -1.750000e+00 2.250000e+00
      vertex   3.750000e+00 9.364823e+00 2.060290e+00
      vertex   3.750000e+00 9.317491e+00 2.250000e+00
    endloop
  endfacet
  facet normal 1.000000e+00 -1.657933e-14 5.618551e-14
    outer loop
      vertex   3.750000e+00 -1.750000e+00 2.250000e+00
      vertex   3.750000e+00 -2.125000e+00 2.250000e+00
      vertex   3.750000e+00 -9.750000e+00 0.000000e+00
    endloop
  endfacet
  facet normal 1.000000e+00 0.000000e+00 0.000000e+00
    outer loop
      vertex   3.750000e+00 -9.750000e+00 0.000000e+00
      vertex   3.750000e+00 -2.125000e+00 2.250000e+00
      vertex   3.750000e+00 -4.875000e+00 2.250000e+00
    endloop
  endfacet
  facet normal 1.000000e+00 0.000000e+00 0.000000e+00
    outer loop
      vertex   3.750000e+00 -9.750000e+00 0.000000e+00
      vertex   3.750000e+00 -4.875000e+00 2.250000e+00
      vertex   3.750000e+00 -9.750000e+00 2.250000e+00
    endloop
  endfacet
  facet normal 1.000000e+00 0.000000e+00 -0.000000e+00
    outer loop
      vertex   3.750000e+00 -2.125000e+00 2.250000e+00
      vertex   3.750000e+00 -2.125000e+00 4.000000e+00
      vertex   3.750000e+00 -4.875000e+00 2.250000e+00
    endloop
  endfacet
  facet normal 1.000000e+00 0.000000e+00 0.000000e+00
    outer loop
      vertex   3.750000e+00 -4.875000e+00 2.250000e+00
      vertex   3.750000e+00 -2.125000e+00 4.000000e+00
      vertex   3.750000e+00 -4.875000e+00 4.000000e+00
    endloop
  endfacet
  facet normal 1.000000e+00 0.000000e+00 -0.000000e+00
    outer loop
      vertex   3.750000e+00 -4.875000e+00 4.000000e+00
      vertex   3.750000e+00 -2.125000e+00 4.000000e+00
      vertex   3.750000e+00 -9.750000e+00 7.500000e+00
    endloop
  endfacet
  facet normal 1.000000e+00 0.000000e+00 0.000000e+00
    outer loop
      vertex   3.750000e+00 -4.875000e+00 4.000000e+00
      vertex   3.750000e+00 -9.750000e+00 7.500000e+00
      vertex   3.750000e+00 -9.750000e+00 4.000000e+00
    endloop
  endfacet
  facet normal 1.000000e+00 0.000000e+00 0.000000e+00
    outer loop
      vertex   3.750000e+00 -9.750000e+00 7.500000e+00
      vertex   3.750000e+00 -2.125000e+00 4.000000e+00
      vertex   3.750000e+00 4.402962e+00 7.500000e+00
    endloop
  endfacet
  facet normal 1.000000e+00 -1.539509e-14 2.871388e-14
    outer loop
      vertex   3.750000e+00 4.402962e+00 7.500000e+00
      vertex   3.750000e+00 -2.125000e+00 4.000000e+00
      vertex   3.750000e+00 -1.750000e+00 4.000000e+00
    endloop
  endfacet
  facet normal 1.000000e+00 -4.600549e-17 1.730351e-15
    outer loop
      vertex   3.750000e+00 4.402962e+00 7.500000e+00
      vertex   3.750000e+00 -1.750000e+00 4.000000e+00
      vertex   3.750000e+00 7.902962e+00 4.000000e+00
    endloop
  endfacet
  facet normal -1.000000e+00 0.000000e+00 0.000000e+00
    outer loop
      vertex   0.000000e+00 -1.750000e+00 7.500000e+00
      vertex   0.000000e+00 4.402962e+00 7.500000e+00
      vertex   0.000000e+00 -1.750000e+00 0.000000e+00
    endloop
  endfacet
  facet normal -1.000000e+00 -1.646479e-31 1.350763e-31
    outer loop
      vertex   0.000000e+00 -1.750000e+00 0.000000e+00
      vertex   0.000000e+00 4.402962e+00 7.500000e+00
      vertex   -1.323047e-30 8.817175e+00 3.085786e+00
    endloop
  endfacet
  facet normal -1.000000e+00 1.126806e-16 -3.858712e-16
    outer loop
      vertex   0.000000e+00 -1.750000e+00 0.000000e+00
      vertex   -1.323047e-30 8.817175e+00 3.085786e+00
      vertex   6.117111e-16 9.402962e+00 1.671573e+00
    endloop
  endfacet
  facet normal -1.000000e+00 -6.421293e-15 -3.092332e-15
    outer loop
      vertex   6.117111e-16 9.402962e+00 1.671573e+00
      vertex   -1.323047e-30 8.817175e+00 3.085786e+00
      vertex   -1.789576e-30 9.390386e+00 1.895502e+00
    endloop
  endfacet
  facet normal -1.000000e+00 -1.189327e-30 -1.808019e-31
    outer loop
      vertex   -1.789576e-30 9.390386e+00 1.895502e+00
      vertex   -1.323047e-30 8.817175e+00 3.085786e+00
      vertex   -1.784873e-30 9.352818e+00 2.116615e+00
    endloop
  endfacet
  facet normal -1.000000e+00 -1.664663e-30 -4.435107e-31
    outer loop
      vertex   -1.784873e-30 9.352818e+00 2.116615e+00
      vertex   -1.323047e-30 8.817175e+00 3.085786e+00
      vertex   -1.777099e-30 9.290728e+00 2.332131e+00
    endloop
  endfacet
  facet normal -1.000000e+00 -2.571384e-30 -1.013241e-30
    outer loop
      vertex   -1.777099e-30 9.290728e+00 2.332131e+00
      vertex   -1.323047e-30 8.817175e+00 3.085786e+00
      vertex   -1.766353e-30 9.204900e+00 2.539340e+00
    endloop
  endfacet
  facet normal -1.000000e+00 -4.730766e-30 -2.545405e-30
    outer loop
      vertex   -1.766353e-30 9.204900e+00 2.539340e+00
      vertex   -1.323047e-30 8.817175e+00 3.085786e+00
      vertex   -1.752770e-30 9.096410e+00 2.735637e+00
    endloop
  endfacet
  facet normal -1.000000e+00 -1.294606e-29 -9.096884e-30
    outer loop
      vertex   -1.752770e-30 9.096410e+00 2.735637e+00
      vertex   -1.323047e-30 8.817175e+00 3.085786e+00
      vertex   -1.736520e-30 8.966625e+00 2.918552e+00
    endloop
  endfacet
  facet normal -1.000000e+00 5.484741e-17 0.000000e+00
    outer loop
      vertex   6.117111e-16 9.402962e+00 1.671573e+00
      vertex   6.117111e-16 9.402962e+00 0.000000e+00
      vertex   0.000000e+00 -1.750000e+00 0.000000e+00
    endloop
  endfacet
  facet normal 0.000000e+00 0.000000e+00 1.000000e+00
    outer loop
      vertex   -6.736938e+00 -1.125000e+01 7.500000e+00
      vertex   2.250000e+00 -1.125000e+01 7.500000e+00
      vertex   -2.947002e+00 -8.069867e+00 7.500000e+00
    endloop
  endfacet
  facet normal -0.000000e+00 0.000000e+00 1.000000e+00
    outer loop
      vertex   -2.947002e+00 -8.069867e+00 7.500000e+00
      vertex   2.250000e+00 -1.125000e+01 7.500000e+00
      vertex   -2.588506e+00 -7.750833e+00 7.500000e+00
    endloop
  endfacet
  facet normal -0.000000e+00 0.000000e+00 1.000000e+00
    outer loop
      vertex   -2.588506e+00 -7.750833e+00 7.500000e+00
      vertex   2.250000e+00 -1.125000e+01 7.500000e+00
      vertex   -2.249167e+00 -7.411494e+00 7.500000e+00
    endloop
  endfacet
  facet normal -0.000000e+00 0.000000e+00 1.000000e+00
    outer loop
      vertex   -2.249167e+00 -7.411494e+00 7.500000e+00
      vertex   2.250000e+00 -1.125000e+01 7.500000e+00
      vertex   -1.930133e+00 -7.052998e+00 7.500000e+00
    endloop
  endfacet
  facet normal -0.000000e+00 0.000000e+00 1.000000e+00
    outer loop
      vertex   -1.930133e+00 -7.052998e+00 7.500000e+00
      vertex   2.250000e+00 -1.125000e+01 7.500000e+00
      vertex   -1.632484e+00 -6.676558e+00 7.500000e+00
    endloop
  endfacet
  facet normal -0.000000e+00 0.000000e+00 1.000000e+00
    outer loop
      vertex   -1.632484e+00 -6.676558e+00 7.500000e+00
      vertex   2.250000e+00 -1.125000e+01 7.500000e+00
      vertex   -1.357226e+00 -6.283449e+00 7.500000e+00
    endloop
  endfacet
  facet normal -0.000000e+00 0.000000e+00 1.000000e+00
    outer loop
      vertex   -1.357226e+00 -6.283449e+00 7.500000e+00
      vertex   2.250000e+00 -1.125000e+01 7.500000e+00
      vertex   -1.105290e+00 -5.875000e+00 7.500000e+00
    endloop
  endfacet
  facet normal -0.000000e+00 0.000000e+00 1.000000e+00
    outer loop
      vertex   -1.105290e+00 -5.875000e+00 7.500000e+00
      vertex   2.250000e+00 -1.125000e+01 7.500000e+00
      vertex   -8.775307e-01 -5.452593e+00 7.500000e+00
    endloop
  endfacet
  facet normal -0.000000e+00 0.000000e+00 1.000000e+00
    outer loop
      vertex   -8.775307e-01 -5.452593e+00 7.500000e+00
      vertex   2.250000e+00 -1.125000e+01 7.500000e+00
      vertex   -6.747171e-01 -5.017658e+00 7.500000e+00
    endloop
  endfacet
  facet normal 0.000000e+00 0.000000e+00 1.000000e+00
    outer loop
      vertex   -6.747171e-01 -5.017658e+00 7.500000e+00
      vertex   2.250000e+00 -1.125000e+01 7.500000e+00
      vertex   3.750000e+00 -9.750000e+00 7.500000e+00
    endloop
  endfacet
  facet normal -0.000000e+00 0.000000e+00 1.000000e+00
    outer loop
      vertex   -6.747171e-01 -5.017658e+00 7.500000e+00
      vertex   3.750000e+00 -9.750000e+00 7.500000e+00
      vertex   -4.975359e-01 -4.571666e+00 7.500000e+00
    endloop
  endfacet
  facet normal -0.000000e+00 0.000000e+00 1.000000e+00
    outer loop
      vertex   -4.975359e-01 -4.571666e+00 7.500000e+00
      vertex   3.750000e+00 -9.750000e+00 7.500000e+00
      vertex   -3.465865e-01 -4.116127e+00 7.500000e+00
    endloop
  endfacet
  facet normal -0.000000e+00 0.000000e+00 1.000000e+00
    outer loop
      vertex   -3.465865e-01 -4.116127e+00 7.500000e+00
      vertex   3.750000e+00 -9.750000e+00 7.500000e+00
      vertex   -2.223798e-01 -3.652581e+00 7.500000e+00
    endloop
  endfacet
  facet normal -0.000000e+00 0.000000e+00 1.000000e+00
    outer loop
      vertex   -2.223798e-01 -3.652581e+00 7.500000e+00
      vertex   3.750000e+00 -9.750000e+00 7.500000e+00
      vertex   -1.253360e-01 -3.182597e+00 7.500000e+00
    endloop
  endfacet
  facet normal -0.000000e+00 0.000000e+00 1.000000e+00
    outer loop
      vertex   -1.253360e-01 -3.182597e+00 7.500000e+00
      vertex   3.750000e+00 -9.750000e+00 7.500000e+00
      vertex   -5.578355e-02 -2.707767e+00 7.500000e+00
    endloop
  endfacet
  facet normal -0.000000e+00 0.000000e+00 1.000000e+00
    outer loop
      vertex   -5.578355e-02 -2.707767e+00 7.500000e+00
      vertex   3.750000e+00 -9.750000e+00 7.500000e+00
      vertex   -1.395769e-02 -2.229695e+00 7.500000e+00
    endloop
  endfacet
  facet normal 1.253844e-16 6.275566e-17 1.000000e+00
    outer loop
      vertex   -1.395769e-02 -2.229695e+00 7.500000e+00
      vertex   3.750000e+00 -9.750000e+00 7.500000e+00
      vertex   3.750000e+00 4.402962e+00 7.500000e+00
    endloop
  endfacet
  facet normal 2.487221e-16 -7.237074e-18 1.000000e+00
    outer loop
      vertex   -1.395769e-02 -2.229695e+00 7.500000e+00
      vertex   3.750000e+00 4.402962e+00 7.500000e+00
      vertex   0.000000e+00 -1.750000e+00 7.500000e+00
    endloop
  endfacet
  facet normal 2.368476e-16 -0.000000e+00 1.000000e+00
    outer loop
      vertex   0.000000e+00 -1.750000e+00 7.500000e+00
      vertex   3.750000e+00 4.402962e+00 7.500000e+00
      vertex   0.000000e+00 4.402962e+00 7.500000e+00
    endloop
  endfacet
  facet normal 0.000000e+00 0.000000e+00 1.000000e+00
    outer loop
      vertex   2.250000e+00 -1.125000e+01 7.500000e+00
      vertex   2.463472e+00 -1.123473e+01 7.500000e+00
      vertex   3.750000e+00 -9.750000e+00 7.500000e+00
    endloop
  endfacet
  facet normal 0.000000e+00 0.000000e+00 1.000000e+00
    outer loop
      vertex   3.750000e+00 -9.750000e+00 7.500000e+00
      vertex   2.463472e+00 -1.123473e+01 7.500000e+00
      vertex   2.672599e+00 -1.118924e+01 7.500000e+00
    endloop
  endfacet
  facet normal 0.000000e+00 0.000000e+00 1.000000e+00
    outer loop
      vertex   3.750000e+00 -9.750000e+00 7.500000e+00
      vertex   2.672599e+00 -1.118924e+01 7.500000e+00
      vertex   2.873123e+00 -1.111445e+01 7.500000e+00
    endloop
  endfacet
  facet normal 0.000000e+00 0.000000e+00 1.000000e+00
    outer loop
      vertex   2.873123e+00 -1.111445e+01 7.500000e+00
      vertex   3.060961e+00 -1.101188e+01 7.500000e+00
      vertex   3.750000e+00 -9.750000e+00 7.500000e+00
    endloop
  endfacet
  facet normal 0.000000e+00 0.000000e+00 1.000000e+00
    outer loop
      vertex   3.750000e+00 -9.750000e+00 7.500000e+00
      vertex   3.060961e+00 -1.101188e+01 7.500000e+00
      vertex   3.232291e+00 -1.088362e+01 7.500000e+00
    endloop
  endfacet
  facet normal 0.000000e+00 0.000000e+00 1.000000e+00
    outer loop
      vertex   3.750000e+00 -9.750000e+00 7.500000e+00
      vertex   3.232291e+00 -1.088362e+01 7.500000e+00
      vertex   3.383624e+00 -1.073229e+01 7.500000e+00
    endloop
  endfacet
  facet normal 0.000000e+00 0.000000e+00 1.000000e+00
    outer loop
      vertex   3.383624e+00 -1.073229e+01 7.500000e+00
      vertex   3.511880e+00 -1.056096e+01 7.500000e+00
      vertex   3.750000e+00 -9.750000e+00 7.500000e+00
    endloop
  endfacet
  facet normal 0.000000e+00 0.000000e+00 1.000000e+00
    outer loop
      vertex   3.750000e+00 -9.750000e+00 7.500000e+00
      vertex   3.511880e+00 -1.056096e+01 7.500000e+00
      vertex   3.614448e+00 -1.037312e+01 7.500000e+00
    endloop
  endfacet
  facet normal 0.000000e+00 0.000000e+00 1.000000e+00
    outer loop
      vertex   3.750000e+00 -9.750000e+00 7.500000e+00
      vertex   3.614448e+00 -1.037312e+01 7.500000e+00
      vertex   3.689239e+00 -1.017260e+01 7.500000e+00
    endloop
  endfacet
  facet normal 0.000000e+00 0.000000e+00 1.000000e+00
    outer loop
      vertex   3.689239e+00 -1.017260e+01 7.500000e+00
      vertex   3.734732e+00 -9.963472e+00 7.500000e+00
      vertex   3.750000e+00 -9.750000e+00 7.500000e+00
    endloop
  endfacet
  facet normal 1.000000e+00 -2.006278e-17 -7.435191e-18
    outer loop
      vertex   1.750000e+00 9.317491e+00 2.250000e+00
      vertex   1.750000e+00 9.232061e+00 2.480521e+00
      vertex   1.750000e+00 -1.750000e+00 2.250000e+00
    endloop
  endfacet
  facet normal 1.000000e+00 -2.000139e-17 -1.035968e-17
    outer loop
      vertex   1.750000e+00 -1.750000e+00 2.250000e+00
      vertex   1.750000e+00 9.232061e+00 2.480521e+00
      vertex   1.750000e+00 9.118994e+00 2.698818e+00
    endloop
  endfacet
  facet normal 1.000000e+00 -6.383940e-17 1.051262e-15
    outer loop
      vertex   1.750000e+00 -1.750000e+00 2.250000e+00
      vertex   1.750000e+00 9.118994e+00 2.698818e+00
      vertex   1.750000e+00 8.979999e+00 2.901595e+00
    endloop
  endfacet
  facet normal 1.000000e+00 6.947669e-17 -1.144092e-15
    outer loop
      vertex   1.750000e+00 8.979999e+00 2.901595e+00
      vertex   1.750000e+00 8.817175e+00 3.085786e+00
      vertex   1.750000e+00 -1.750000e+00 2.250000e+00
    endloop
  endfacet
  facet normal 1.000000e+00 -2.101267e-17 0.000000e+00
    outer loop
      vertex   1.750000e+00 -1.750000e+00 2.250000e+00
      vertex   1.750000e+00 8.817175e+00 3.085786e+00
      vertex   1.750000e+00 -1.750000e+00 4.000000e+00
    endloop
  endfacet
  facet normal 1.000000e+00 -0.000000e+00 2.428805e-16
    outer loop
      vertex   1.750000e+00 -1.750000e+00 4.000000e+00
      vertex   1.750000e+00 8.817175e+00 3.085786e+00
      vertex   1.750000e+00 7.902962e+00 4.000000e+00
    endloop
  endfacet
  facet normal 0.000000e+00 0.000000e+00 -1.000000e+00
    outer loop
      vertex   1.750000e+00 7.902962e+00 4.000000e+00
      vertex   3.750000e+00 7.902962e+00 4.000000e+00
      vertex   1.750000e+00 -1.750000e+00 4.000000e+00
    endloop
  endfacet
  facet normal 0.000000e+00 0.000000e+00 -1.000000e+00
    outer loop
      vertex   1.750000e+00 -1.750000e+00 4.000000e+00
      vertex   3.750000e+00 7.902962e+00 4.000000e+00
      vertex   3.750000e+00 -1.750000e+00 4.000000e+00
    endloop
  endfacet
  facet normal 0.000000e+00 -1.245464e-15 1.000000e+00
    outer loop
      vertex   2.250000e+00 -1.125000e+01 2.250000e+00
      vertex   2.899044e-01 -1.018030e+01 2.250000e+00
      vertex   -2.785535e-01 -1.125000e+01 2.250000e+00
    endloop
  endfacet
  facet normal 2.475506e-15 -2.560998e-15 1.000000e+00
    outer loop
      vertex   -2.785535e-01 -1.125000e+01 2.250000e+00
      vertex   2.899044e-01 -1.018030e+01 2.250000e+00
      vertex   -1.143905e-01 -1.057110e+01 2.250000e+00
    endloop
  endfacet
  facet normal 2.193199e-15 -2.492734e-15 1.000000e+00
    outer loop
      vertex   -2.785535e-01 -1.125000e+01 2.250000e+00
      vertex   -1.143905e-01 -1.057110e+01 2.250000e+00
      vertex   -5.365487e-01 -1.094253e+01 2.250000e+00
    endloop
  endfacet
  facet normal 3.346479e-17 -4.678989e-16 1.000000e+00
    outer loop
      vertex   2.463472e+00 -1.123473e+01 2.250000e+00
      vertex   1.711327e+00 -8.441186e+00 2.250000e+00
      vertex   2.250000e+00 -1.125000e+01 2.250000e+00
    endloop
  endfacet
  facet normal 5.281633e-16 -3.730258e-16 1.000000e+00
    outer loop
      vertex   2.250000e+00 -1.125000e+01 2.250000e+00
      vertex   1.711327e+00 -8.441186e+00 2.250000e+00
      vertex   1.386941e+00 -8.900481e+00 2.250000e+00
    endloop
  endfacet
  facet normal 4.946676e-16 -3.853299e-16 1.000000e+00
    outer loop
      vertex   2.250000e+00 -1.125000e+01 2.250000e+00
      vertex   1.386941e+00 -8.900481e+00 2.250000e+00
      vertex   1.041395e+00 -9.344075e+00 2.250000e+00
    endloop
  endfacet
  facet normal 9.800502e-17 -4.505218e-16 1.000000e+00
    outer loop
      vertex   2.463472e+00 -1.123473e+01 2.250000e+00
      vertex   2.672599e+00 -1.118924e+01 2.250000e+00
      vertex   1.711327e+00 -8.441186e+00 2.250000e+00
    endloop
  endfacet
  facet normal 1.599536e-16 -4.288521e-16 1.000000e+00
    outer loop
      vertex   1.711327e+00 -8.441186e+00 2.250000e+00
      vertex   2.672599e+00 -1.118924e+01 2.250000e+00
      vertex   2.873123e+00 -1.111445e+01 2.250000e+00
    endloop
  endfacet
  facet normal 2.199365e-16 -4.027837e-16 1.000000e+00
    outer loop
      vertex   1.711327e+00 -8.441186e+00 2.250000e+00
      vertex   2.873123e+00 -1.111445e+01 2.250000e+00
      vertex   3.060961e+00 -1.101188e+01 2.250000e+00
    endloop
  endfacet
  facet normal 2.785027e-16 -3.720360e-16 1.000000e+00
    outer loop
      vertex   3.060961e+00 -1.101188e+01 2.250000e+00
      vertex   3.232291e+00 -1.088362e+01 2.250000e+00
      vertex   1.711327e+00 -8.441186e+00 2.250000e+00
    endloop
  endfacet
  facet normal 5.053381e-16 -2.307802e-16 1.000000e+00
    outer loop
      vertex   1.711327e+00 -8.441186e+00 2.250000e+00
      vertex   3.232291e+00 -1.088362e+01 2.250000e+00
      vertex   3.750000e+00 -9.750000e+00 2.250000e+00
    endloop
  endfacet
  facet normal 4.635583e-16 -2.958585e-16 1.000000e+00
    outer loop
      vertex   1.711327e+00 -8.441186e+00 2.250000e+00
      vertex   3.750000e+00 -9.750000e+00 2.250000e+00
      vertex   2.013841e+00 -7.967199e+00 2.250000e+00
    endloop
  endfacet
  facet normal 4.827480e-16 -2.771708e-16 1.000000e+00
    outer loop
      vertex   2.013841e+00 -7.967199e+00 2.250000e+00
      vertex   3.750000e+00 -9.750000e+00 2.250000e+00
      vertex   2.293819e+00 -7.479562e+00 2.250000e+00
    endloop
  endfacet
  facet normal 5.081318e-16 -2.608905e-16 1.000000e+00
    outer loop
      vertex   2.293819e+00 -7.479562e+00 2.250000e+00
      vertex   3.750000e+00 -9.750000e+00 2.250000e+00
      vertex   2.550646e+00 -6.979344e+00 2.250000e+00
    endloop
  endfacet
  facet normal 5.412274e-16 -2.465642e-16 1.000000e+00
    outer loop
      vertex   2.550646e+00 -6.979344e+00 2.250000e+00
      vertex   3.750000e+00 -9.750000e+00 2.250000e+00
      vertex   2.783759e+00 -6.467644e+00 2.250000e+00
    endloop
  endfacet
  facet normal 5.844364e-16 -2.338446e-16 1.000000e+00
    outer loop
      vertex   2.783759e+00 -6.467644e+00 2.250000e+00
      vertex   3.750000e+00 -9.750000e+00 2.250000e+00
      vertex   2.992645e+00 -5.945586e+00 2.250000e+00
    endloop
  endfacet
  facet normal 1.759105e-15 0.000000e+00 1.000000e+00
    outer loop
      vertex   2.992645e+00 -5.945586e+00 2.250000e+00
      vertex   3.750000e+00 -9.750000e+00 2.250000e+00
      vertex   3.750000e+00 -4.875000e+00 2.250000e+00
    endloop
  endfacet
  facet normal 3.449998e-15 -1.196174e-15 1.000000e+00
    outer loop
      vertex   2.992645e+00 -5.945586e+00 2.250000e+00
      vertex   3.750000e+00 -4.875000e+00 2.250000e+00
      vertex   3.176845e+00 -5.414316e+00 2.250000e+00
    endloop
  endfacet
  facet normal 3.217695e-15 -9.492956e-16 1.000000e+00
    outer loop
      vertex   3.176845e+00 -5.414316e+00 2.250000e+00
      vertex   3.750000e+00 -4.875000e+00 2.250000e+00
      vertex   3.335956e+00 -4.875000e+00 2.250000e+00
    endloop
  endfacet
  facet normal 0.000000e+00 0.000000e+00 1.000000e+00
    outer loop
      vertex   3.232291e+00 -1.088362e+01 2.250000e+00
      vertex   3.383624e+00 -1.073229e+01 2.250000e+00
      vertex   3.750000e+00 -9.750000e+00 2.250000e+00
    endloop
  endfacet
  facet normal 0.000000e+00 0.000000e+00 1.000000e+00
    outer loop
      vertex   3.750000e+00 -9.750000e+00 2.250000e+00
      vertex   3.383624e+00 -1.073229e+01 2.250000e+00
      vertex   3.511880e+00 -1.056096e+01 2.250000e+00
    endloop
  endfacet
  facet normal 0.000000e+00 0.000000e+00 1.000000e+00
    outer loop
      vertex   3.750000e+00 -9.750000e+00 2.250000e+00
      vertex   3.511880e+00 -1.056096e+01 2.250000e+00
      vertex   3.614448e+00 -1.037312e+01 2.250000e+00
    endloop
  endfacet
  facet normal 0.000000e+00 0.000000e+00 1.000000e+00
    outer loop
      vertex   3.614448e+00 -1.037312e+01 2.250000e+00
      vertex   3.689239e+00 -1.017260e+01 2.250000e+00
      vertex   3.750000e+00 -9.750000e+00 2.250000e+00
    endloop
  endfacet
  facet normal 0.000000e+00 0.000000e+00 1.000000e+00
    outer loop
      vertex   3.750000e+00 -9.750000e+00 2.250000e+00
      vertex   3.689239e+00 -1.017260e+01 2.250000e+00
      vertex   3.734732e+00 -9.963472e+00 2.250000e+00
    endloop
  endfacet
  facet normal 4.687252e-16 -4.017808e-16 1.000000e+00
    outer loop
      vertex   1.041395e+00 -9.344075e+00 2.250000e+00
      vertex   6.754485e-01 -9.770996e+00 2.250000e+00
      vertex   2.250000e+00 -1.125000e+01 2.250000e+00
    endloop
  endfacet
  facet normal 4.489251e-16 -4.228601e-16 1.000000e+00
    outer loop
      vertex   2.250000e+00 -1.125000e+01 2.250000e+00
      vertex   6.754485e-01 -9.770996e+00 2.250000e+00
      vertex   2.899044e-01 -1.018030e+01 2.250000e+00
    endloop
  endfacet
  facet normal 2.273182e-13 -5.922047e-15 1.000000e+00
    outer loop
      vertex   3.744139e+00 -2.125000e+00 2.250000e+00
      vertex   3.750000e+00 -2.125000e+00 2.250000e+00
      vertex   3.747395e+00 -2.000023e+00 2.250000e+00
    endloop
  endfacet
  facet normal 2.922813e-13 -4.568011e-15 1.000000e+00
    outer loop
      vertex   3.747395e+00 -2.000023e+00 2.250000e+00
      vertex   3.750000e+00 -2.125000e+00 2.250000e+00
      vertex   3.749349e+00 -1.875018e+00 2.250000e+00
    endloop
  endfacet
  facet normal 6.820038e-13 -3.552714e-15 1.000000e+00
    outer loop
      vertex   3.749349e+00 -1.875018e+00 2.250000e+00
      vertex   3.750000e+00 -2.125000e+00 2.250000e+00
      vertex   3.750000e+00 -1.750000e+00 2.250000e+00
    endloop
  endfacet
  facet normal 5.863683e-16 0.000000e+00 -1.000000e+00
    outer loop
      vertex   3.750000e+00 -9.750000e+00 4.000000e+00
      vertex   2.992645e+00 -5.945586e+00 4.000000e+00
      vertex   3.750000e+00 -4.875000e+00 4.000000e+00
    endloop
  endfacet
  facet normal 1.149999e-15 -3.987245e-16 -1.000000e+00
    outer loop
      vertex   3.750000e+00 -4.875000e+00 4.000000e+00
      vertex   2.992645e+00 -5.945586e+00 4.000000e+00
      vertex   3.176845e+00 -5.414316e+00 4.000000e+00
    endloop
  endfacet
  facet normal 1.072565e-15 -3.164319e-16 -1.000000e+00
    outer loop
      vertex   3.750000e+00 -4.875000e+00 4.000000e+00
      vertex   3.176845e+00 -5.414316e+00 4.000000e+00
      vertex   3.335956e+00 -4.875000e+00 4.000000e+00
    endloop
  endfacet
  facet normal -0.000000e+00 0.000000e+00 -1.000000e+00
    outer loop
      vertex   3.734732e+00 -9.963472e+00 4.000000e+00
      vertex   3.689239e+00 -1.017260e+01 4.000000e+00
      vertex   3.750000e+00 -9.750000e+00 4.000000e+00
    endloop
  endfacet
  facet normal 0.000000e+00 0.000000e+00 -1.000000e+00
    outer loop
      vertex   3.750000e+00 -9.750000e+00 4.000000e+00
      vertex   3.689239e+00 -1.017260e+01 4.000000e+00
      vertex   3.614448e+00 -1.037312e+01 4.000000e+00
    endloop
  endfacet
  facet normal 0.000000e+00 0.000000e+00 -1.000000e+00
    outer loop
      vertex   3.750000e+00 -9.750000e+00 4.000000e+00
      vertex   3.614448e+00 -1.037312e+01 4.000000e+00
      vertex   3.511880e+00 -1.056096e+01 4.000000e+00
    endloop
  endfacet
  facet normal -0.000000e+00 0.000000e+00 -1.000000e+00
    outer loop
      vertex   3.511880e+00 -1.056096e+01 4.000000e+00
      vertex   3.383624e+00 -1.073229e+01 4.000000e+00
      vertex   3.750000e+00 -9.750000e+00 4.000000e+00
    endloop
  endfacet
  facet normal 0.000000e+00 0.000000e+00 -1.000000e+00
    outer loop
      vertex   3.750000e+00 -9.750000e+00 4.000000e+00
      vertex   3.383624e+00 -1.073229e+01 4.000000e+00
      vertex   3.232291e+00 -1.088362e+01 4.000000e+00
    endloop
  endfacet
  facet normal 1.684460e-16 -7.692673e-17 -1.000000e+00
    outer loop
      vertex   3.750000e+00 -9.750000e+00 4.000000e+00
      vertex   3.232291e+00 -1.088362e+01 4.000000e+00
      vertex   1.711327e+00 -8.441186e+00 4.000000e+00
    endloop
  endfacet
  facet normal 9.283422e-17 -1.240120e-16 -1.000000e+00
    outer loop
      vertex   1.711327e+00 -8.441186e+00 4.000000e+00
      vertex   3.232291e+00 -1.088362e+01 4.000000e+00
      vertex   3.060961e+00 -1.101188e+01 4.000000e+00
    endloop
  endfacet
  facet normal 7.331217e-17 -1.342612e-16 -1.000000e+00
    outer loop
      vertex   1.711327e+00 -8.441186e+00 4.000000e+00
      vertex   3.060961e+00 -1.101188e+01 4.000000e+00
      vertex   2.873123e+00 -1.111445e+01 4.000000e+00
    endloop
  endfacet
  facet normal 5.331786e-17 -1.429507e-16 -1.000000e+00
    outer loop
      vertex   2.873123e+00 -1.111445e+01 4.000000e+00
      vertex   2.672599e+00 -1.118924e+01 4.000000e+00
      vertex   1.711327e+00 -8.441186e+00 4.000000e+00
    endloop
  endfacet
  facet normal 3.266834e-17 -1.501739e-16 -1.000000e+00
    outer loop
      vertex   1.711327e+00 -8.441186e+00 4.000000e+00
      vertex   2.672599e+00 -1.118924e+01 4.000000e+00
      vertex   2.463472e+00 -1.123473e+01 4.000000e+00
    endloop
  endfacet
  facet normal 1.115493e-17 -1.559663e-16 -1.000000e+00
    outer loop
      vertex   1.711327e+00 -8.441186e+00 4.000000e+00
      vertex   2.463472e+00 -1.123473e+01 4.000000e+00
      vertex   2.250000e+00 -1.125000e+01 4.000000e+00
    endloop
  endfacet
  facet normal 0.000000e+00 -4.151547e-16 -1.000000e+00
    outer loop
      vertex   -2.785535e-01 -1.125000e+01 4.000000e+00
      vertex   2.899044e-01 -1.018030e+01 4.000000e+00
      vertex   2.250000e+00 -1.125000e+01 4.000000e+00
    endloop
  endfacet
  facet normal 1.496417e-16 -1.409534e-16 -1.000000e+00
    outer loop
      vertex   2.250000e+00 -1.125000e+01 4.000000e+00
      vertex   2.899044e-01 -1.018030e+01 4.000000e+00
      vertex   6.754485e-01 -9.770996e+00 4.000000e+00
    endloop
  endfacet
  facet normal 1.562417e-16 -1.339269e-16 -1.000000e+00
    outer loop
      vertex   2.250000e+00 -1.125000e+01 4.000000e+00
      vertex   6.754485e-01 -9.770996e+00 4.000000e+00
      vertex   1.041395e+00 -9.344075e+00 4.000000e+00
    endloop
  endfacet
  facet normal 7.310665e-16 -8.309114e-16 -1.000000e+00
    outer loop
      vertex   -5.365487e-01 -1.094253e+01 4.000000e+00
      vertex   -1.143905e-01 -1.057110e+01 4.000000e+00
      vertex   -2.785535e-01 -1.125000e+01 4.000000e+00
    endloop
  endfacet
  facet normal 8.251687e-16 -8.536661e-16 -1.000000e+00
    outer loop
      vertex   -2.785535e-01 -1.125000e+01 4.000000e+00
      vertex   -1.143905e-01 -1.057110e+01 4.000000e+00
      vertex   2.899044e-01 -1.018030e+01 4.000000e+00
    endloop
  endfacet
  facet normal 1.648892e-16 -1.284433e-16 -1.000000e+00
    outer loop
      vertex   1.041395e+00 -9.344075e+00 4.000000e+00
      vertex   1.386941e+00 -8.900481e+00 4.000000e+00
      vertex   2.250000e+00 -1.125000e+01 4.000000e+00
    endloop
  endfacet
  facet normal 1.760544e-16 -1.243419e-16 -1.000000e+00
    outer loop
      vertex   2.250000e+00 -1.125000e+01 4.000000e+00
      vertex   1.386941e+00 -8.900481e+00 4.000000e+00
      vertex   1.711327e+00 -8.441186e+00 4.000000e+00
    endloop
  endfacet
  facet normal 1.545194e-16 -9.861951e-17 -1.000000e+00
    outer loop
      vertex   1.711327e+00 -8.441186e+00 4.000000e+00
      vertex   2.013841e+00 -7.967199e+00 4.000000e+00
      vertex   3.750000e+00 -9.750000e+00 4.000000e+00
    endloop
  endfacet
  facet normal 1.609160e-16 -9.239026e-17 -1.000000e+00
    outer loop
      vertex   3.750000e+00 -9.750000e+00 4.000000e+00
      vertex   2.013841e+00 -7.967199e+00 4.000000e+00
      vertex   2.293819e+00 -7.479562e+00 4.000000e+00
    endloop
  endfacet
  facet normal 1.693773e-16 -8.696351e-17 -1.000000e+00
    outer loop
      vertex   3.750000e+00 -9.750000e+00 4.000000e+00
      vertex   2.293819e+00 -7.479562e+00 4.000000e+00
      vertex   2.550646e+00 -6.979344e+00 4.000000e+00
    endloop
  endfacet
  facet normal 1.804091e-16 -8.218807e-17 -1.000000e+00
    outer loop
      vertex   2.550646e+00 -6.979344e+00 4.000000e+00
      vertex   2.783759e+00 -6.467644e+00 4.000000e+00
      vertex   3.750000e+00 -9.750000e+00 4.000000e+00
    endloop
  endfacet
  facet normal 1.948121e-16 -7.794819e-17 -1.000000e+00
    outer loop
      vertex   3.750000e+00 -9.750000e+00 4.000000e+00
      vertex   2.783759e+00 -6.467644e+00 4.000000e+00
      vertex   2.992645e+00 -5.945586e+00 4.000000e+00
    endloop
  endfacet
  facet normal 7.577272e-14 -1.974016e-15 -1.000000e+00
    outer loop
      vertex   3.744139e+00 -2.125000e+00 4.000000e+00
      vertex   3.747395e+00 -2.000023e+00 4.000000e+00
      vertex   3.750000e+00 -2.125000e+00 4.000000e+00
    endloop
  endfacet
  facet normal 9.742710e-14 -1.522670e-15 -1.000000e+00
    outer loop
      vertex   3.750000e+00 -2.125000e+00 4.000000e+00
      vertex   3.747395e+00 -2.000023e+00 4.000000e+00
      vertex   3.749349e+00 -1.875018e+00 4.000000e+00
    endloop
  endfacet
  facet normal 2.273346e-13 -1.184238e-15 -1.000000e+00
    outer loop
      vertex   3.750000e+00 -2.125000e+00 4.000000e+00
      vertex   3.749349e+00 -1.875018e+00 4.000000e+00
      vertex   3.750000e+00 -1.750000e+00 4.000000e+00
    endloop
  endfacet
  facet normal 0.000000e+00 0.000000e+00 1.000000e+00
    outer loop
      vertex   3.335956e+00 -4.875000e+00 2.250000e+00
      vertex   1.249178e+00 -4.875000e+00 2.250000e+00
      vertex   3.176845e+00 -5.414316e+00 2.250000e+00
    endloop
  endfacet
  facet normal 0.000000e+00 0.000000e+00 1.000000e+00
    outer loop
      vertex   3.176845e+00 -5.414316e+00 2.250000e+00
      vertex   1.249178e+00 -4.875000e+00 2.250000e+00
      vertex   2.992645e+00 -5.945586e+00 2.250000e+00
    endloop
  endfacet
  facet normal 0.000000e+00 0.000000e+00 1.000000e+00
    outer loop
      vertex   2.992645e+00 -5.945586e+00 2.250000e+00
      vertex   1.249178e+00 -4.875000e+00 2.250000e+00
      vertex   1.061261e+00 -5.396974e+00 2.250000e+00
    endloop
  endfacet
  facet normal 0.000000e+00 0.000000e+00 1.000000e+00
    outer loop
      vertex   2.992645e+00 -5.945586e+00 2.250000e+00
      vertex   1.061261e+00 -5.396974e+00 2.250000e+00
      vertex   2.783759e+00 -6.467644e+00 2.250000e+00
    endloop
  endfacet
  facet normal 0.000000e+00 0.000000e+00 1.000000e+00
    outer loop
      vertex   2.783759e+00 -6.467644e+00 2.250000e+00
      vertex   1.061261e+00 -5.396974e+00 2.250000e+00
      vertex   8.446871e-01 -5.907724e+00 2.250000e+00
    endloop
  endfacet
  facet normal 0.000000e+00 0.000000e+00 1.000000e+00
    outer loop
      vertex   2.783759e+00 -6.467644e+00 2.250000e+00
      vertex   8.446871e-01 -5.907724e+00 2.250000e+00
      vertex   2.550646e+00 -6.979344e+00 2.250000e+00
    endloop
  endfacet
  facet normal 0.000000e+00 0.000000e+00 1.000000e+00
    outer loop
      vertex   2.550646e+00 -6.979344e+00 2.250000e+00
      vertex   8.446871e-01 -5.907724e+00 2.250000e+00
      vertex   2.293819e+00 -7.479562e+00 2.250000e+00
    endloop
  endfacet
  facet normal 0.000000e+00 0.000000e+00 1.000000e+00
    outer loop
      vertex   2.293819e+00 -7.479562e+00 2.250000e+00
      vertex   8.446871e-01 -5.907724e+00 2.250000e+00
      vertex   6.001226e-01 -6.405677e+00 2.250000e+00
    endloop
  endfacet
  facet normal 0.000000e+00 0.000000e+00 1.000000e+00
    outer loop
      vertex   2.293819e+00 -7.479562e+00 2.250000e+00
      vertex   6.001226e-01 -6.405677e+00 2.250000e+00
      vertex   2.013841e+00 -7.967199e+00 2.250000e+00
    endloop
  endfacet
  facet normal 0.000000e+00 0.000000e+00 1.000000e+00
    outer loop
      vertex   2.013841e+00 -7.967199e+00 2.250000e+00
      vertex   6.001226e-01 -6.405677e+00 2.250000e+00
      vertex   3.283201e-01 -6.889302e+00 2.250000e+00
    endloop
  endfacet
  facet normal 0.000000e+00 0.000000e+00 1.000000e+00
    outer loop
      vertex   2.013841e+00 -7.967199e+00 2.250000e+00
      vertex   3.283201e-01 -6.889302e+00 2.250000e+00
      vertex   1.711327e+00 -8.441186e+00 2.250000e+00
    endloop
  endfacet
  facet normal 0.000000e+00 0.000000e+00 1.000000e+00
    outer loop
      vertex   1.711327e+00 -8.441186e+00 2.250000e+00
      vertex   3.283201e-01 -6.889302e+00 2.250000e+00
      vertex   3.011618e-02 -7.357109e+00 2.250000e+00
    endloop
  endfacet
  facet normal 0.000000e+00 0.000000e+00 1.000000e+00
    outer loop
      vertex   1.711327e+00 -8.441186e+00 2.250000e+00
      vertex   3.011618e-02 -7.357109e+00 2.250000e+00
      vertex   1.386941e+00 -8.900481e+00 2.250000e+00
    endloop
  endfacet
  facet normal 0.000000e+00 0.000000e+00 1.000000e+00
    outer loop
      vertex   1.386941e+00 -8.900481e+00 2.250000e+00
      vertex   3.011618e-02 -7.357109e+00 2.250000e+00
      vertex   -2.935714e-01 -7.807660e+00 2.250000e+00
    endloop
  endfacet
  facet normal 0.000000e+00 0.000000e+00 1.000000e+00
    outer loop
      vertex   1.386941e+00 -8.900481e+00 2.250000e+00
      vertex   -2.935714e-01 -7.807660e+00 2.250000e+00
      vertex   1.041395e+00 -9.344075e+00 2.250000e+00
    endloop
  endfacet
  facet normal 0.000000e+00 0.000000e+00 1.000000e+00
    outer loop
      vertex   1.041395e+00 -9.344075e+00 2.250000e+00
      vertex   -2.935714e-01 -7.807660e+00 2.250000e+00
      vertex   -6.417465e-01 -8.239567e+00 2.250000e+00
    endloop
  endfacet
  facet normal 0.000000e+00 0.000000e+00 1.000000e+00
    outer loop
      vertex   1.041395e+00 -9.344075e+00 2.250000e+00
      vertex   -6.417465e-01 -8.239567e+00 2.250000e+00
      vertex   6.754485e-01 -9.770996e+00 2.250000e+00
    endloop
  endfacet
  facet normal 0.000000e+00 0.000000e+00 1.000000e+00
    outer loop
      vertex   6.754485e-01 -9.770996e+00 2.250000e+00
      vertex   -6.417465e-01 -8.239567e+00 2.250000e+00
      vertex   2.899044e-01 -1.018030e+01 2.250000e+00
    endloop
  endfacet
  facet normal 0.000000e+00 0.000000e+00 1.000000e+00
    outer loop
      vertex   2.899044e-01 -1.018030e+01 2.250000e+00
      vertex   -6.417465e-01 -8.239567e+00 2.250000e+00
      vertex   -1.013337e+00 -8.651501e+00 2.250000e+00
    endloop
  endfacet
  facet normal 0.000000e+00 0.000000e+00 1.000000e+00
    outer loop
      vertex   2.899044e-01 -1.018030e+01 2.250000e+00
      vertex   -1.013337e+00 -8.651501e+00 2.250000e+00
      vertex   -1.143905e-01 -1.057110e+01 2.250000e+00
    endloop
  endfacet
  facet normal 0.000000e+00 0.000000e+00 1.000000e+00
    outer loop
      vertex   -1.143905e-01 -1.057110e+01 2.250000e+00
      vertex   -1.013337e+00 -8.651501e+00 2.250000e+00
      vertex   -1.407201e+00 -9.042194e+00 2.250000e+00
    endloop
  endfacet
  facet normal 0.000000e+00 0.000000e+00 1.000000e+00
    outer loop
      vertex   -1.143905e-01 -1.057110e+01 2.250000e+00
      vertex   -1.407201e+00 -9.042194e+00 2.250000e+00
      vertex   -5.365487e-01 -1.094253e+01 2.250000e+00
    endloop
  endfacet
  facet normal 0.000000e+00 0.000000e+00 1.000000e+00
    outer loop
      vertex   -5.365487e-01 -1.094253e+01 2.250000e+00
      vertex   -1.407201e+00 -9.042194e+00 2.250000e+00
      vertex   -1.822124e+00 -9.410444e+00 2.250000e+00
    endloop
  endfacet
  facet normal 0.000000e+00 0.000000e+00 1.000000e+00
    outer loop
      vertex   1.742966e+00 -2.125000e+00 2.250000e+00
      vertex   3.744139e+00 -2.125000e+00 2.250000e+00
      vertex   1.746874e+00 -2.000033e+00 2.250000e+00
    endloop
  endfacet
  facet normal -0.000000e+00 0.000000e+00 1.000000e+00
    outer loop
      vertex   1.746874e+00 -2.000033e+00 2.250000e+00
      vertex   3.744139e+00 -2.125000e+00 2.250000e+00
      vertex   3.747395e+00 -2.000023e+00 2.250000e+00
    endloop
  endfacet
  facet normal 0.000000e+00 0.000000e+00 1.000000e+00
    outer loop
      vertex   1.746874e+00 -2.000033e+00 2.250000e+00
      vertex   3.747395e+00 -2.000023e+00 2.250000e+00
      vertex   1.749218e+00 -1.875026e+00 2.250000e+00
    endloop
  endfacet
  facet normal -0.000000e+00 0.000000e+00 1.000000e+00
    outer loop
      vertex   1.749218e+00 -1.875026e+00 2.250000e+00
      vertex   3.747395e+00 -2.000023e+00 2.250000e+00
      vertex   3.749349e+00 -1.875018e+00 2.250000e+00
    endloop
  endfacet
  facet normal 0.000000e+00 0.000000e+00 1.000000e+00
    outer loop
      vertex   1.749218e+00 -1.875026e+00 2.250000e+00
      vertex   3.749349e+00 -1.875018e+00 2.250000e+00
      vertex   1.750000e+00 -1.750000e+00 2.250000e+00
    endloop
  endfacet
  facet normal -0.000000e+00 0.000000e+00 1.000000e+00
    outer loop
      vertex   1.750000e+00 -1.750000e+00 2.250000e+00
      vertex   3.749349e+00 -1.875018e+00 2.250000e+00
      vertex   3.750000e+00 -1.750000e+00 2.250000e+00
    endloop
  endfacet
  facet normal -0.000000e+00 0.000000e+00 -1.000000e+00
    outer loop
      vertex   3.335956e+00 -4.875000e+00 4.000000e+00
      vertex   3.176845e+00 -5.414316e+00 4.000000e+00
      vertex   1.249178e+00 -4.875000e+00 4.000000e+00
    endloop
  endfacet
  facet normal 0.000000e+00 0.000000e+00 -1.000000e+00
    outer loop
      vertex   1.249178e+00 -4.875000e+00 4.000000e+00
      vertex   3.176845e+00 -5.414316e+00 4.000000e+00
      vertex   2.992645e+00 -5.945586e+00 4.000000e+00
    endloop
  endfacet
  facet normal 0.000000e+00 -0.000000e+00 -1.000000e+00
    outer loop
      vertex   1.249178e+00 -4.875000e+00 4.000000e+00
      vertex   2.992645e+00 -5.945586e+00 4.000000e+00
      vertex   1.061261e+00 -5.396974e+00 4.000000e+00
    endloop
  endfacet
  facet normal 0.000000e+00 0.000000e+00 -1.000000e+00
    outer loop
      vertex   1.061261e+00 -5.396974e+00 4.000000e+00
      vertex   2.992645e+00 -5.945586e+00 4.000000e+00
      vertex   2.783759e+00 -6.467644e+00 4.000000e+00
    endloop
  endfacet
  facet normal 0.000000e+00 -0.000000e+00 -1.000000e+00
    outer loop
      vertex   1.061261e+00 -5.396974e+00 4.000000e+00
      vertex   2.783759e+00 -6.467644e+00 4.000000e+00
      vertex   8.446871e-01 -5.907724e+00 4.000000e+00
    endloop
  endfacet
  facet normal 0.000000e+00 0.000000e+00 -1.000000e+00
    outer loop
      vertex   8.446871e-01 -5.907724e+00 4.000000e+00
      vertex   2.783759e+00 -6.467644e+00 4.000000e+00
      vertex   2.550646e+00 -6.979344e+00 4.000000e+00
    endloop
  endfacet
  facet normal 0.000000e+00 0.000000e+00 -1.000000e+00
    outer loop
      vertex   8.446871e-01 -5.907724e+00 4.000000e+00
      vertex   2.550646e+00 -6.979344e+00 4.000000e+00
      vertex   2.293819e+00 -7.479562e+00 4.000000e+00
    endloop
  endfacet
  facet normal 0.000000e+00 -0.000000e+00 -1.000000e+00
    outer loop
      vertex   8.446871e-01 -5.907724e+00 4.000000e+00
      vertex   2.293819e+00 -7.479562e+00 4.000000e+00
      vertex   6.001226e-01 -6.405677e+00 4.000000e+00
    endloop
  endfacet
  facet normal 0.000000e+00 0.000000e+00 -1.000000e+00
    outer loop
      vertex   6.001226e-01 -6.405677e+00 4.000000e+00
      vertex   2.293819e+00 -7.479562e+00 4.000000e+00
      vertex   2.013841e+00 -7.967199e+00 4.000000e+00
    endloop
  endfacet
  facet normal 0.000000e+00 -0.000000e+00 -1.000000e+00
    outer loop
      vertex   6.001226e-01 -6.405677e+00 4.000000e+00
      vertex   2.013841e+00 -7.967199e+00 4.000000e+00
      vertex   3.283201e-01 -6.889302e+00 4.000000e+00
    endloop
  endfacet
  facet normal 0.000000e+00 0.000000e+00 -1.000000e+00
    outer loop
      vertex   3.283201e-01 -6.889302e+00 4.000000e+00
      vertex   2.013841e+00 -7.967199e+00 4.000000e+00
      vertex   1.711327e+00 -8.441186e+00 4.000000e+00
    endloop
  endfacet
  facet normal 0.000000e+00 -0.000000e+00 -1.000000e+00
    outer loop
      vertex   3.283201e-01 -6.889302e+00 4.000000e+00
      vertex   1.711327e+00 -8.441186e+00 4.000000e+00
      vertex   3.011618e-02 -7.357109e+00 4.000000e+00
    endloop
  endfacet
  facet normal 0.000000e+00 0.000000e+00 -1.000000e+00
    outer loop
      vertex   3.011618e-02 -7.357109e+00 4.000000e+00
      vertex   1.711327e+00 -8.441186e+00 4.000000e+00
      vertex   1.386941e+00 -8.900481e+00 4.000000e+00
    endloop
  endfacet
  facet normal 0.000000e+00 -0.000000e+00 -1.000000e+00
    outer loop
      vertex   3.011618e-02 -7.357109e+00 4.000000e+00
      vertex   1.386941e+00 -8.900481e+00 4.000000e+00
      vertex   -2.935714e-01 -7.807660e+00 4.000000e+00
    endloop
  endfacet
  facet normal 0.000000e+00 0.000000e+00 -1.000000e+00
    outer loop
      vertex   -2.935714e-01 -7.807660e+00 4.000000e+00
      vertex   1.386941e+00 -8.900481e+00 4.000000e+00
      vertex   1.041395e+00 -9.344075e+00 4.000000e+00
    endloop
  endfacet
  facet normal 0.000000e+00 -0.000000e+00 -1.000000e+00
    outer loop
      vertex   -2.935714e-01 -7.807660e+00 4.000000e+00
      vertex   1.041395e+00 -9.344075e+00 4.000000e+00
      vertex   -6.417465e-01 -8.239567e+00 4.000000e+00
    endloop
  endfacet
  facet normal 0.000000e+00 0.000000e+00 -1.000000e+00
    outer loop
      vertex   -6.417465e-01 -8.239567e+00 4.000000e+00
      vertex   1.041395e+00 -9.344075e+00 4.000000e+00
      vertex   6.754485e-01 -9.770996e+00 4.000000e+00
    endloop
  endfacet
  facet normal 0.000000e+00 0.000000e+00 -1.000000e+00
    outer loop
      vertex   -6.417465e-01 -8.239567e+00 4.000000e+00
      vertex   6.754485e-01 -9.770996e+00 4.000000e+00
      vertex   2.899044e-01 -1.018030e+01 4.000000e+00
    endloop
  endfacet
  facet normal 0.000000e+00 -0.000000e+00 -1.000000e+00
    outer loop
      vertex   -6.417465e-01 -8.239567e+00 4.000000e+00
      vertex   2.899044e-01 -1.018030e+01 4.000000e+00
      vertex   -1.013337e+00 -8.651501e+00 4.000000e+00
    endloop
  endfacet
  facet normal 0.000000e+00 0.000000e+00 -1.000000e+00
    outer loop
      vertex   -1.013337e+00 -8.651501e+00 4.000000e+00
      vertex   2.899044e-01 -1.018030e+01 4.000000e+00
      vertex   -1.143905e-01 -1.057110e+01 4.000000e+00
    endloop
  endfacet
  facet normal 0.000000e+00 -0.000000e+00 -1.000000e+00
    outer loop
      vertex   -1.013337e+00 -8.651501e+00 4.000000e+00
      vertex   -1.143905e-01 -1.057110e+01 4.000000e+00
      vertex   -1.407201e+00 -9.042194e+00 4.000000e+00
    endloop
  endfacet
  facet normal 0.000000e+00 0.000000e+00 -1.000000e+00
    outer loop
      vertex   -1.407201e+00 -9.042194e+00 4.000000e+00
      vertex   -1.143905e-01 -1.057110e+01 4.000000e+00
      vertex   -5.365487e-01 -1.094253e+01 4.000000e+00
    endloop
  endfacet
  facet normal 0.000000e+00 -0.000000e+00 -1.000000e+00
    outer loop
      vertex   -1.407201e+00 -9.042194e+00 4.000000e+00
      vertex   -5.365487e-01 -1.094253e+01 4.000000e+00
      vertex   -1.822124e+00 -9.410444e+00 4.000000e+00
    endloop
  endfacet
  facet normal -2.219145e-16 -3.546701e-15 -1.000000e+00
    outer loop
      vertex   1.742966e+00 -2.125000e+00 4.000000e+00
      vertex   1.746874e+00 -2.000033e+00 4.000000e+00
      vertex   3.744139e+00 -2.125000e+00 4.000000e+00
    endloop
  endfacet
  facet normal 0.000000e+00 0.000000e+00 -1.000000e+00
    outer loop
      vertex   3.744139e+00 -2.125000e+00 4.000000e+00
      vertex   1.746874e+00 -2.000033e+00 4.000000e+00
      vertex   3.747395e+00 -2.000023e+00 4.000000e+00
    endloop
  endfacet
  facet normal -0.000000e+00 0.000000e+00 -1.000000e+00
    outer loop
      vertex   3.747395e+00 -2.000023e+00 4.000000e+00
      vertex   1.746874e+00 -2.000033e+00 4.000000e+00
      vertex   1.749218e+00 -1.875026e+00 4.000000e+00
    endloop
  endfacet
  facet normal 0.000000e+00 0.000000e+00 -1.000000e+00
    outer loop
      vertex   3.747395e+00 -2.000023e+00 4.000000e+00
      vertex   1.749218e+00 -1.875026e+00 4.000000e+00
      vertex   3.749349e+00 -1.875018e+00 4.000000e+00
    endloop
  endfacet
  facet normal -0.000000e+00 0.000000e+00 -1.000000e+00
    outer loop
      vertex   3.749349e+00 -1.875018e+00 4.000000e+00
      vertex   1.749218e+00 -1.875026e+00 4.000000e+00
      vertex   1.750000e+00 -1.750000e+00 4.000000e+00
    endloop
  endfacet
  facet normal 0.000000e+00 0.000000e+00 -1.000000e+00
    outer loop
      vertex   3.749349e+00 -1.875018e+00 4.000000e+00
      vertex   1.750000e+00 -1.750000e+00 4.000000e+00
      vertex   3.750000e+00 -1.750000e+00 4.000000e+00
    endloop
  endfacet
  facet normal 9.408840e-01 -3.387290e-01 0.000000e+00
    outer loop
      vertex   1.249178e+00 -4.875000e+00 4.000000e+00
      vertex   1.061261e+00 -5.396974e+00 4.000000e+00
      vertex   1.249178e+00 -4.875000e+00 2.250000e+00
    endloop
  endfacet
  facet normal 9.408840e-01 -3.387290e-01 0.000000e+00
    outer loop
      vertex   1.249178e+00 -4.875000e+00 2.250000e+00
      vertex   1.061261e+00 -5.396974e+00 4.000000e+00
      vertex   1.061261e+00 -5.396974e+00 2.250000e+00
    endloop
  endfacet
  facet normal 9.206517e-01 -3.903851e-01 0.000000e+00
    outer loop
      vertex   1.061261e+00 -5.396974e+00 2.250000e+00
      vertex   1.061261e+00 -5.396974e+00 4.000000e+00
      vertex   8.446871e-01 -5.907724e+00 4.000000e+00
    endloop
  endfacet
  facet normal 9.206517e-01 -3.903851e-01 0.000000e+00
    outer loop
      vertex   1.061261e+00 -5.396974e+00 2.250000e+00
      vertex   8.446871e-01 -5.907724e+00 4.000000e+00
      vertex   8.446871e-01 -5.907724e+00 2.250000e+00
    endloop
  endfacet
  facet normal 8.975859e-01 -4.408397e-01 0.000000e+00
    outer loop
      vertex   8.446871e-01 -5.907724e+00 2.250000e+00
      vertex   8.446871e-01 -5.907724e+00 4.000000e+00
      vertex   6.001226e-01 -6.405677e+00 4.000000e+00
    endloop
  endfacet
  facet normal 8.975859e-01 -4.408397e-01 0.000000e+00
    outer loop
      vertex   8.446871e-01 -5.907724e+00 2.250000e+00
      vertex   6.001226e-01 -6.405677e+00 4.000000e+00
      vertex   6.001226e-01 -6.405677e+00 2.250000e+00
    endloop
  endfacet
  facet normal 8.717576e-01 -4.899375e-01 0.000000e+00
    outer loop
      vertex   6.001226e-01 -6.405677e+00 2.250000e+00
      vertex   6.001226e-01 -6.405677e+00 4.000000e+00
      vertex   3.283201e-01 -6.889302e+00 4.000000e+00
    endloop
  endfacet
  facet normal 8.717576e-01 -4.899375e-01 0.000000e+00
    outer loop
      vertex   6.001226e-01 -6.405677e+00 2.250000e+00
      vertex   3.283201e-01 -6.889302e+00 4.000000e+00
      vertex   3.283201e-01 -6.889302e+00 2.250000e+00
    endloop
  endfacet
  facet normal 8.432463e-01 -5.375274e-01 0.000000e+00
    outer loop
      vertex   3.283201e-01 -6.889302e+00 2.250000e+00
      vertex   3.283201e-01 -6.889302e+00 4.000000e+00
      vertex   3.011618e-02 -7.357109e+00 4.000000e+00
    endloop
  endfacet
  facet normal 8.432463e-01 -5.375274e-01 0.000000e+00
    outer loop
      vertex   3.283201e-01 -6.889302e+00 2.250000e+00
      vertex   3.011618e-02 -7.357109e+00 4.000000e+00
      vertex   3.011618e-02 -7.357109e+00 2.250000e+00
    endloop
  endfacet
  facet normal 8.121397e-01 -5.834630e-01 0.000000e+00
    outer loop
      vertex   3.011618e-02 -7.357109e+00 2.250000e+00
      vertex   3.011618e-02 -7.357109e+00 4.000000e+00
      vertex   -2.935714e-01 -7.807660e+00 4.000000e+00
    endloop
  endfacet
  facet normal 8.121397e-01 -5.834630e-01 2.858903e-16
    outer loop
      vertex   3.011618e-02 -7.357109e+00 2.250000e+00
      vertex   -2.935714e-01 -7.807660e+00 4.000000e+00
      vertex   -2.935714e-01 -7.807660e+00 2.250000e+00
    endloop
  endfacet
  facet normal 7.785337e-01 -6.276028e-01 3.185276e-16
    outer loop
      vertex   -2.935714e-01 -7.807660e+00 2.250000e+00
      vertex   -2.935714e-01 -7.807660e+00 4.000000e+00
      vertex   -6.417465e-01 -8.239567e+00 4.000000e+00
    endloop
  endfacet
  facet normal 7.785337e-01 -6.276028e-01 0.000000e+00
    outer loop
      vertex   -2.935714e-01 -7.807660e+00 2.250000e+00
      vertex   -6.417465e-01 -8.239567e+00 4.000000e+00
      vertex   -6.417465e-01 -8.239567e+00 2.250000e+00
    endloop
  endfacet
  facet normal 7.425315e-01 -6.698111e-01 0.000000e+00
    outer loop
      vertex   -6.417465e-01 -8.239567e+00 2.250000e+00
      vertex   -6.417465e-01 -8.239567e+00 4.000000e+00
      vertex   -1.013337e+00 -8.651501e+00 4.000000e+00
    endloop
  endfacet
  facet normal 7.425315e-01 -6.698111e-01 0.000000e+00
    outer loop
      vertex   -6.417465e-01 -8.239567e+00 2.250000e+00
      vertex   -1.013337e+00 -8.651501e+00 4.000000e+00
      vertex   -1.013337e+00 -8.651501e+00 2.250000e+00
    endloop
  endfacet
  facet normal 7.042441e-01 -7.099579e-01 0.000000e+00
    outer loop
      vertex   -1.013337e+00 -8.651501e+00 2.250000e+00
      vertex   -1.013337e+00 -8.651501e+00 4.000000e+00
      vertex   -1.407201e+00 -9.042194e+00 4.000000e+00
    endloop
  endfacet
  facet normal 7.042441e-01 -7.099579e-01 2.858903e-16
    outer loop
      vertex   -1.013337e+00 -8.651501e+00 2.250000e+00
      vertex   -1.407201e+00 -9.042194e+00 4.000000e+00
      vertex   -1.407201e+00 -9.042194e+00 2.250000e+00
    endloop
  endfacet
  facet normal 6.637892e-01 -7.479197e-01 3.380676e-16
    outer loop
      vertex   -1.407201e+00 -9.042194e+00 2.250000e+00
      vertex   -1.407201e+00 -9.042194e+00 4.000000e+00
      vertex   -1.822124e+00 -9.410444e+00 4.000000e+00
    endloop
  endfacet
  facet normal 6.637892e-01 -7.479197e-01 8.576709e-17
    outer loop
      vertex   -1.407201e+00 -9.042194e+00 2.250000e+00
      vertex   -1.822124e+00 -9.410444e+00 4.000000e+00
      vertex   -1.822124e+00 -9.410444e+00 2.250000e+00
    endloop
  endfacet
  facet normal 9.995115e-01 -3.125224e-02 -1.656599e-15
    outer loop
      vertex   1.742966e+00 -2.125000e+00 2.250000e+00
      vertex   1.746874e+00 -2.000033e+00 2.250000e+00
      vertex   1.742966e+00 -2.125000e+00 4.000000e+00
    endloop
  endfacet
  facet normal 9.995115e-01 -3.125224e-02 0.000000e+00
    outer loop
      vertex   1.742966e+00 -2.125000e+00 4.000000e+00
      vertex   1.746874e+00 -2.000033e+00 2.250000e+00
      vertex   1.746874e+00 -2.000033e+00 4.000000e+00
    endloop
  endfacet
  facet normal 9.998241e-01 -1.875330e-02 0.000000e+00
    outer loop
      vertex   1.746874e+00 -2.000033e+00 4.000000e+00
      vertex   1.746874e+00 -2.000033e+00 2.250000e+00
      vertex   1.749218e+00 -1.875026e+00 4.000000e+00
    endloop
  endfacet
  facet normal 9.998241e-01 -1.875330e-02 -2.379468e-18
    outer loop
      vertex   1.749218e+00 -1.875026e+00 4.000000e+00
      vertex   1.746874e+00 -2.000033e+00 2.250000e+00
      vertex   1.749218e+00 -1.875026e+00 2.250000e+00
    endloop
  endfacet
  facet normal 9.999805e-01 -6.251425e-03 -7.931973e-19
    outer loop
      vertex   1.749218e+00 -1.875026e+00 4.000000e+00
      vertex   1.749218e+00 -1.875026e+00 2.250000e+00
      vertex   1.750000e+00 -1.750000e+00 4.000000e+00
    endloop
  endfacet
  facet normal 9.999805e-01 -6.251425e-03 0.000000e+00
    outer loop
      vertex   1.750000e+00 -1.750000e+00 4.000000e+00
      vertex   1.749218e+00 -1.875026e+00 2.250000e+00
      vertex   1.750000e+00 -1.750000e+00 2.250000e+00
    endloop
  endfacet
  facet normal -0.000000e+00 -1.000000e+00 0.000000e+00
    outer loop
      vertex   -9.029732e-01 -1.125000e+01 2.250000e+00
      vertex   -4.924346e+00 -1.125000e+01 2.250000e+00
      vertex   -6.736938e+00 -1.125000e+01 0.000000e+00
    endloop
  endfacet
  facet normal 0.000000e+00 -1.000000e+00 0.000000e+00
    outer loop
      vertex   -6.736938e+00 -1.125000e+01 0.000000e+00
      vertex   -4.924346e+00 -1.125000e+01 2.250000e+00
      vertex   -4.924346e+00 -1.125000e+01 4.000000e+00
    endloop
  endfacet
  facet normal 0.000000e+00 -1.000000e+00 0.000000e+00
    outer loop
      vertex   -6.736938e+00 -1.125000e+01 0.000000e+00
      vertex   -4.924346e+00 -1.125000e+01 4.000000e+00
      vertex   -6.736938e+00 -1.125000e+01 7.500000e+00
    endloop
  endfacet
  facet normal 0.000000e+00 -1.000000e+00 0.000000e+00
    outer loop
      vertex   -6.736938e+00 -1.125000e+01 7.500000e+00
      vertex   -4.924346e+00 -1.125000e+01 4.000000e+00
      vertex   -9.029732e-01 -1.125000e+01 4.000000e+00
    endloop
  endfacet
  facet normal 0.000000e+00 -1.000000e+00 0.000000e+00
    outer loop
      vertex   -6.736938e+00 -1.125000e+01 7.500000e+00
      vertex   -9.029732e-01 -1.125000e+01 4.000000e+00
      vertex   2.250000e+00 -1.125000e+01 7.500000e+00
    endloop
  endfacet
  facet normal 0.000000e+00 -1.000000e+00 0.000000e+00
    outer loop
      vertex   2.250000e+00 -1.125000e+01 7.500000e+00
      vertex   -9.029732e-01 -1.125000e+01 4.000000e+00
      vertex   -2.785535e-01 -1.125000e+01 4.000000e+00
    endloop
  endfacet
  facet normal 0.000000e+00 -1.000000e+00 -0.000000e+00
    outer loop
      vertex   2.250000e+00 -1.125000e+01 7.500000e+00
      vertex   -2.785535e-01 -1.125000e+01 4.000000e+00
      vertex   2.250000e+00 -1.125000e+01 4.000000e+00
    endloop
  endfacet
  facet normal 0.000000e+00 -1.000000e+00 0.000000e+00
    outer loop
      vertex   -6.736938e+00 -1.125000e+01 0.000000e+00
      vertex   2.250000e+00 -1.125000e+01 0.000000e+00
      vertex   -9.029732e-01 -1.125000e+01 2.250000e+00
    endloop
  endfacet
  facet normal 0.000000e+00 -1.000000e+00 0.000000e+00
    outer loop
      vertex   -9.029732e-01 -1.125000e+01 2.250000e+00
      vertex   2.250000e+00 -1.125000e+01 0.000000e+00
      vertex   -2.785535e-01 -1.125000e+01 2.250000e+00
    endloop
  endfacet
  facet normal 0.000000e+00 -1.000000e+00 0.000000e+00
    outer loop
      vertex   -2.785535e-01 -1.125000e+01 2.250000e+00
      vertex   2.250000e+00 -1.125000e+01 0.000000e+00
      vertex   2.250000e+00 -1.125000e+01 2.250000e+00
    endloop
  endfacet
  facet normal -6.427876e-01 7.660444e-01 0.000000e+00
    outer loop
      vertex   -6.736938e+00 -1.125000e+01 7.500000e+00
      vertex   -2.947002e+00 -8.069867e+00 7.500000e+00
      vertex   -6.736938e+00 -1.125000e+01 0.000000e+00
    endloop
  endfacet
  facet normal -6.427876e-01 7.660444e-01 0.000000e+00
    outer loop
      vertex   -6.736938e+00 -1.125000e+01 0.000000e+00
      vertex   -2.947002e+00 -8.069867e+00 7.500000e+00
      vertex   -2.947002e+00 -8.069867e+00 0.000000e+00
    endloop
  endfacet
  facet normal -6.647959e-01 7.470251e-01 0.000000e+00
    outer loop
      vertex   -2.947002e+00 -8.069867e+00 7.500000e+00
      vertex   -2.588506e+00 -7.750833e+00 7.500000e+00
      vertex   -2.947002e+00 -8.069867e+00 0.000000e+00
    endloop
  endfacet
  facet normal -6.647959e-01 7.470251e-01 0.000000e+00
    outer loop
      vertex   -2.947002e+00 -8.069867e+00 0.000000e+00
      vertex   -2.588506e+00 -7.750833e+00 7.500000e+00
      vertex   -2.588506e+00 -7.750833e+00 0.000000e+00
    endloop
  endfacet
  facet normal -7.071068e-01 7.071068e-01 0.000000e+00
    outer loop
      vertex   -2.588506e+00 -7.750833e+00 0.000000e+00
      vertex   -2.588506e+00 -7.750833e+00 7.500000e+00
      vertex   -2.249167e+00 -7.411494e+00 7.500000e+00
    endloop
  endfacet
  facet normal -7.071068e-01 7.071068e-01 0.000000e+00
    outer loop
      vertex   -2.588506e+00 -7.750833e+00 0.000000e+00
      vertex   -2.249167e+00 -7.411494e+00 7.500000e+00
      vertex   -2.249167e+00 -7.411494e+00 0.000000e+00
    endloop
  endfacet
  facet normal -7.470251e-01 6.647959e-01 0.000000e+00
    outer loop
      vertex   -2.249167e+00 -7.411494e+00 0.000000e+00
      vertex   -2.249167e+00 -7.411494e+00 7.500000e+00
      vertex   -1.930133e+00 -7.052998e+00 7.500000e+00
    endloop
  endfacet
  facet normal -7.470251e-01 6.647959e-01 0.000000e+00
    outer loop
      vertex   -2.249167e+00 -7.411494e+00 0.000000e+00
      vertex   -1.930133e+00 -7.052998e+00 7.500000e+00
      vertex   -1.930133e+00 -7.052998e+00 0.000000e+00
    endloop
  endfacet
  facet normal -7.844157e-01 6.202355e-01 0.000000e+00
    outer loop
      vertex   -1.930133e+00 -7.052998e+00 0.000000e+00
      vertex   -1.930133e+00 -7.052998e+00 7.500000e+00
      vertex   -1.632484e+00 -6.676558e+00 7.500000e+00
    endloop
  endfacet
  facet normal -7.844157e-01 6.202355e-01 0.000000e+00
    outer loop
      vertex   -1.930133e+00 -7.052998e+00 0.000000e+00
      vertex   -1.632484e+00 -6.676558e+00 7.500000e+00
      vertex   -1.632484e+00 -6.676558e+00 0.000000e+00
    endloop
  endfacet
  facet normal -8.191520e-01 5.735764e-01 0.000000e+00
    outer loop
      vertex   -1.632484e+00 -6.676558e+00 0.000000e+00
      vertex   -1.632484e+00 -6.676558e+00 7.500000e+00
      vertex   -1.357226e+00 -6.283449e+00 7.500000e+00
    endloop
  endfacet
  facet normal -8.191520e-01 5.735764e-01 0.000000e+00
    outer loop
      vertex   -1.632484e+00 -6.676558e+00 0.000000e+00
      vertex   -1.357226e+00 -6.283449e+00 7.500000e+00
      vertex   -1.357226e+00 -6.283449e+00 0.000000e+00
    endloop
  endfacet
  facet normal -8.511167e-01 5.249766e-01 0.000000e+00
    outer loop
      vertex   -1.357226e+00 -6.283449e+00 0.000000e+00
      vertex   -1.357226e+00 -6.283449e+00 7.500000e+00
      vertex   -1.105290e+00 -5.875000e+00 7.500000e+00
    endloop
  endfacet
  facet normal -8.511167e-01 5.249766e-01 0.000000e+00
    outer loop
      vertex   -1.357226e+00 -6.283449e+00 0.000000e+00
      vertex   -1.105290e+00 -5.875000e+00 7.500000e+00
      vertex   -1.105290e+00 -5.875000e+00 0.000000e+00
    endloop
  endfacet
  facet normal -8.802014e-01 4.746004e-01 0.000000e+00
    outer loop
      vertex   -1.105290e+00 -5.875000e+00 0.000000e+00
      vertex   -1.105290e+00 -5.875000e+00 7.500000e+00
      vertex   -8.775307e-01 -5.452593e+00 7.500000e+00
    endloop
  endfacet
  facet normal -8.802014e-01 4.746004e-01 0.000000e+00
    outer loop
      vertex   -1.105290e+00 -5.875000e+00 0.000000e+00
      vertex   -8.775307e-01 -5.452593e+00 7.500000e+00
      vertex   -8.775307e-01 -5.452593e+00 0.000000e+00
    endloop
  endfacet
  facet normal -9.063078e-01 4.226183e-01 0.000000e+00
    outer loop
      vertex   -8.775307e-01 -5.452593e+00 0.000000e+00
      vertex   -8.775307e-01 -5.452593e+00 7.500000e+00
      vertex   -6.747171e-01 -5.017658e+00 7.500000e+00
    endloop
  endfacet
  facet normal -9.063078e-01 4.226183e-01 0.000000e+00
    outer loop
      vertex   -8.775307e-01 -5.452593e+00 0.000000e+00
      vertex   -6.747171e-01 -5.017658e+00 7.500000e+00
      vertex   -6.747171e-01 -5.017658e+00 0.000000e+00
    endloop
  endfacet
  facet normal -9.293475e-01 3.692061e-01 0.000000e+00
    outer loop
      vertex   -6.747171e-01 -5.017658e+00 0.000000e+00
      vertex   -6.747171e-01 -5.017658e+00 7.500000e+00
      vertex   -4.975359e-01 -4.571666e+00 7.500000e+00
    endloop
  endfacet
  facet normal -9.293475e-01 3.692061e-01 0.000000e+00
    outer loop
      vertex   -6.747171e-01 -5.017658e+00 0.000000e+00
      vertex   -4.975359e-01 -4.571666e+00 7.500000e+00
      vertex   -4.975359e-01 -4.571666e+00 0.000000e+00
    endloop
  endfacet
  facet normal -9.492426e-01 3.145448e-01 0.000000e+00
    outer loop
      vertex   -4.975359e-01 -4.571666e+00 0.000000e+00
      vertex   -4.975359e-01 -4.571666e+00 7.500000e+00
      vertex   -3.465865e-01 -4.116127e+00 7.500000e+00
    endloop
  endfacet
  facet normal -9.492426e-01 3.145448e-01 0.000000e+00
    outer loop
      vertex   -4.975359e-01 -4.571666e+00 0.000000e+00
      vertex   -3.465865e-01 -4.116127e+00 7.500000e+00
      vertex   -3.465865e-01 -4.116127e+00 0.000000e+00
    endloop
  endfacet
  facet normal -9.659258e-01 2.588190e-01 0.000000e+00
    outer loop
      vertex   -3.465865e-01 -4.116127e+00 0.000000e+00
      vertex   -3.465865e-01 -4.116127e+00 7.500000e+00
      vertex   -2.223798e-01 -3.652581e+00 7.500000e+00
    endloop
  endfacet
  facet normal -9.659258e-01 2.588190e-01 0.000000e+00
    outer loop
      vertex   -3.465865e-01 -4.116127e+00 0.000000e+00
      vertex   -2.223798e-01 -3.652581e+00 7.500000e+00
      vertex   -2.223798e-01 -3.652581e+00 0.000000e+00
    endloop
  endfacet
  facet normal -9.793406e-01 2.022176e-01 0.000000e+00
    outer loop
      vertex   -2.223798e-01 -3.652581e+00 0.000000e+00
      vertex   -2.223798e-01 -3.652581e+00 7.500000e+00
      vertex   -1.253360e-01 -3.182597e+00 7.500000e+00
    endloop
  endfacet
  facet normal -9.793406e-01 2.022176e-01 0.000000e+00
    outer loop
      vertex   -2.223798e-01 -3.652581e+00 0.000000e+00
      vertex   -1.253360e-01 -3.182597e+00 7.500000e+00
      vertex   -1.253360e-01 -3.182597e+00 0.000000e+00
    endloop
  endfacet
  facet normal -9.894416e-01 1.449319e-01 0.000000e+00
    outer loop
      vertex   -1.253360e-01 -3.182597e+00 0.000000e+00
      vertex   -1.253360e-01 -3.182597e+00 7.500000e+00
      vertex   -5.578355e-02 -2.707767e+00 7.500000e+00
    endloop
  endfacet
  facet normal -9.894416e-01 1.449319e-01 0.000000e+00
    outer loop
      vertex   -1.253360e-01 -3.182597e+00 0.000000e+00
      vertex   -5.578355e-02 -2.707767e+00 7.500000e+00
      vertex   -5.578355e-02 -2.707767e+00 0.000000e+00
    endloop
  endfacet
  facet normal -9.961947e-01 8.715574e-02 0.000000e+00
    outer loop
      vertex   -5.578355e-02 -2.707767e+00 0.000000e+00
      vertex   -5.578355e-02 -2.707767e+00 7.500000e+00
      vertex   -1.395769e-02 -2.229695e+00 7.500000e+00
    endloop
  endfacet
  facet normal -9.961947e-01 8.715574e-02 0.000000e+00
    outer loop
      vertex   -5.578355e-02 -2.707767e+00 0.000000e+00
      vertex   -1.395769e-02 -2.229695e+00 7.500000e+00
      vertex   -1.395769e-02 -2.229695e+00 0.000000e+00
    endloop
  endfacet
  facet normal -9.995770e-01 2.908472e-02 0.000000e+00
    outer loop
      vertex   -1.395769e-02 -2.229695e+00 0.000000e+00
      vertex   -1.395769e-02 -2.229695e+00 7.500000e+00
      vertex   0.000000e+00 -1.750000e+00 0.000000e+00
    endloop
  endfacet
  facet normal -9.995770e-01 2.908472e-02 0.000000e+00
    outer loop
      vertex   0.000000e+00 -1.750000e+00 0.000000e+00
      vertex   -1.395769e-02 -2.229695e+00 7.500000e+00
      vertex   0.000000e+00 -1.750000e+00 7.500000e+00
    endloop
  endfacet
  facet normal 0.000000e+00 -0.000000e+00 -1.000000e+00
    outer loop
      vertex   6.117111e-16 9.402962e+00 0.000000e+00
      vertex   3.750000e+00 9.402962e+00 0.000000e+00
      vertex   0.000000e+00 -1.750000e+00 0.000000e+00
    endloop
  endfacet
  facet normal 0.000000e+00 0.000000e+00 -1.000000e+00
    outer loop
      vertex   0.000000e+00 -1.750000e+00 0.000000e+00
      vertex   3.750000e+00 9.402962e+00 0.000000e+00
      vertex   3.750000e+00 -9.750000e+00 0.000000e+00
    endloop
  endfacet
  facet normal 0.000000e+00 -0.000000e+00 -1.000000e+00
    outer loop
      vertex   0.000000e+00 -1.750000e+00 0.000000e+00
      vertex   3.750000e+00 -9.750000e+00 0.000000e+00
      vertex   -1.395769e-02 -2.229695e+00 0.000000e+00
    endloop
  endfacet
  facet normal 0.000000e+00 -0.000000e+00 -1.000000e+00
    outer loop
      vertex   -1.395769e-02 -2.229695e+00 0.000000e+00
      vertex   3.750000e+00 -9.750000e+00 0.000000e+00
      vertex   -5.578355e-02 -2.707767e+00 0.000000e+00
    endloop
  endfacet
  facet normal 0.000000e+00 -0.000000e+00 -1.000000e+00
    outer loop
      vertex   -5.578355e-02 -2.707767e+00 0.000000e+00
      vertex   3.750000e+00 -9.750000e+00 0.000000e+00
      vertex   -1.253360e-01 -3.182597e+00 0.000000e+00
    endloop
  endfacet
  facet normal 0.000000e+00 -0.000000e+00 -1.000000e+00
    outer loop
      vertex   -1.253360e-01 -3.182597e+00 0.000000e+00
      vertex   3.750000e+00 -9.750000e+00 0.000000e+00
      vertex   -2.223798e-01 -3.652581e+00 0.000000e+00
    endloop
  endfacet
  facet normal 0.000000e+00 -0.000000e+00 -1.000000e+00
    outer loop
      vertex   -2.223798e-01 -3.652581e+00 0.000000e+00
      vertex   3.750000e+00 -9.750000e+00 0.000000e+00
      vertex   -3.465865e-01 -4.116127e+00 0.000000e+00
    endloop
  endfacet
  facet normal 0.000000e+00 0.000000e+00 -1.000000e+00
    outer loop
      vertex   -3.465865e-01 -4.116127e+00 0.000000e+00
      vertex   3.750000e+00 -9.750000e+00 0.000000e+00
      vertex   2.250000e+00 -1.125000e+01 0.000000e+00
    endloop
  endfacet
  facet normal 0.000000e+00 -0.000000e+00 -1.000000e+00
    outer loop
      vertex   -3.465865e-01 -4.116127e+00 0.000000e+00
      vertex   2.250000e+00 -1.125000e+01 0.000000e+00
      vertex   -4.975359e-01 -4.571666e+00 0.000000e+00
    endloop
  endfacet
  facet normal 0.000000e+00 -0.000000e+00 -1.000000e+00
    outer loop
      vertex   -4.975359e-01 -4.571666e+00 0.000000e+00
      vertex   2.250000e+00 -1.125000e+01 0.000000e+00
      vertex   -6.747171e-01 -5.017658e+00 0.000000e+00
    endloop
  endfacet
  facet normal 0.000000e+00 -0.000000e+00 -1.000000e+00
    outer loop
      vertex   -6.747171e-01 -5.017658e+00 0.000000e+00
      vertex   2.250000e+00 -1.125000e+01 0.000000e+00
      vertex   -8.775307e-01 -5.452593e+00 0.000000e+00
    endloop
  endfacet
  facet normal 0.000000e+00 -0.000000e+00 -1.000000e+00
    outer loop
      vertex   -8.775307e-01 -5.452593e+00 0.000000e+00
      vertex   2.250000e+00 -1.125000e+01 0.000000e+00
      vertex   -1.105290e+00 -5.875000e+00 0.000000e+00
    endloop
  endfacet
  facet normal 0.000000e+00 -0.000000e+00 -1.000000e+00
    outer loop
      vertex   -1.105290e+00 -5.875000e+00 0.000000e+00
      vertex   2.250000e+00 -1.125000e+01 0.000000e+00
      vertex   -1.357226e+00 -6.283449e+00 0.000000e+00
    endloop
  endfacet
  facet normal 0.000000e+00 -0.000000e+00 -1.000000e+00
    outer loop
      vertex   -1.357226e+00 -6.283449e+00 0.000000e+00
      vertex   2.250000e+00 -1.125000e+01 0.000000e+00
      vertex   -1.632484e+00 -6.676558e+00 0.000000e+00
    endloop
  endfacet
  facet normal 0.000000e+00 -0.000000e+00 -1.000000e+00
    outer loop
      vertex   -1.632484e+00 -6.676558e+00 0.000000e+00
      vertex   2.250000e+00 -1.125000e+01 0.000000e+00
      vertex   -1.930133e+00 -7.052998e+00 0.000000e+00
    endloop
  endfacet
  facet normal 0.000000e+00 -0.000000e+00 -1.000000e+00
    outer loop
      vertex   -1.930133e+00 -7.052998e+00 0.000000e+00
      vertex   2.250000e+00 -1.125000e+01 0.000000e+00
      vertex   -2.249167e+00 -7.411494e+00 0.000000e+00
    endloop
  endfacet
  facet normal 0.000000e+00 -0.000000e+00 -1.000000e+00
    outer loop
      vertex   -2.249167e+00 -7.411494e+00 0.000000e+00
      vertex   2.250000e+00 -1.125000e+01 0.000000e+00
      vertex   -2.588506e+00 -7.750833e+00 0.000000e+00
    endloop
  endfacet
  facet normal 0.000000e+00 -0.000000e+00 -1.000000e+00
    outer loop
      vertex   -2.588506e+00 -7.750833e+00 0.000000e+00
      vertex   2.250000e+00 -1.125000e+01 0.000000e+00
      vertex   -2.947002e+00 -8.069867e+00 0.000000e+00
    endloop
  endfacet
  facet normal 0.000000e+00 -0.000000e+00 -1.000000e+00
    outer loop
      vertex   -2.947002e+00 -8.069867e+00 0.000000e+00
      vertex   2.250000e+00 -1.125000e+01 0.000000e+00
      vertex   -6.736938e+00 -1.125000e+01 0.000000e+00
    endloop
  endfacet
  facet normal -0.000000e+00 0.000000e+00 -1.000000e+00
    outer loop
      vertex   3.734732e+00 -9.963472e+00 0.000000e+00
      vertex   3.689239e+00 -1.017260e+01 0.000000e+00
      vertex   3.750000e+00 -9.750000e+00 0.000000e+00
    endloop
  endfacet
  facet normal 0.000000e+00 0.000000e+00 -1.000000e+00
    outer loop
      vertex   3.750000e+00 -9.750000e+00 0.000000e+00
      vertex   3.689239e+00 -1.017260e+01 0.000000e+00
      vertex   3.614448e+00 -1.037312e+01 0.000000e+00
    endloop
  endfacet
  facet normal 0.000000e+00 0.000000e+00 -1.000000e+00
    outer loop
      vertex   3.750000e+00 -9.750000e+00 0.000000e+00
      vertex   3.614448e+00 -1.037312e+01 0.000000e+00
      vertex   3.511880e+00 -1.056096e+01 0.000000e+00
    endloop
  endfacet
  facet normal -0.000000e+00 0.000000e+00 -1.000000e+00
    outer loop
      vertex   3.511880e+00 -1.056096e+01 0.000000e+00
      vertex   3.383624e+00 -1.073229e+01 0.000000e+00
      vertex   3.750000e+00 -9.750000e+00 0.000000e+00
    endloop
  endfacet
  facet normal 0.000000e+00 0.000000e+00 -1.000000e+00
    outer loop
      vertex   3.750000e+00 -9.750000e+00 0.000000e+00
      vertex   3.383624e+00 -1.073229e+01 0.000000e+00
      vertex   3.232291e+00 -1.088362e+01 0.000000e+00
    endloop
  endfacet
  facet normal 0.000000e+00 0.000000e+00 -1.000000e+00
    outer loop
      vertex   3.750000e+00 -9.750000e+00 0.000000e+00
      vertex   3.232291e+00 -1.088362e+01 0.000000e+00
      vertex   3.060961e+00 -1.101188e+01 0.000000e+00
    endloop
  endfacet
  facet normal -0.000000e+00 0.000000e+00 -1.000000e+00
    outer loop
      vertex   3.060961e+00 -1.101188e+01 0.000000e+00
      vertex   2.873123e+00 -1.111445e+01 0.000000e+00
      vertex   3.750000e+00 -9.750000e+00 0.000000e+00
    endloop
  endfacet
  facet normal 0.000000e+00 0.000000e+00 -1.000000e+00
    outer loop
      vertex   3.750000e+00 -9.750000e+00 0.000000e+00
      vertex   2.873123e+00 -1.111445e+01 0.000000e+00
      vertex   2.672599e+00 -1.118924e+01 0.000000e+00
    endloop
  endfacet
  facet normal 0.000000e+00 0.000000e+00 -1.000000e+00
    outer loop
      vertex   3.750000e+00 -9.750000e+00 0.000000e+00
      vertex   2.672599e+00 -1.118924e+01 0.000000e+00
      vertex   2.463472e+00 -1.123473e+01 0.000000e+00
    endloop
  endfacet
  facet normal -0.000000e+00 0.000000e+00 -1.000000e+00
    outer loop
      vertex   2.463472e+00 -1.123473e+01 0.000000e+00
      vertex   2.250000e+00 -1.125000e+01 0.000000e+00
      vertex   3.750000e+00 -9.750000e+00 0.000000e+00
    endloop
  endfacet
  facet normal 0.000000e+00 0.000000e+00 1.000000e+00
    outer loop
      vertex   -5.365487e-01 -1.094253e+01 2.250000e+00
      vertex   -3.317377e+00 -1.066511e+01 2.250000e+00
      vertex   -9.029732e-01 -1.125000e+01 2.250000e+00
    endloop
  endfacet
  facet normal 0.000000e+00 0.000000e+00 1.000000e+00
    outer loop
      vertex   -9.029732e-01 -1.125000e+01 2.250000e+00
      vertex   -3.317377e+00 -1.066511e+01 2.250000e+00
      vertex   -3.516046e+00 -1.081560e+01 2.250000e+00
    endloop
  endfacet
  facet normal 0.000000e+00 0.000000e+00 1.000000e+00
    outer loop
      vertex   -9.029732e-01 -1.125000e+01 2.250000e+00
      vertex   -3.516046e+00 -1.081560e+01 2.250000e+00
      vertex   -3.728712e+00 -1.094555e+01 2.250000e+00
    endloop
  endfacet
  facet normal 0.000000e+00 0.000000e+00 1.000000e+00
    outer loop
      vertex   -5.365487e-01 -1.094253e+01 2.250000e+00
      vertex   -1.822124e+00 -9.410444e+00 2.250000e+00
      vertex   -3.317377e+00 -1.066511e+01 2.250000e+00
    endloop
  endfacet
  facet normal 0.000000e+00 0.000000e+00 1.000000e+00
    outer loop
      vertex   -3.728712e+00 -1.094555e+01 2.250000e+00
      vertex   -3.953259e+00 -1.105369e+01 2.250000e+00
      vertex   -9.029732e-01 -1.125000e+01 2.250000e+00
    endloop
  endfacet
  facet normal 0.000000e+00 0.000000e+00 1.000000e+00
    outer loop
      vertex   -9.029732e-01 -1.125000e+01 2.250000e+00
      vertex   -3.953259e+00 -1.105369e+01 2.250000e+00
      vertex   -4.187459e+00 -1.113893e+01 2.250000e+00
    endloop
  endfacet
  facet normal 0.000000e+00 0.000000e+00 1.000000e+00
    outer loop
      vertex   -9.029732e-01 -1.125000e+01 2.250000e+00
      vertex   -4.187459e+00 -1.113893e+01 2.250000e+00
      vertex   -4.428981e+00 -1.120043e+01 2.250000e+00
    endloop
  endfacet
  facet normal 0.000000e+00 0.000000e+00 1.000000e+00
    outer loop
      vertex   -4.428981e+00 -1.120043e+01 2.250000e+00
      vertex   -4.675427e+00 -1.123758e+01 2.250000e+00
      vertex   -9.029732e-01 -1.125000e+01 2.250000e+00
    endloop
  endfacet
  facet normal 0.000000e+00 0.000000e+00 1.000000e+00
    outer loop
      vertex   -9.029732e-01 -1.125000e+01 2.250000e+00
      vertex   -4.675427e+00 -1.123758e+01 2.250000e+00
      vertex   -4.924346e+00 -1.125000e+01 2.250000e+00
    endloop
  endfacet
  facet normal 2.133609e-15 -2.542736e-15 1.000000e+00
    outer loop
      vertex   -2.785535e-01 -1.125000e+01 2.250000e+00
      vertex   -5.365487e-01 -1.094253e+01 2.250000e+00
      vertex   -9.029732e-01 -1.125000e+01 2.250000e+00
    endloop
  endfacet
  facet normal 0.000000e+00 -1.444349e-15 -1.000000e+00
    outer loop
      vertex   -9.029732e-01 -1.125000e+01 4.000000e+00
      vertex   -5.365487e-01 -1.094253e+01 4.000000e+00
      vertex   -2.785535e-01 -1.125000e+01 4.000000e+00
    endloop
  endfacet
  facet normal 0.000000e+00 -0.000000e+00 -1.000000e+00
    outer loop
      vertex   -1.822124e+00 -9.410444e+00 4.000000e+00
      vertex   -5.365487e-01 -1.094253e+01 4.000000e+00
      vertex   -3.317377e+00 -1.066511e+01 4.000000e+00
    endloop
  endfacet
  facet normal -1.287807e-16 -1.290874e-15 -1.000000e+00
    outer loop
      vertex   -3.317377e+00 -1.066511e+01 4.000000e+00
      vertex   -5.365487e-01 -1.094253e+01 4.000000e+00
      vertex   -9.029732e-01 -1.125000e+01 4.000000e+00
    endloop
  endfacet
  facet normal -4.022951e-16 -2.419933e-15 -1.000000e+00
    outer loop
      vertex   -3.317377e+00 -1.066511e+01 4.000000e+00
      vertex   -9.029732e-01 -1.125000e+01 4.000000e+00
      vertex   -3.516046e+00 -1.081560e+01 4.000000e+00
    endloop
  endfacet
  facet normal 0.000000e+00 -0.000000e+00 -1.000000e+00
    outer loop
      vertex   -3.516046e+00 -1.081560e+01 4.000000e+00
      vertex   -9.029732e-01 -1.125000e+01 4.000000e+00
      vertex   -3.728712e+00 -1.094555e+01 4.000000e+00
    endloop
  endfacet
  facet normal 0.000000e+00 -0.000000e+00 -1.000000e+00
    outer loop
      vertex   -3.728712e+00 -1.094555e+01 4.000000e+00
      vertex   -9.029732e-01 -1.125000e+01 4.000000e+00
      vertex   -3.953259e+00 -1.105369e+01 4.000000e+00
    endloop
  endfacet
  facet normal 0.000000e+00 -0.000000e+00 -1.000000e+00
    outer loop
      vertex   -3.953259e+00 -1.105369e+01 4.000000e+00
      vertex   -9.029732e-01 -1.125000e+01 4.000000e+00
      vertex   -4.187459e+00 -1.113893e+01 4.000000e+00
    endloop
  endfacet
  facet normal 0.000000e+00 -0.000000e+00 -1.000000e+00
    outer loop
      vertex   -4.187459e+00 -1.113893e+01 4.000000e+00
      vertex   -9.029732e-01 -1.125000e+01 4.000000e+00
      vertex   -4.428981e+00 -1.120043e+01 4.000000e+00
    endloop
  endfacet
  facet normal 0.000000e+00 -0.000000e+00 -1.000000e+00
    outer loop
      vertex   -4.428981e+00 -1.120043e+01 4.000000e+00
      vertex   -9.029732e-01 -1.125000e+01 4.000000e+00
      vertex   -4.675427e+00 -1.123758e+01 4.000000e+00
    endloop
  endfacet
  facet normal 0.000000e+00 -0.000000e+00 -1.000000e+00
    outer loop
      vertex   -4.675427e+00 -1.123758e+01 4.000000e+00
      vertex   -9.029732e-01 -1.125000e+01 4.000000e+00
      vertex   -4.924346e+00 -1.125000e+01 4.000000e+00
    endloop
  endfacet
  facet normal 6.427876e-01 -7.660444e-01 8.155858e-17
    outer loop
      vertex   -1.822124e+00 -9.410444e+00 4.000000e+00
      vertex   -3.317377e+00 -1.066511e+01 4.000000e+00
      vertex   -1.822124e+00 -9.410444e+00 2.250000e+00
    endloop
  endfacet
  facet normal 6.427876e-01 -7.660444e-01 3.250209e-16
    outer loop
      vertex   -1.822124e+00 -9.410444e+00 2.250000e+00
      vertex   -3.317377e+00 -1.066511e+01 4.000000e+00
      vertex   -3.317377e+00 -1.066511e+01 2.250000e+00
    endloop
  endfacet
  facet normal 0.000000e+00 0.000000e+00 1.000000e+00
    outer loop
      vertex   3.750000e+00 9.317491e+00 2.250000e+00
      vertex   1.750000e+00 9.317491e+00 2.250000e+00
      vertex   3.750000e+00 -1.750000e+00 2.250000e+00
    endloop
  endfacet
  facet normal 0.000000e+00 0.000000e+00 1.000000e+00
    outer loop
      vertex   3.750000e+00 -1.750000e+00 2.250000e+00
      vertex   1.750000e+00 9.317491e+00 2.250000e+00
      vertex   1.750000e+00 -1.750000e+00 2.250000e+00
    endloop
  endfacet
  facet normal -2.145130e-15 -1.000000e+00 0.000000e+00
    outer loop
      vertex   3.750000e+00 -4.875000e+00 2.250000e+00
      vertex   3.750000e+00 -4.875000e+00 4.000000e+00
      vertex   3.335956e+00 -4.875000e+00 2.250000e+00
    endloop
  endfacet
  facet normal 5.443595e-31 -1.000000e+00 -5.075305e-16
    outer loop
      vertex   3.335956e+00 -4.875000e+00 2.250000e+00
      vertex   3.750000e+00 -4.875000e+00 4.000000e+00
      vertex   3.335956e+00 -4.875000e+00 4.000000e+00
    endloop
  endfacet
  facet normal 4.256218e-16 -1.000000e+00 -5.075305e-16
    outer loop
      vertex   3.335956e+00 -4.875000e+00 2.250000e+00
      vertex   3.335956e+00 -4.875000e+00 4.000000e+00
      vertex   1.249178e+00 -4.875000e+00 2.250000e+00
    endloop
  endfacet
  facet normal 0.000000e+00 -1.000000e+00 0.000000e+00
    outer loop
      vertex   1.249178e+00 -4.875000e+00 2.250000e+00
      vertex   3.335956e+00 -4.875000e+00 4.000000e+00
      vertex   1.249178e+00 -4.875000e+00 4.000000e+00
    endloop
  endfacet
  facet normal 0.000000e+00 1.000000e+00 0.000000e+00
    outer loop
      vertex   3.750000e+00 -2.125000e+00 4.000000e+00
      vertex   3.750000e+00 -2.125000e+00 2.250000e+00
      vertex   3.744139e+00 -2.125000e+00 4.000000e+00
    endloop
  endfacet
  facet normal 1.515454e-13 1.000000e+00 5.075305e-16
    outer loop
      vertex   3.744139e+00 -2.125000e+00 4.000000e+00
      vertex   3.750000e+00 -2.125000e+00 2.250000e+00
      vertex   3.744139e+00 -2.125000e+00 2.250000e+00
    endloop
  endfacet
  facet normal 2.219145e-16 1.000000e+00 5.075305e-16
    outer loop
      vertex   3.744139e+00 -2.125000e+00 4.000000e+00
      vertex   3.744139e+00 -2.125000e+00 2.250000e+00
      vertex   1.742966e+00 -2.125000e+00 4.000000e+00
    endloop
  endfacet
  facet normal 0.000000e+00 1.000000e+00 2.537653e-16
    outer loop
      vertex   1.742966e+00 -2.125000e+00 4.000000e+00
      vertex   3.744139e+00 -2.125000e+00 2.250000e+00
      vertex   1.742966e+00 -2.125000e+00 2.250000e+00
    endloop
  endfacet
  facet normal -5.383174e-16 7.071068e-01 7.071068e-01
    outer loop
      vertex   1.750000e+00 8.817175e+00 3.085786e+00
      vertex   -1.323047e-30 8.817175e+00 3.085786e+00
      vertex   1.750000e+00 7.902962e+00 4.000000e+00
    endloop
  endfacet
  facet normal 3.658528e-16 7.071068e-01 7.071068e-01
    outer loop
      vertex   1.750000e+00 7.902962e+00 4.000000e+00
      vertex   -1.323047e-30 8.817175e+00 3.085786e+00
      vertex   0.000000e+00 4.402962e+00 7.500000e+00
    endloop
  endfacet
  facet normal 9.570087e-17 7.071068e-01 7.071068e-01
    outer loop
      vertex   1.750000e+00 7.902962e+00 4.000000e+00
      vertex   0.000000e+00 4.402962e+00 7.500000e+00
      vertex   3.750000e+00 4.402962e+00 7.500000e+00
    endloop
  endfacet
  facet normal 0.000000e+00 7.071068e-01 7.071068e-01
    outer loop
      vertex   3.750000e+00 4.402962e+00 7.500000e+00
      vertex   3.750000e+00 7.902962e+00 4.000000e+00
      vertex   1.750000e+00 7.902962e+00 4.000000e+00
    endloop
  endfacet
  facet normal 7.133918e-02 -9.974521e-01 0.000000e+00
    outer loop
      vertex   2.250000e+00 -1.125000e+01 7.500000e+00
      vertex   2.250000e+00 -1.125000e+01 4.000000e+00
      vertex   2.463472e+00 -1.123473e+01 7.500000e+00
    endloop
  endfacet
  facet normal 7.133918e-02 -9.974521e-01 5.062374e-16
    outer loop
      vertex   2.463472e+00 -1.123473e+01 7.500000e+00
      vertex   2.250000e+00 -1.125000e+01 4.000000e+00
      vertex   2.463472e+00 -1.123473e+01 4.000000e+00
    endloop
  endfacet
  facet normal 2.125653e-01 -9.771469e-01 4.959319e-16
    outer loop
      vertex   2.463472e+00 -1.123473e+01 7.500000e+00
      vertex   2.463472e+00 -1.123473e+01 4.000000e+00
      vertex   2.672599e+00 -1.118924e+01 7.500000e+00
    endloop
  endfacet
  facet normal 2.125653e-01 -9.771469e-01 -2.697084e-17
    outer loop
      vertex   2.672599e+00 -1.118924e+01 7.500000e+00
      vertex   2.463472e+00 -1.123473e+01 4.000000e+00
      vertex   2.672599e+00 -1.118924e+01 4.000000e+00
    endloop
  endfacet
  facet normal 3.494642e-01 -9.369497e-01 -4.434093e-17
    outer loop
      vertex   2.672599e+00 -1.118924e+01 7.500000e+00
      vertex   2.672599e+00 -1.118924e+01 4.000000e+00
      vertex   2.873123e+00 -1.111445e+01 7.500000e+00
    endloop
  endfacet
  facet normal 3.494642e-01 -9.369497e-01 -8.868187e-17
    outer loop
      vertex   2.873123e+00 -1.111445e+01 7.500000e+00
      vertex   2.672599e+00 -1.118924e+01 4.000000e+00
      vertex   2.873123e+00 -1.111445e+01 4.000000e+00
    endloop
  endfacet
  facet normal 4.792490e-01 -8.776790e-01 -1.216167e-16
    outer loop
      vertex   2.873123e+00 -1.111445e+01 7.500000e+00
      vertex   2.873123e+00 -1.111445e+01 4.000000e+00
      vertex   3.060961e+00 -1.101188e+01 7.500000e+00
    endloop
  endfacet
  facet normal 4.792490e-01 -8.776790e-01 0.000000e+00
    outer loop
      vertex   3.060961e+00 -1.101188e+01 7.500000e+00
      vertex   2.873123e+00 -1.111445e+01 4.000000e+00
      vertex   3.060961e+00 -1.101188e+01 4.000000e+00
    endloop
  endfacet
  facet normal 5.992777e-01 -8.005412e-01 0.000000e+00
    outer loop
      vertex   3.060961e+00 -1.101188e+01 7.500000e+00
      vertex   3.060961e+00 -1.101188e+01 4.000000e+00
      vertex   3.232291e+00 -1.088362e+01 7.500000e+00
    endloop
  endfacet
  facet normal 5.992777e-01 -8.005412e-01 0.000000e+00
    outer loop
      vertex   3.232291e+00 -1.088362e+01 7.500000e+00
      vertex   3.060961e+00 -1.101188e+01 4.000000e+00
      vertex   3.232291e+00 -1.088362e+01 4.000000e+00
    endloop
  endfacet
  facet normal 7.071068e-01 -7.071068e-01 0.000000e+00
    outer loop
      vertex   3.232291e+00 -1.088362e+01 7.500000e+00
      vertex   3.232291e+00 -1.088362e+01 4.000000e+00
      vertex   3.383624e+00 -1.073229e+01 7.500000e+00
    endloop
  endfacet
  facet normal 7.071068e-01 -7.071068e-01 -8.971957e-17
    outer loop
      vertex   3.383624e+00 -1.073229e+01 7.500000e+00
      vertex   3.232291e+00 -1.088362e+01 4.000000e+00
      vertex   3.383624e+00 -1.073229e+01 4.000000e+00
    endloop
  endfacet
  facet normal 8.005412e-01 -5.992777e-01 -1.015748e-16
    outer loop
      vertex   3.383624e+00 -1.073229e+01 7.500000e+00
      vertex   3.383624e+00 -1.073229e+01 4.000000e+00
      vertex   3.511880e+00 -1.056096e+01 7.500000e+00
    endloop
  endfacet
  facet normal 8.005412e-01 -5.992777e-01 0.000000e+00
    outer loop
      vertex   3.511880e+00 -1.056096e+01 7.500000e+00
      vertex   3.383624e+00 -1.073229e+01 4.000000e+00
      vertex   3.511880e+00 -1.056096e+01 4.000000e+00
    endloop
  endfacet
  facet normal 8.776790e-01 -4.792490e-01 0.000000e+00
    outer loop
      vertex   3.511880e+00 -1.056096e+01 7.500000e+00
      vertex   3.511880e+00 -1.056096e+01 4.000000e+00
      vertex   3.614448e+00 -1.037312e+01 7.500000e+00
    endloop
  endfacet
  facet normal 8.776790e-01 -4.792490e-01 0.000000e+00
    outer loop
      vertex   3.614448e+00 -1.037312e+01 7.500000e+00
      vertex   3.511880e+00 -1.056096e+01 4.000000e+00
      vertex   3.614448e+00 -1.037312e+01 4.000000e+00
    endloop
  endfacet
  facet normal 9.369497e-01 -3.494642e-01 0.000000e+00
    outer loop
      vertex   3.614448e+00 -1.037312e+01 7.500000e+00
      vertex   3.614448e+00 -1.037312e+01 4.000000e+00
      vertex   3.689239e+00 -1.017260e+01 7.500000e+00
    endloop
  endfacet
  facet normal 9.369497e-01 -3.494642e-01 0.000000e+00
    outer loop
      vertex   3.689239e+00 -1.017260e+01 7.500000e+00
      vertex   3.614448e+00 -1.037312e+01 4.000000e+00
      vertex   3.689239e+00 -1.017260e+01 4.000000e+00
    endloop
  endfacet
  facet normal 9.771469e-01 -2.125653e-01 0.000000e+00
    outer loop
      vertex   3.689239e+00 -1.017260e+01 7.500000e+00
      vertex   3.689239e+00 -1.017260e+01 4.000000e+00
      vertex   3.734732e+00 -9.963472e+00 7.500000e+00
    endloop
  endfacet
  facet normal 9.771469e-01 -2.125653e-01 -1.239830e-16
    outer loop
      vertex   3.734732e+00 -9.963472e+00 7.500000e+00
      vertex   3.689239e+00 -1.017260e+01 4.000000e+00
      vertex   3.734732e+00 -9.963472e+00 4.000000e+00
    endloop
  endfacet
  facet normal 9.974521e-01 -7.133918e-02 -1.265593e-16
    outer loop
      vertex   3.734732e+00 -9.963472e+00 7.500000e+00
      vertex   3.734732e+00 -9.963472e+00 4.000000e+00
      vertex   3.750000e+00 -9.750000e+00 7.500000e+00
    endloop
  endfacet
  facet normal 9.974521e-01 -7.133918e-02 0.000000e+00
    outer loop
      vertex   3.750000e+00 -9.750000e+00 7.500000e+00
      vertex   3.734732e+00 -9.963472e+00 4.000000e+00
      vertex   3.750000e+00 -9.750000e+00 4.000000e+00
    endloop
  endfacet
  facet normal 7.133918e-02 -9.974521e-01 0.000000e+00
    outer loop
      vertex   2.250000e+00 -1.125000e+01 2.250000e+00
      vertex   2.250000e+00 -1.125000e+01 0.000000e+00
      vertex   2.463472e+00 -1.123473e+01 2.250000e+00
    endloop
  endfacet
  facet normal 7.133918e-02 -9.974521e-01 0.000000e+00
    outer loop
      vertex   2.463472e+00 -1.123473e+01 2.250000e+00
      vertex   2.250000e+00 -1.125000e+01 0.000000e+00
      vertex   2.463472e+00 -1.123473e+01 0.000000e+00
    endloop
  endfacet
  facet normal 2.125653e-01 -9.771469e-01 0.000000e+00
    outer loop
      vertex   2.463472e+00 -1.123473e+01 2.250000e+00
      vertex   2.463472e+00 -1.123473e+01 0.000000e+00
      vertex   2.672599e+00 -1.118924e+01 2.250000e+00
    endloop
  endfacet
  facet normal 2.125653e-01 -9.771469e-01 0.000000e+00
    outer loop
      vertex   2.672599e+00 -1.118924e+01 2.250000e+00
      vertex   2.463472e+00 -1.123473e+01 0.000000e+00
      vertex   2.672599e+00 -1.118924e+01 0.000000e+00
    endloop
  endfacet
  facet normal 3.494642e-01 -9.369497e-01 0.000000e+00
    outer loop
      vertex   2.672599e+00 -1.118924e+01 2.250000e+00
      vertex   2.672599e+00 -1.118924e+01 0.000000e+00
      vertex   2.873123e+00 -1.111445e+01 2.250000e+00
    endloop
  endfacet
  facet normal 3.494642e-01 -9.369497e-01 0.000000e+00
    outer loop
      vertex   2.873123e+00 -1.111445e+01 2.250000e+00
      vertex   2.672599e+00 -1.118924e+01 0.000000e+00
      vertex   2.873123e+00 -1.111445e+01 0.000000e+00
    endloop
  endfacet
  facet normal 4.792490e-01 -8.776790e-01 0.000000e+00
    outer loop
      vertex   2.873123e+00 -1.111445e+01 2.250000e+00
      vertex   2.873123e+00 -1.111445e+01 0.000000e+00
      vertex   3.060961e+00 -1.101188e+01 2.250000e+00
    endloop
  endfacet
  facet normal 4.792490e-01 -8.776790e-01 0.000000e+00
    outer loop
      vertex   3.060961e+00 -1.101188e+01 2.250000e+00
      vertex   2.873123e+00 -1.111445e+01 0.000000e+00
      vertex   3.060961e+00 -1.101188e+01 0.000000e+00
    endloop
  endfacet
  facet normal 5.992777e-01 -8.005412e-01 0.000000e+00
    outer loop
      vertex   3.060961e+00 -1.101188e+01 2.250000e+00
      vertex   3.060961e+00 -1.101188e+01 0.000000e+00
      vertex   3.232291e+00 -1.088362e+01 2.250000e+00
    endloop
  endfacet
  facet normal 5.992777e-01 -8.005412e-01 0.000000e+00
    outer loop
      vertex   3.232291e+00 -1.088362e+01 2.250000e+00
      vertex   3.060961e+00 -1.101188e+01 0.000000e+00
      vertex   3.232291e+00 -1.088362e+01 0.000000e+00
    endloop
  endfacet
  facet normal 7.071068e-01 -7.071068e-01 0.000000e+00
    outer loop
      vertex   3.232291e+00 -1.088362e+01 2.250000e+00
      vertex   3.232291e+00 -1.088362e+01 0.000000e+00
      vertex   3.383624e+00 -1.073229e+01 2.250000e+00
    endloop
  endfacet
  facet normal 7.071068e-01 -7.071068e-01 0.000000e+00
    outer loop
      vertex   3.383624e+00 -1.073229e+01 2.250000e+00
      vertex   3.232291e+00 -1.088362e+01 0.000000e+00
      vertex   3.383624e+00 -1.073229e+01 0.000000e+00
    endloop
  endfacet
  facet normal 8.005412e-01 -5.992777e-01 0.000000e+00
    outer loop
      vertex   3.383624e+00 -1.073229e+01 2.250000e+00
      vertex   3.383624e+00 -1.073229e+01 0.000000e+00
      vertex   3.511880e+00 -1.056096e+01 2.250000e+00
    endloop
  endfacet
  facet normal 8.005412e-01 -5.992777e-01 -1.580052e-16
    outer loop
      vertex   3.511880e+00 -1.056096e+01 2.250000e+00
      vertex   3.383624e+00 -1.073229e+01 0.000000e+00
      vertex   3.511880e+00 -1.056096e+01 0.000000e+00
    endloop
  endfacet
  facet normal 8.776790e-01 -4.792490e-01 -1.732301e-16
    outer loop
      vertex   3.511880e+00 -1.056096e+01 2.250000e+00
      vertex   3.511880e+00 -1.056096e+01 0.000000e+00
      vertex   3.614448e+00 -1.037312e+01 2.250000e+00
    endloop
  endfacet
  facet normal 8.776790e-01 -4.792490e-01 0.000000e+00
    outer loop
      vertex   3.614448e+00 -1.037312e+01 2.250000e+00
      vertex   3.511880e+00 -1.056096e+01 0.000000e+00
      vertex   3.614448e+00 -1.037312e+01 0.000000e+00
    endloop
  endfacet
  facet normal 9.369497e-01 -3.494642e-01 0.000000e+00
    outer loop
      vertex   3.614448e+00 -1.037312e+01 2.250000e+00
      vertex   3.614448e+00 -1.037312e+01 0.000000e+00
      vertex   3.689239e+00 -1.017260e+01 2.250000e+00
    endloop
  endfacet
  facet normal 9.369497e-01 -3.494642e-01 0.000000e+00
    outer loop
      vertex   3.689239e+00 -1.017260e+01 2.250000e+00
      vertex   3.614448e+00 -1.037312e+01 0.000000e+00
      vertex   3.689239e+00 -1.017260e+01 0.000000e+00
    endloop
  endfacet
  facet normal 9.771469e-01 -2.125653e-01 0.000000e+00
    outer loop
      vertex   3.689239e+00 -1.017260e+01 2.250000e+00
      vertex   3.689239e+00 -1.017260e+01 0.000000e+00
      vertex   3.734732e+00 -9.963472e+00 2.250000e+00
    endloop
  endfacet
  facet normal 9.771469e-01 -2.125653e-01 0.000000e+00
    outer loop
      vertex   3.734732e+00 -9.963472e+00 2.250000e+00
      vertex   3.689239e+00 -1.017260e+01 0.000000e+00
      vertex   3.734732e+00 -9.963472e+00 0.000000e+00
    endloop
  endfacet
  facet normal 9.974521e-01 -7.133918e-02 0.000000e+00
    outer loop
      vertex   3.734732e+00 -9.963472e+00 2.250000e+00
      vertex   3.734732e+00 -9.963472e+00 0.000000e+00
      vertex   3.750000e+00 -9.750000e+00 2.250000e+00
    endloop
  endfacet
  facet normal 9.974521e-01 -7.133918e-02 0.000000e+00
    outer loop
      vertex   3.750000e+00 -9.750000e+00 2.250000e+00
      vertex   3.734732e+00 -9.963472e+00 0.000000e+00
      vertex   3.750000e+00 -9.750000e+00 0.000000e+00
    endloop
  endfacet
  facet normal 4.984589e-02 -9.987569e-01 0.000000e+00
    outer loop
      vertex   -4.924346e+00 -1.125000e+01 2.250000e+00
      vertex   -4.675427e+00 -1.123758e+01 2.250000e+00
      vertex   -4.924346e+00 -1.125000e+01 4.000000e+00
    endloop
  endfacet
  facet normal 4.984589e-02 -9.987569e-01 -9.883694e-16
    outer loop
      vertex   -4.924346e+00 -1.125000e+01 4.000000e+00
      vertex   -4.675427e+00 -1.123758e+01 2.250000e+00
      vertex   -4.675427e+00 -1.123758e+01 4.000000e+00
    endloop
  endfacet
  facet normal 1.490423e-01 -9.888308e-01 -9.280802e-16
    outer loop
      vertex   -4.675427e+00 -1.123758e+01 4.000000e+00
      vertex   -4.675427e+00 -1.123758e+01 2.250000e+00
      vertex   -4.428981e+00 -1.120043e+01 2.250000e+00
    endloop
  endfacet
  facet normal 1.490423e-01 -9.888308e-01 0.000000e+00
    outer loop
      vertex   -4.675427e+00 -1.123758e+01 4.000000e+00
      vertex   -4.428981e+00 -1.120043e+01 2.250000e+00
      vertex   -4.428981e+00 -1.120043e+01 4.000000e+00
    endloop
  endfacet
  facet normal 2.467574e-01 -9.690773e-01 0.000000e+00
    outer loop
      vertex   -4.428981e+00 -1.120043e+01 4.000000e+00
      vertex   -4.428981e+00 -1.120043e+01 2.250000e+00
      vertex   -4.187459e+00 -1.113893e+01 2.250000e+00
    endloop
  endfacet
  facet normal 2.467574e-01 -9.690773e-01 1.272749e-16
    outer loop
      vertex   -4.428981e+00 -1.120043e+01 4.000000e+00
      vertex   -4.187459e+00 -1.113893e+01 2.250000e+00
      vertex   -4.187459e+00 -1.113893e+01 4.000000e+00
    endloop
  endfacet
  facet normal 3.420201e-01 -9.396926e-01 1.735857e-16
    outer loop
      vertex   -4.187459e+00 -1.113893e+01 4.000000e+00
      vertex   -4.187459e+00 -1.113893e+01 2.250000e+00
      vertex   -3.953259e+00 -1.105369e+01 2.250000e+00
    endloop
  endfacet
  facet normal 3.420201e-01 -9.396926e-01 -1.750030e-16
    outer loop
      vertex   -4.187459e+00 -1.113893e+01 4.000000e+00
      vertex   -3.953259e+00 -1.105369e+01 2.250000e+00
      vertex   -3.953259e+00 -1.105369e+01 4.000000e+00
    endloop
  endfacet
  facet normal 4.338837e-01 -9.009689e-01 -2.202092e-16
    outer loop
      vertex   -3.953259e+00 -1.105369e+01 4.000000e+00
      vertex   -3.953259e+00 -1.105369e+01 2.250000e+00
      vertex   -3.728712e+00 -1.094555e+01 2.250000e+00
    endloop
  endfacet
  facet normal 4.338837e-01 -9.009689e-01 0.000000e+00
    outer loop
      vertex   -3.953259e+00 -1.105369e+01 4.000000e+00
      vertex   -3.728712e+00 -1.094555e+01 2.250000e+00
      vertex   -3.728712e+00 -1.094555e+01 4.000000e+00
    endloop
  endfacet
  facet normal 5.214352e-01 -8.532909e-01 0.000000e+00
    outer loop
      vertex   -3.728712e+00 -1.094555e+01 4.000000e+00
      vertex   -3.728712e+00 -1.094555e+01 2.250000e+00
      vertex   -3.516046e+00 -1.081560e+01 2.250000e+00
    endloop
  endfacet
  facet normal 5.214352e-01 -8.532909e-01 0.000000e+00
    outer loop
      vertex   -3.728712e+00 -1.094555e+01 4.000000e+00
      vertex   -3.516046e+00 -1.081560e+01 2.250000e+00
      vertex   -3.516046e+00 -1.081560e+01 4.000000e+00
    endloop
  endfacet
  facet normal 6.038044e-01 -7.971325e-01 0.000000e+00
    outer loop
      vertex   -3.516046e+00 -1.081560e+01 4.000000e+00
      vertex   -3.516046e+00 -1.081560e+01 2.250000e+00
      vertex   -3.317377e+00 -1.066511e+01 2.250000e+00
    endloop
  endfacet
  facet normal 6.038044e-01 -7.971325e-01 3.102326e-16
    outer loop
      vertex   -3.516046e+00 -1.081560e+01 4.000000e+00
      vertex   -3.317377e+00 -1.066511e+01 2.250000e+00
      vertex   -3.317377e+00 -1.066511e+01 4.000000e+00
    endloop
  endfacet
  facet normal 0.000000e+00 9.702574e-01 2.420754e-01
    outer loop
      vertex   3.750000e+00 9.317491e+00 2.250000e+00
      vertex   3.750000e+00 9.364823e+00 2.060290e+00
      vertex   1.750000e+00 9.317491e+00 2.250000e+00
    endloop
  endfacet
  facet normal 6.284135e-04 9.686812e-01 2.483071e-01
    outer loop
      vertex   1.750000e+00 9.317491e+00 2.250000e+00
      vertex   3.750000e+00 9.364823e+00 2.060290e+00
      vertex   -1.784873e-30 9.352818e+00 2.116615e+00
    endloop
  endfacet
  facet normal -1.702747e-03 9.609159e-01 2.768351e-01
    outer loop
      vertex   1.750000e+00 9.317491e+00 2.250000e+00
      vertex   -1.784873e-30 9.352818e+00 2.116615e+00
      vertex   -1.777099e-30 9.290728e+00 2.332131e+00
    endloop
  endfacet
  facet normal -6.402441e-04 9.858708e-01 1.675062e-01
    outer loop
      vertex   -1.784873e-30 9.352818e+00 2.116615e+00
      vertex   3.750000e+00 9.364823e+00 2.060290e+00
      vertex   -1.789576e-30 9.390386e+00 1.895502e+00
    endloop
  endfacet
  facet normal 3.201304e-04 9.892584e-01 1.461769e-01
    outer loop
      vertex   -1.789576e-30 9.390386e+00 1.895502e+00
      vertex   3.750000e+00 9.364823e+00 2.060290e+00
      vertex   3.750000e+00 9.393404e+00 1.866865e+00
    endloop
  endfacet
  facet normal -3.753538e-04 9.984267e-01 5.607044e-02
    outer loop
      vertex   -1.789576e-30 9.390386e+00 1.895502e+00
      vertex   3.750000e+00 9.393404e+00 1.866865e+00
      vertex   6.117111e-16 9.402962e+00 1.671573e+00
    endloop
  endfacet
  facet normal 4.586571e-16 9.988046e-01 4.888138e-02
    outer loop
      vertex   6.117111e-16 9.402962e+00 1.671573e+00
      vertex   3.750000e+00 9.393404e+00 1.866865e+00
      vertex   3.750000e+00 9.402962e+00 1.671573e+00
    endloop
  endfacet
  facet normal 1.969072e-03 9.376779e-01 3.475000e-01
    outer loop
      vertex   1.750000e+00 9.317491e+00 2.250000e+00
      vertex   -1.777099e-30 9.290728e+00 2.332131e+00
      vertex   1.750000e+00 9.232061e+00 2.480521e+00
    endloop
  endfacet
  facet normal -1.476856e-03 9.238785e-01 3.826830e-01
    outer loop
      vertex   1.750000e+00 9.232061e+00 2.480521e+00
      vertex   -1.777099e-30 9.290728e+00 2.332131e+00
      vertex   -1.766353e-30 9.204900e+00 2.539340e+00
    endloop
  endfacet
  facet normal 1.676563e-03 8.879603e-01 4.599171e-01
    outer loop
      vertex   1.750000e+00 9.232061e+00 2.480521e+00
      vertex   -1.766353e-30 9.204900e+00 2.539340e+00
      vertex   1.750000e+00 9.118994e+00 2.698818e+00
    endloop
  endfacet
  facet normal -1.117737e-03 8.752229e-01 4.837186e-01
    outer loop
      vertex   1.750000e+00 9.118994e+00 2.698818e+00
      vertex   -1.766353e-30 9.204900e+00 2.539340e+00
      vertex   -1.752770e-30 9.096410e+00 2.735637e+00
    endloop
  endfacet
  facet normal 1.250846e-03 8.248260e-01 5.653853e-01
    outer loop
      vertex   1.750000e+00 9.118994e+00 2.698818e+00
      vertex   -1.752770e-30 9.096410e+00 2.735637e+00
      vertex   1.750000e+00 8.979999e+00 2.901595e+00
    endloop
  endfacet
  facet normal -6.254327e-04 8.155607e-01 5.786712e-01
    outer loop
      vertex   1.750000e+00 8.979999e+00 2.901595e+00
      vertex   -1.752770e-30 9.096410e+00 2.735637e+00
      vertex   -1.736520e-30 8.966625e+00 2.918552e+00
    endloop
  endfacet
  facet normal 6.919703e-04 7.492289e-01 6.623108e-01
    outer loop
      vertex   1.750000e+00 8.979999e+00 2.901595e+00
      vertex   -1.736520e-30 8.966625e+00 2.918552e+00
      vertex   1.750000e+00 8.817175e+00 3.085786e+00
    endloop
  endfacet
  facet normal -5.072868e-16 7.456422e-01 6.663466e-01
    outer loop
      vertex   1.750000e+00 8.817175e+00 3.085786e+00
      vertex   -1.736520e-30 8.966625e+00 2.918552e+00
      vertex   -1.323047e-30 8.817175e+00 3.085786e+00
    endloop
  endfacet
endsolid
